%TF.GenerationSoftware,KiCad,Pcbnew,(6.0.10)*%
%TF.CreationDate,2023-01-18T22:34:27-08:00*%
%TF.ProjectId,shitpad,73686974-7061-4642-9e6b-696361645f70,rev?*%
%TF.SameCoordinates,Original*%
%TF.FileFunction,Copper,L1,Top*%
%TF.FilePolarity,Positive*%
%FSLAX46Y46*%
G04 Gerber Fmt 4.6, Leading zero omitted, Abs format (unit mm)*
G04 Created by KiCad (PCBNEW (6.0.10)) date 2023-01-18 22:34:27*
%MOMM*%
%LPD*%
G01*
G04 APERTURE LIST*
%TA.AperFunction,ComponentPad*%
%ADD10C,2.200000*%
%TD*%
%TA.AperFunction,ComponentPad*%
%ADD11O,1.400000X1.400000*%
%TD*%
%TA.AperFunction,ComponentPad*%
%ADD12C,1.400000*%
%TD*%
%TA.AperFunction,ComponentPad*%
%ADD13C,2.000000*%
%TD*%
%TA.AperFunction,ComponentPad*%
%ADD14R,2.000000X3.200000*%
%TD*%
%TA.AperFunction,ComponentPad*%
%ADD15R,2.000000X2.000000*%
%TD*%
%TA.AperFunction,SMDPad,CuDef*%
%ADD16R,0.900000X1.200000*%
%TD*%
%TA.AperFunction,ComponentPad*%
%ADD17O,1.500000X1.500000*%
%TD*%
%TA.AperFunction,ComponentPad*%
%ADD18R,1.500000X1.500000*%
%TD*%
%TA.AperFunction,ComponentPad*%
%ADD19O,1.600000X2.000000*%
%TD*%
%TA.AperFunction,ComponentPad*%
%ADD20O,1.700000X1.700000*%
%TD*%
%TA.AperFunction,ComponentPad*%
%ADD21R,1.700000X1.700000*%
%TD*%
%TA.AperFunction,ComponentPad*%
%ADD22C,1.752600*%
%TD*%
%TA.AperFunction,ComponentPad*%
%ADD23R,1.752600X1.752600*%
%TD*%
%TA.AperFunction,ViaPad*%
%ADD24C,0.800000*%
%TD*%
%TA.AperFunction,Conductor*%
%ADD25C,0.254000*%
%TD*%
%TA.AperFunction,Conductor*%
%ADD26C,0.381000*%
%TD*%
G04 APERTURE END LIST*
D10*
%TO.P,SW1,2*%
%TO.N,COL0*%
X115972000Y-58876250D03*
%TO.P,SW1,1*%
%TO.N,Net-(D1-Pad2)*%
X109622000Y-61416250D03*
%TD*%
D11*
%TO.P,R2,2*%
%TO.N,+5V*%
X150610000Y-127000000D03*
D12*
%TO.P,R2,1*%
%TO.N,I2C2*%
X142990000Y-127000000D03*
%TD*%
D11*
%TO.P,R1,2*%
%TO.N,+5V*%
X150610000Y-133000000D03*
D12*
%TO.P,R1,1*%
%TO.N,I2C1*%
X142990000Y-133000000D03*
%TD*%
D13*
%TO.P,SW6,S2,S2*%
%TO.N,Net-(D10-Pad2)*%
X152207000Y-90043750D03*
%TO.P,SW6,S1,S1*%
%TO.N,COL3*%
X157207000Y-90043750D03*
D14*
%TO.P,SW6,MP*%
%TO.N,N/C*%
X149107000Y-97043750D03*
X160307000Y-97043750D03*
D13*
%TO.P,SW6,C,C*%
%TO.N,GND*%
X154707000Y-104543750D03*
%TO.P,SW6,B,B*%
%TO.N,ROT1*%
X157207000Y-104543750D03*
D15*
%TO.P,SW6,A,A*%
%TO.N,ROT3*%
X152207000Y-104543750D03*
%TD*%
D16*
%TO.P,D12,2,A*%
%TO.N,Net-(D10-Pad2)*%
X136975750Y-101000000D03*
%TO.P,D12,1,K*%
%TO.N,ROW1*%
X140275750Y-101000000D03*
%TD*%
%TO.P,D11,2,A*%
%TO.N,Net-(SW5-PadS2)*%
X153475750Y-81500000D03*
%TO.P,D11,1,K*%
%TO.N,ROW0*%
X156775750Y-81500000D03*
%TD*%
D17*
%TO.P,D10,2,A*%
%TO.N,Net-(D10-Pad2)*%
X134228250Y-95706250D03*
D18*
%TO.P,D10,1,K*%
%TO.N,ROW1*%
X144388250Y-95706250D03*
%TD*%
D17*
%TO.P,D9,2,A*%
%TO.N,Net-(SW5-PadS2)*%
X150000000Y-76500000D03*
D18*
%TO.P,D9,1,K*%
%TO.N,ROW0*%
X160160000Y-76500000D03*
%TD*%
D13*
%TO.P,SW5,S2,S2*%
%TO.N,Net-(SW5-PadS2)*%
X152325750Y-56600000D03*
%TO.P,SW5,S1,S1*%
%TO.N,COL3*%
X157325750Y-56600000D03*
D14*
%TO.P,SW5,MP*%
%TO.N,N/C*%
X149225750Y-63600000D03*
X160425750Y-63600000D03*
D13*
%TO.P,SW5,C,C*%
%TO.N,GND*%
X154825750Y-71100000D03*
%TO.P,SW5,B,B*%
%TO.N,ROT1*%
X157325750Y-71100000D03*
D15*
%TO.P,SW5,A,A*%
%TO.N,ROT2*%
X152325750Y-71100000D03*
%TD*%
D19*
%TO.P,T1,3,RING1*%
%TO.N,I2C2*%
X144700000Y-144412500D03*
%TO.P,T1,4,RING2*%
%TO.N,I2C1*%
X144700000Y-147412500D03*
%TO.P,T1,2,TIP*%
%TO.N,GND*%
X144700000Y-140412500D03*
%TO.P,T1,1,SLEEVE*%
%TO.N,+5V*%
X149300000Y-139312500D03*
%TD*%
D20*
%TO.P,X1,5,GND*%
%TO.N,GND*%
X157000000Y-139660000D03*
%TO.P,X1,4,ID*%
%TO.N,unconnected-(X1-Pad4)*%
X157000000Y-137120000D03*
%TO.P,X1,3,D+*%
%TO.N,I2C1*%
X157000000Y-134580000D03*
%TO.P,X1,2,D-*%
%TO.N,I2C2*%
X157000000Y-132040000D03*
D21*
%TO.P,X1,1,VBUS*%
%TO.N,+5V*%
X157000000Y-129500000D03*
%TD*%
D20*
%TO.P,J3,12,Pin_12*%
%TO.N,ROT2*%
X67394500Y-118253750D03*
%TO.P,J3,11,Pin_11*%
%TO.N,ROT3*%
X67394500Y-120793750D03*
%TO.P,J3,10,Pin_10*%
%TO.N,Net-(J3-Pad10)*%
X67394500Y-123333750D03*
%TO.P,J3,9,Pin_9*%
%TO.N,Net-(J3-Pad9)*%
X67394500Y-125873750D03*
%TO.P,J3,8,Pin_8*%
%TO.N,Net-(J3-Pad8)*%
X67394500Y-128413750D03*
%TO.P,J3,7,Pin_7*%
%TO.N,Net-(J3-Pad7)*%
X67394500Y-130953750D03*
%TO.P,J3,6,Pin_6*%
%TO.N,Net-(J3-Pad6)*%
X67394500Y-133493750D03*
%TO.P,J3,5,Pin_5*%
%TO.N,Net-(J3-Pad5)*%
X67394500Y-136033750D03*
%TO.P,J3,4,Pin_4*%
%TO.N,Net-(J3-Pad4)*%
X67394500Y-138573750D03*
%TO.P,J3,3,Pin_3*%
%TO.N,Net-(J3-Pad3)*%
X67394500Y-141113750D03*
%TO.P,J3,2,Pin_2*%
%TO.N,Net-(J3-Pad2)*%
X67394500Y-143653750D03*
D21*
%TO.P,J3,1,Pin_1*%
%TO.N,Net-(J3-Pad1)*%
X67394500Y-146193750D03*
%TD*%
D20*
%TO.P,J2,5,Pin_5*%
%TO.N,ROW1*%
X67394500Y-102373750D03*
%TO.P,J2,4,Pin_4*%
%TO.N,ROW0*%
X67394500Y-104913750D03*
%TO.P,J2,3,Pin_3*%
%TO.N,COL1*%
X67394500Y-107453750D03*
%TO.P,J2,2,Pin_2*%
%TO.N,COL0*%
X67394500Y-109993750D03*
D21*
%TO.P,J2,1,Pin_1*%
%TO.N,ROT1*%
X67394500Y-112533750D03*
%TD*%
%TO.P,J1,1,Pin_1*%
%TO.N,Net-(U1-Pad12)*%
X134120000Y-148000000D03*
D20*
%TO.P,J1,2,Pin_2*%
%TO.N,Net-(U1-Pad11)*%
X131580000Y-148000000D03*
%TO.P,J1,3,Pin_3*%
%TO.N,Net-(U1-Pad10)*%
X129040000Y-148000000D03*
%TO.P,J1,4,Pin_4*%
%TO.N,Net-(U1-Pad9)*%
X126500000Y-148000000D03*
%TO.P,J1,5,Pin_5*%
%TO.N,Net-(U1-Pad8)*%
X123960000Y-148000000D03*
%TO.P,J1,6,Pin_6*%
%TO.N,Net-(U1-Pad7)*%
X121420000Y-148000000D03*
%TO.P,J1,7,Pin_7*%
%TO.N,Net-(U1-Pad6)*%
X118880000Y-148000000D03*
%TO.P,J1,8,Pin_8*%
%TO.N,Net-(U1-Pad5)*%
X116340000Y-148000000D03*
%TO.P,J1,9,Pin_9*%
%TO.N,Net-(U1-Pad4)*%
X113800000Y-148000000D03*
%TO.P,J1,10,Pin_10*%
%TO.N,Net-(U1-Pad3)*%
X111260000Y-148000000D03*
%TO.P,J1,11,Pin_11*%
%TO.N,I2C2*%
X108720000Y-148000000D03*
%TO.P,J1,12,Pin_12*%
%TO.N,I2C1*%
X106180000Y-148000000D03*
%TD*%
D10*
%TO.P,SW4,2*%
%TO.N,COL1*%
X96922000Y-58876250D03*
%TO.P,SW4,1*%
%TO.N,Net-(D4-Pad2)*%
X90572000Y-61416250D03*
%TD*%
D17*
%TO.P,D8,2,A*%
%TO.N,Net-(D4-Pad2)*%
X88500000Y-76500000D03*
D18*
%TO.P,D8,1,K*%
%TO.N,ROW1*%
X98660000Y-76500000D03*
%TD*%
%TO.P,D7,1,K*%
%TO.N,ROW0*%
X79580000Y-76500000D03*
D17*
%TO.P,D7,2,A*%
%TO.N,Net-(D3-Pad2)*%
X69420000Y-76500000D03*
%TD*%
D18*
%TO.P,D6,1,K*%
%TO.N,ROW1*%
X136660000Y-76500000D03*
D17*
%TO.P,D6,2,A*%
%TO.N,Net-(D2-Pad2)*%
X126500000Y-76500000D03*
%TD*%
%TO.P,D5,2,A*%
%TO.N,Net-(D1-Pad2)*%
X107420000Y-76500000D03*
D18*
%TO.P,D5,1,K*%
%TO.N,ROW0*%
X117580000Y-76500000D03*
%TD*%
D22*
%TO.P,U1,25,B7*%
%TO.N,ROW1*%
X97580000Y-118020150D03*
%TO.P,U1,26,D5*%
%TO.N,ROW0*%
X95040000Y-118477350D03*
%TO.P,U1,27,C7*%
%TO.N,COL1*%
X92500000Y-118020150D03*
%TO.P,U1,28,F1*%
%TO.N,COL0*%
X89960000Y-118477350D03*
%TO.P,U1,29,F0*%
%TO.N,ROT1*%
X87420000Y-118020150D03*
%TO.P,U1,24,B0*%
%TO.N,Net-(J3-Pad1)*%
X84651400Y-146188750D03*
%TO.P,U1,12,9/PB5*%
%TO.N,Net-(U1-Pad12)*%
X99891400Y-118248750D03*
%TO.P,U1,23,GND*%
%TO.N,Net-(J3-Pad2)*%
X85108600Y-143648750D03*
%TO.P,U1,22,RST*%
%TO.N,Net-(J3-Pad3)*%
X84651400Y-141108750D03*
%TO.P,U1,21,VCC*%
%TO.N,Net-(J3-Pad4)*%
X85108600Y-138568750D03*
%TO.P,U1,20,A3/PF4*%
%TO.N,Net-(J3-Pad5)*%
X84651400Y-136028750D03*
%TO.P,U1,19,A2/PF5*%
%TO.N,Net-(J3-Pad6)*%
X85108600Y-133488750D03*
%TO.P,U1,18,A1/PF6*%
%TO.N,Net-(J3-Pad7)*%
X84651400Y-130948750D03*
%TO.P,U1,17,A0/PF7*%
%TO.N,Net-(J3-Pad8)*%
X85108600Y-128408750D03*
%TO.P,U1,16,15/PB1*%
%TO.N,Net-(J3-Pad9)*%
X84651400Y-125868750D03*
%TO.P,U1,15,14/PB3*%
%TO.N,Net-(J3-Pad10)*%
X85108600Y-123328750D03*
%TO.P,U1,14,16/PB2*%
%TO.N,ROT3*%
X84651400Y-120788750D03*
%TO.P,U1,13,10/PB6*%
%TO.N,ROT2*%
X85108600Y-118248750D03*
%TO.P,U1,11,8/PB4*%
%TO.N,Net-(U1-Pad11)*%
X100348600Y-120788750D03*
%TO.P,U1,10,7/PE6*%
%TO.N,Net-(U1-Pad10)*%
X99891400Y-123328750D03*
%TO.P,U1,9,6/PD7*%
%TO.N,Net-(U1-Pad9)*%
X100348600Y-125868750D03*
%TO.P,U1,8,5/PC6*%
%TO.N,Net-(U1-Pad8)*%
X99891400Y-128408750D03*
%TO.P,U1,7,4/PD4*%
%TO.N,Net-(U1-Pad7)*%
X100348600Y-130948750D03*
%TO.P,U1,6,3/PD0*%
%TO.N,Net-(U1-Pad6)*%
X99891400Y-133488750D03*
%TO.P,U1,5,2/PD1*%
%TO.N,Net-(U1-Pad5)*%
X100348600Y-136028750D03*
%TO.P,U1,4,GND*%
%TO.N,Net-(U1-Pad4)*%
X99891400Y-138568750D03*
%TO.P,U1,3,GND*%
%TO.N,Net-(U1-Pad3)*%
X100348600Y-141108750D03*
%TO.P,U1,2,RX1/PD2*%
%TO.N,I2C2*%
X99891400Y-143648750D03*
D23*
%TO.P,U1,1,TX0/PD3*%
%TO.N,I2C1*%
X100348600Y-146188750D03*
%TD*%
D10*
%TO.P,SW3,1*%
%TO.N,Net-(D3-Pad2)*%
X71522000Y-61416250D03*
%TO.P,SW3,2*%
%TO.N,COL1*%
X77872000Y-58876250D03*
%TD*%
%TO.P,SW2,2*%
%TO.N,COL0*%
X135022000Y-58876250D03*
%TO.P,SW2,1*%
%TO.N,Net-(D2-Pad2)*%
X128672000Y-61416250D03*
%TD*%
D16*
%TO.P,D4,1,K*%
%TO.N,ROW1*%
X95100750Y-81500000D03*
%TO.P,D4,2,A*%
%TO.N,Net-(D4-Pad2)*%
X91800750Y-81500000D03*
%TD*%
%TO.P,D3,2,A*%
%TO.N,Net-(D3-Pad2)*%
X72888250Y-81418750D03*
%TO.P,D3,1,K*%
%TO.N,ROW0*%
X76188250Y-81418750D03*
%TD*%
%TO.P,D2,1,K*%
%TO.N,ROW1*%
X133275750Y-81500000D03*
%TO.P,D2,2,A*%
%TO.N,Net-(D2-Pad2)*%
X129975750Y-81500000D03*
%TD*%
%TO.P,D1,2,A*%
%TO.N,Net-(D1-Pad2)*%
X110900000Y-81500000D03*
%TO.P,D1,1,K*%
%TO.N,ROW0*%
X114200000Y-81500000D03*
%TD*%
D24*
%TO.N,ROW1*%
X144500000Y-83500000D03*
%TO.N,COL0*%
X95500000Y-85000000D03*
X104500000Y-76000000D03*
%TO.N,ROW0*%
X86000000Y-90500000D03*
%TO.N,ROT2*%
X133500000Y-90500000D03*
X93000000Y-101000000D03*
%TO.N,ROT1*%
X152000000Y-109500000D03*
X95500000Y-109500000D03*
%TO.N,COL3*%
X162000000Y-73500000D03*
%TD*%
D25*
%TO.N,ROW1*%
X144500000Y-83500000D02*
X137500000Y-76500000D01*
X137500000Y-76500000D02*
X136660000Y-76500000D01*
%TO.N,Net-(D10-Pad2)*%
X139890750Y-90043750D02*
X152207000Y-90043750D01*
X134228250Y-95706250D02*
X139890750Y-90043750D01*
X136975750Y-98453750D02*
X134228250Y-95706250D01*
X136975750Y-101000000D02*
X136975750Y-98453750D01*
%TO.N,ROW1*%
X144388250Y-96887500D02*
X140275750Y-101000000D01*
X144388250Y-95706250D02*
X144388250Y-96887500D01*
%TO.N,COL0*%
X95500000Y-85000000D02*
X104500000Y-76000000D01*
%TO.N,ROW0*%
X86000000Y-90500000D02*
X90000000Y-86500000D01*
X90000000Y-86500000D02*
X109200000Y-86500000D01*
X89580000Y-86500000D02*
X90000000Y-86500000D01*
%TO.N,COL1*%
X66217500Y-106276750D02*
X67394500Y-107453750D01*
X66217500Y-64702667D02*
X66217500Y-106276750D01*
X72043917Y-58876250D02*
X66217500Y-64702667D01*
X77872000Y-58876250D02*
X72043917Y-58876250D01*
%TO.N,ROT2*%
X93000000Y-101000000D02*
X123000000Y-101000000D01*
X123000000Y-101000000D02*
X133500000Y-90500000D01*
%TO.N,ROT1*%
X152000000Y-109500000D02*
X95500000Y-109500000D01*
D26*
%TO.N,GND*%
X145459499Y-141171999D02*
X144700000Y-140412500D01*
X155488001Y-141171999D02*
X145459499Y-141171999D01*
X157000000Y-139660000D02*
X155488001Y-141171999D01*
%TO.N,+5V*%
X150610000Y-133000000D02*
X150610000Y-127000000D01*
X149300000Y-134310000D02*
X150610000Y-133000000D01*
X149300000Y-139312500D02*
X149300000Y-134310000D01*
D25*
%TO.N,COL3*%
X157325750Y-68825750D02*
X162000000Y-73500000D01*
X157325750Y-56600000D02*
X157325750Y-68825750D01*
%TO.N,ROT1*%
X161237000Y-75011250D02*
X157325750Y-71100000D01*
X161237000Y-92859750D02*
X161237000Y-75011250D01*
X157207000Y-96889750D02*
X161237000Y-92859750D01*
X157207000Y-104543750D02*
X157207000Y-96889750D01*
D26*
%TO.N,GND*%
X154707000Y-137367000D02*
X157000000Y-139660000D01*
X154707000Y-104543750D02*
X154707000Y-137367000D01*
D25*
%TO.N,ROW0*%
X156775750Y-82724250D02*
X156775750Y-81500000D01*
X152500000Y-87000000D02*
X156775750Y-82724250D01*
X117580000Y-76580000D02*
X128000000Y-87000000D01*
X128000000Y-87000000D02*
X152500000Y-87000000D01*
X117580000Y-76500000D02*
X117580000Y-76580000D01*
X109200000Y-86500000D02*
X114200000Y-81500000D01*
X79580000Y-76500000D02*
X89580000Y-86500000D01*
%TO.N,Net-(SW5-PadS2)*%
X145500000Y-59000000D02*
X145500000Y-72000000D01*
X147900000Y-56600000D02*
X145500000Y-59000000D01*
X152325750Y-56600000D02*
X147900000Y-56600000D01*
X145500000Y-72000000D02*
X150000000Y-76500000D01*
%TO.N,COL0*%
X115972000Y-58876250D02*
X135022000Y-58876250D01*
%TO.N,Net-(D2-Pad2)*%
X128672000Y-74328000D02*
X126500000Y-76500000D01*
X128672000Y-61416250D02*
X128672000Y-74328000D01*
%TO.N,Net-(D4-Pad2)*%
X90572000Y-74428000D02*
X88500000Y-76500000D01*
X90572000Y-61416250D02*
X90572000Y-74428000D01*
%TO.N,COL1*%
X96922000Y-58876250D02*
X77872000Y-58876250D01*
%TO.N,Net-(D1-Pad2)*%
X109622000Y-61416250D02*
X109622000Y-74298000D01*
X109622000Y-74298000D02*
X107420000Y-76500000D01*
%TO.N,Net-(D3-Pad2)*%
X71522000Y-74398000D02*
X69420000Y-76500000D01*
X71522000Y-61416250D02*
X71522000Y-74398000D01*
%TO.N,ROW0*%
X160160000Y-78115750D02*
X156775750Y-81500000D01*
X160160000Y-76500000D02*
X160160000Y-78115750D01*
%TO.N,Net-(SW5-PadS2)*%
X150000000Y-78024250D02*
X153475750Y-81500000D01*
X150000000Y-76500000D02*
X150000000Y-78024250D01*
%TO.N,ROW1*%
X136660000Y-78115750D02*
X133275750Y-81500000D01*
X136660000Y-76500000D02*
X136660000Y-78115750D01*
%TO.N,Net-(D2-Pad2)*%
X126500000Y-76500000D02*
X126500000Y-78024250D01*
X126500000Y-78024250D02*
X129975750Y-81500000D01*
%TO.N,ROW0*%
X117580000Y-78120000D02*
X114200000Y-81500000D01*
X117580000Y-76500000D02*
X117580000Y-78120000D01*
%TO.N,Net-(D1-Pad2)*%
X107420000Y-78020000D02*
X110900000Y-81500000D01*
X107420000Y-76500000D02*
X107420000Y-78020000D01*
%TO.N,ROW0*%
X79580000Y-78027000D02*
X76188250Y-81418750D01*
X79580000Y-76500000D02*
X79580000Y-78027000D01*
%TO.N,Net-(D3-Pad2)*%
X69420000Y-77950500D02*
X72888250Y-81418750D01*
X69420000Y-76500000D02*
X69420000Y-77950500D01*
%TO.N,Net-(D4-Pad2)*%
X88500000Y-78199250D02*
X91800750Y-81500000D01*
X88500000Y-76500000D02*
X88500000Y-78199250D01*
X91800750Y-81500000D02*
X92000000Y-81500000D01*
%TO.N,ROW1*%
X98660000Y-77940750D02*
X95100750Y-81500000D01*
X98660000Y-76500000D02*
X98660000Y-77940750D01*
X81933600Y-102373750D02*
X97580000Y-118020150D01*
X67394500Y-102373750D02*
X81933600Y-102373750D01*
%TO.N,ROW0*%
X81476400Y-104913750D02*
X95040000Y-118477350D01*
X67394500Y-104913750D02*
X81476400Y-104913750D01*
%TO.N,COL1*%
X81933600Y-107453750D02*
X67394500Y-107453750D01*
X92500000Y-118020150D02*
X81933600Y-107453750D01*
%TO.N,COL0*%
X81476400Y-109993750D02*
X67394500Y-109993750D01*
X89960000Y-118477350D02*
X81476400Y-109993750D01*
%TO.N,ROT1*%
X81933600Y-112533750D02*
X67394500Y-112533750D01*
X87420000Y-118020150D02*
X81933600Y-112533750D01*
%TO.N,Net-(U1-Pad12)*%
X104368750Y-118248750D02*
X134120000Y-148000000D01*
X99891400Y-118248750D02*
X104368750Y-118248750D01*
%TO.N,Net-(U1-Pad11)*%
X100348600Y-120788750D02*
X104368750Y-120788750D01*
X104368750Y-120788750D02*
X131580000Y-148000000D01*
%TO.N,Net-(U1-Pad10)*%
X104368750Y-123328750D02*
X129040000Y-148000000D01*
X99891400Y-123328750D02*
X104368750Y-123328750D01*
%TO.N,Net-(U1-Pad9)*%
X104368750Y-125868750D02*
X126500000Y-148000000D01*
X100348600Y-125868750D02*
X104368750Y-125868750D01*
%TO.N,Net-(U1-Pad8)*%
X104368750Y-128408750D02*
X123960000Y-148000000D01*
X99891400Y-128408750D02*
X104368750Y-128408750D01*
%TO.N,Net-(U1-Pad7)*%
X100348600Y-130948750D02*
X104368750Y-130948750D01*
X104368750Y-130948750D02*
X121420000Y-148000000D01*
%TO.N,Net-(U1-Pad6)*%
X104368750Y-133488750D02*
X118880000Y-148000000D01*
X99891400Y-133488750D02*
X104368750Y-133488750D01*
%TO.N,Net-(U1-Pad5)*%
X100348600Y-136028750D02*
X104368750Y-136028750D01*
X104368750Y-136028750D02*
X116340000Y-148000000D01*
%TO.N,Net-(U1-Pad4)*%
X104368750Y-138568750D02*
X113800000Y-148000000D01*
X99891400Y-138568750D02*
X104368750Y-138568750D01*
%TO.N,Net-(U1-Pad3)*%
X104368750Y-141108750D02*
X111260000Y-148000000D01*
X100348600Y-141108750D02*
X104368750Y-141108750D01*
%TO.N,I2C2*%
X99891400Y-143648750D02*
X104368750Y-143648750D01*
X104368750Y-143648750D02*
X108720000Y-148000000D01*
%TO.N,I2C1*%
X104368750Y-146188750D02*
X106180000Y-148000000D01*
X100348600Y-146188750D02*
X104368750Y-146188750D01*
%TO.N,Net-(J3-Pad1)*%
X84646400Y-146193750D02*
X84651400Y-146188750D01*
X67394500Y-146193750D02*
X84646400Y-146193750D01*
%TO.N,Net-(J3-Pad2)*%
X85108600Y-143648750D02*
X67399500Y-143648750D01*
X67399500Y-143648750D02*
X67394500Y-143653750D01*
%TO.N,Net-(J3-Pad3)*%
X84646400Y-141113750D02*
X84651400Y-141108750D01*
X67394500Y-141113750D02*
X84646400Y-141113750D01*
%TO.N,Net-(J3-Pad4)*%
X85103600Y-138573750D02*
X85108600Y-138568750D01*
X67394500Y-138573750D02*
X85103600Y-138573750D01*
%TO.N,Net-(J3-Pad5)*%
X84646400Y-136033750D02*
X84651400Y-136028750D01*
X67394500Y-136033750D02*
X84646400Y-136033750D01*
%TO.N,Net-(J3-Pad6)*%
X85103600Y-133493750D02*
X85108600Y-133488750D01*
X67394500Y-133493750D02*
X85103600Y-133493750D01*
%TO.N,Net-(J3-Pad7)*%
X84646400Y-130953750D02*
X84651400Y-130948750D01*
X67394500Y-130953750D02*
X84646400Y-130953750D01*
%TO.N,Net-(J3-Pad8)*%
X85103600Y-128413750D02*
X85108600Y-128408750D01*
X67394500Y-128413750D02*
X85103600Y-128413750D01*
%TO.N,Net-(J3-Pad9)*%
X84646400Y-125873750D02*
X84651400Y-125868750D01*
X67394500Y-125873750D02*
X84646400Y-125873750D01*
%TO.N,Net-(J3-Pad10)*%
X85103600Y-123333750D02*
X85108600Y-123328750D01*
X67394500Y-123333750D02*
X85103600Y-123333750D01*
%TO.N,ROT3*%
X84646400Y-120793750D02*
X84651400Y-120788750D01*
X67394500Y-120793750D02*
X84646400Y-120793750D01*
%TO.N,ROT2*%
X85103600Y-118253750D02*
X85108600Y-118248750D01*
X67394500Y-118253750D02*
X85103600Y-118253750D01*
%TO.N,Net-(U1-Pad6)*%
X99891400Y-133488750D02*
X100142650Y-133740000D01*
%TD*%
M02*
