%TF.GenerationSoftware,KiCad,Pcbnew,(6.0.10)*%
%TF.CreationDate,2023-01-18T22:34:27-08:00*%
%TF.ProjectId,shitpad,73686974-7061-4642-9e6b-696361645f70,rev?*%
%TF.SameCoordinates,Original*%
%TF.FileFunction,Soldermask,Bot*%
%TF.FilePolarity,Negative*%
%FSLAX46Y46*%
G04 Gerber Fmt 4.6, Leading zero omitted, Abs format (unit mm)*
G04 Created by KiCad (PCBNEW (6.0.10)) date 2023-01-18 22:34:27*
%MOMM*%
%LPD*%
G01*
G04 APERTURE LIST*
%ADD10C,2.200000*%
%ADD11C,4.000000*%
%ADD12O,1.400000X1.400000*%
%ADD13C,1.400000*%
%ADD14C,2.000000*%
%ADD15R,2.000000X3.200000*%
%ADD16R,2.000000X2.000000*%
%ADD17O,1.500000X1.500000*%
%ADD18R,1.500000X1.500000*%
%ADD19O,1.600000X2.000000*%
%ADD20C,0.800000*%
%ADD21O,1.700000X1.700000*%
%ADD22R,1.700000X1.700000*%
%ADD23C,1.752600*%
%ADD24R,1.752600X1.752600*%
G04 APERTURE END LIST*
D10*
%TO.C,SW1*%
X115972000Y-58876250D03*
X109622000Y-61416250D03*
D11*
X113432000Y-63956250D03*
%TD*%
D12*
%TO.C,R2*%
X150610000Y-127000000D03*
D13*
X142990000Y-127000000D03*
%TD*%
D12*
%TO.C,R1*%
X150610000Y-133000000D03*
D13*
X142990000Y-133000000D03*
%TD*%
D14*
%TO.C,SW6*%
X152207000Y-90043750D03*
X157207000Y-90043750D03*
D15*
X149107000Y-97043750D03*
X160307000Y-97043750D03*
D14*
X154707000Y-104543750D03*
X157207000Y-104543750D03*
D16*
X152207000Y-104543750D03*
%TD*%
D17*
%TO.C,D10*%
X134228250Y-95706250D03*
D18*
X144388250Y-95706250D03*
%TD*%
D17*
%TO.C,D9*%
X150000000Y-76500000D03*
D18*
X160160000Y-76500000D03*
%TD*%
D14*
%TO.C,SW5*%
X152325750Y-56600000D03*
X157325750Y-56600000D03*
D15*
X149225750Y-63600000D03*
X160425750Y-63600000D03*
D14*
X154825750Y-71100000D03*
X157325750Y-71100000D03*
D16*
X152325750Y-71100000D03*
%TD*%
D19*
%TO.C,T1*%
X144700000Y-144412500D03*
D20*
X147000000Y-149012500D03*
X147000000Y-142012500D03*
D19*
X144700000Y-147412500D03*
X144700000Y-140412500D03*
X149300000Y-139312500D03*
%TD*%
D21*
%TO.C,X1*%
X157000000Y-139660000D03*
X157000000Y-137120000D03*
X157000000Y-134580000D03*
X157000000Y-132040000D03*
D22*
X157000000Y-129500000D03*
%TD*%
D21*
%TO.C,J3*%
X67394500Y-118253750D03*
X67394500Y-120793750D03*
X67394500Y-123333750D03*
X67394500Y-125873750D03*
X67394500Y-128413750D03*
X67394500Y-130953750D03*
X67394500Y-133493750D03*
X67394500Y-136033750D03*
X67394500Y-138573750D03*
X67394500Y-141113750D03*
X67394500Y-143653750D03*
D22*
X67394500Y-146193750D03*
%TD*%
D21*
%TO.C,J2*%
X67394500Y-102373750D03*
X67394500Y-104913750D03*
X67394500Y-107453750D03*
X67394500Y-109993750D03*
D22*
X67394500Y-112533750D03*
%TD*%
%TO.C,J1*%
X134120000Y-148000000D03*
D21*
X131580000Y-148000000D03*
X129040000Y-148000000D03*
X126500000Y-148000000D03*
X123960000Y-148000000D03*
X121420000Y-148000000D03*
X118880000Y-148000000D03*
X116340000Y-148000000D03*
X113800000Y-148000000D03*
X111260000Y-148000000D03*
X108720000Y-148000000D03*
X106180000Y-148000000D03*
%TD*%
D10*
%TO.C,SW4*%
X96922000Y-58876250D03*
X90572000Y-61416250D03*
D11*
X94382000Y-63956250D03*
%TD*%
D17*
%TO.C,D8*%
X88500000Y-76500000D03*
D18*
X98660000Y-76500000D03*
%TD*%
%TO.C,D7*%
X79580000Y-76500000D03*
D17*
X69420000Y-76500000D03*
%TD*%
D18*
%TO.C,D6*%
X136660000Y-76500000D03*
D17*
X126500000Y-76500000D03*
%TD*%
%TO.C,D5*%
X107420000Y-76500000D03*
D18*
X117580000Y-76500000D03*
%TD*%
D23*
%TO.C,U1*%
X97580000Y-118020150D03*
X95040000Y-118477350D03*
X92500000Y-118020150D03*
X89960000Y-118477350D03*
X87420000Y-118020150D03*
X84651400Y-146188750D03*
X99891400Y-118248750D03*
X85108600Y-143648750D03*
X84651400Y-141108750D03*
X85108600Y-138568750D03*
X84651400Y-136028750D03*
X85108600Y-133488750D03*
X84651400Y-130948750D03*
X85108600Y-128408750D03*
X84651400Y-125868750D03*
X85108600Y-123328750D03*
X84651400Y-120788750D03*
X85108600Y-118248750D03*
X100348600Y-120788750D03*
X99891400Y-123328750D03*
X100348600Y-125868750D03*
X99891400Y-128408750D03*
X100348600Y-130948750D03*
X99891400Y-133488750D03*
X100348600Y-136028750D03*
X99891400Y-138568750D03*
X100348600Y-141108750D03*
X99891400Y-143648750D03*
D24*
X100348600Y-146188750D03*
%TD*%
D11*
%TO.C,SW3*%
X75332000Y-63956250D03*
D10*
X71522000Y-61416250D03*
X77872000Y-58876250D03*
%TD*%
%TO.C,SW2*%
X135022000Y-58876250D03*
X128672000Y-61416250D03*
D11*
X132482000Y-63956250D03*
%TD*%
M02*
