%TF.GenerationSoftware,KiCad,Pcbnew,(6.0.10)*%
%TF.CreationDate,2023-01-18T22:34:27-08:00*%
%TF.ProjectId,shitpad,73686974-7061-4642-9e6b-696361645f70,rev?*%
%TF.SameCoordinates,Original*%
%TF.FileFunction,Copper,L2,Bot*%
%TF.FilePolarity,Positive*%
%FSLAX46Y46*%
G04 Gerber Fmt 4.6, Leading zero omitted, Abs format (unit mm)*
G04 Created by KiCad (PCBNEW (6.0.10)) date 2023-01-18 22:34:27*
%MOMM*%
%LPD*%
G01*
G04 APERTURE LIST*
%TA.AperFunction,ComponentPad*%
%ADD10C,2.200000*%
%TD*%
%TA.AperFunction,ComponentPad*%
%ADD11O,1.400000X1.400000*%
%TD*%
%TA.AperFunction,ComponentPad*%
%ADD12C,1.400000*%
%TD*%
%TA.AperFunction,ComponentPad*%
%ADD13C,2.000000*%
%TD*%
%TA.AperFunction,ComponentPad*%
%ADD14R,2.000000X3.200000*%
%TD*%
%TA.AperFunction,ComponentPad*%
%ADD15R,2.000000X2.000000*%
%TD*%
%TA.AperFunction,ComponentPad*%
%ADD16O,1.500000X1.500000*%
%TD*%
%TA.AperFunction,ComponentPad*%
%ADD17R,1.500000X1.500000*%
%TD*%
%TA.AperFunction,ComponentPad*%
%ADD18O,1.600000X2.000000*%
%TD*%
%TA.AperFunction,ComponentPad*%
%ADD19O,1.700000X1.700000*%
%TD*%
%TA.AperFunction,ComponentPad*%
%ADD20R,1.700000X1.700000*%
%TD*%
%TA.AperFunction,ComponentPad*%
%ADD21C,1.752600*%
%TD*%
%TA.AperFunction,ComponentPad*%
%ADD22R,1.752600X1.752600*%
%TD*%
%TA.AperFunction,ViaPad*%
%ADD23C,0.800000*%
%TD*%
%TA.AperFunction,Conductor*%
%ADD24C,0.254000*%
%TD*%
%TA.AperFunction,Conductor*%
%ADD25C,0.381000*%
%TD*%
G04 APERTURE END LIST*
D10*
%TO.P,SW1,2*%
%TO.N,COL0*%
X115972000Y-58876250D03*
%TO.P,SW1,1*%
%TO.N,Net-(D1-Pad2)*%
X109622000Y-61416250D03*
%TD*%
D11*
%TO.P,R2,2*%
%TO.N,+5V*%
X150610000Y-127000000D03*
D12*
%TO.P,R2,1*%
%TO.N,I2C2*%
X142990000Y-127000000D03*
%TD*%
D11*
%TO.P,R1,2*%
%TO.N,+5V*%
X150610000Y-133000000D03*
D12*
%TO.P,R1,1*%
%TO.N,I2C1*%
X142990000Y-133000000D03*
%TD*%
D13*
%TO.P,SW6,S2,S2*%
%TO.N,Net-(D10-Pad2)*%
X152207000Y-90043750D03*
%TO.P,SW6,S1,S1*%
%TO.N,COL3*%
X157207000Y-90043750D03*
D14*
%TO.P,SW6,MP*%
%TO.N,N/C*%
X149107000Y-97043750D03*
X160307000Y-97043750D03*
D13*
%TO.P,SW6,C,C*%
%TO.N,GND*%
X154707000Y-104543750D03*
%TO.P,SW6,B,B*%
%TO.N,ROT1*%
X157207000Y-104543750D03*
D15*
%TO.P,SW6,A,A*%
%TO.N,ROT3*%
X152207000Y-104543750D03*
%TD*%
D16*
%TO.P,D10,2,A*%
%TO.N,Net-(D10-Pad2)*%
X134228250Y-95706250D03*
D17*
%TO.P,D10,1,K*%
%TO.N,ROW1*%
X144388250Y-95706250D03*
%TD*%
D16*
%TO.P,D9,2,A*%
%TO.N,Net-(SW5-PadS2)*%
X150000000Y-76500000D03*
D17*
%TO.P,D9,1,K*%
%TO.N,ROW0*%
X160160000Y-76500000D03*
%TD*%
D13*
%TO.P,SW5,S2,S2*%
%TO.N,Net-(SW5-PadS2)*%
X152325750Y-56600000D03*
%TO.P,SW5,S1,S1*%
%TO.N,COL3*%
X157325750Y-56600000D03*
D14*
%TO.P,SW5,MP*%
%TO.N,N/C*%
X149225750Y-63600000D03*
X160425750Y-63600000D03*
D13*
%TO.P,SW5,C,C*%
%TO.N,GND*%
X154825750Y-71100000D03*
%TO.P,SW5,B,B*%
%TO.N,ROT1*%
X157325750Y-71100000D03*
D15*
%TO.P,SW5,A,A*%
%TO.N,ROT2*%
X152325750Y-71100000D03*
%TD*%
D18*
%TO.P,T1,3,RING1*%
%TO.N,I2C2*%
X144700000Y-144412500D03*
%TO.P,T1,4,RING2*%
%TO.N,I2C1*%
X144700000Y-147412500D03*
%TO.P,T1,2,TIP*%
%TO.N,GND*%
X144700000Y-140412500D03*
%TO.P,T1,1,SLEEVE*%
%TO.N,+5V*%
X149300000Y-139312500D03*
%TD*%
D19*
%TO.P,X1,5,GND*%
%TO.N,GND*%
X157000000Y-139660000D03*
%TO.P,X1,4,ID*%
%TO.N,unconnected-(X1-Pad4)*%
X157000000Y-137120000D03*
%TO.P,X1,3,D+*%
%TO.N,I2C1*%
X157000000Y-134580000D03*
%TO.P,X1,2,D-*%
%TO.N,I2C2*%
X157000000Y-132040000D03*
D20*
%TO.P,X1,1,VBUS*%
%TO.N,+5V*%
X157000000Y-129500000D03*
%TD*%
D19*
%TO.P,J3,12,Pin_12*%
%TO.N,ROT2*%
X67394500Y-118253750D03*
%TO.P,J3,11,Pin_11*%
%TO.N,ROT3*%
X67394500Y-120793750D03*
%TO.P,J3,10,Pin_10*%
%TO.N,Net-(J3-Pad10)*%
X67394500Y-123333750D03*
%TO.P,J3,9,Pin_9*%
%TO.N,Net-(J3-Pad9)*%
X67394500Y-125873750D03*
%TO.P,J3,8,Pin_8*%
%TO.N,Net-(J3-Pad8)*%
X67394500Y-128413750D03*
%TO.P,J3,7,Pin_7*%
%TO.N,Net-(J3-Pad7)*%
X67394500Y-130953750D03*
%TO.P,J3,6,Pin_6*%
%TO.N,Net-(J3-Pad6)*%
X67394500Y-133493750D03*
%TO.P,J3,5,Pin_5*%
%TO.N,Net-(J3-Pad5)*%
X67394500Y-136033750D03*
%TO.P,J3,4,Pin_4*%
%TO.N,Net-(J3-Pad4)*%
X67394500Y-138573750D03*
%TO.P,J3,3,Pin_3*%
%TO.N,Net-(J3-Pad3)*%
X67394500Y-141113750D03*
%TO.P,J3,2,Pin_2*%
%TO.N,Net-(J3-Pad2)*%
X67394500Y-143653750D03*
D20*
%TO.P,J3,1,Pin_1*%
%TO.N,Net-(J3-Pad1)*%
X67394500Y-146193750D03*
%TD*%
D19*
%TO.P,J2,5,Pin_5*%
%TO.N,ROW1*%
X67394500Y-102373750D03*
%TO.P,J2,4,Pin_4*%
%TO.N,ROW0*%
X67394500Y-104913750D03*
%TO.P,J2,3,Pin_3*%
%TO.N,COL1*%
X67394500Y-107453750D03*
%TO.P,J2,2,Pin_2*%
%TO.N,COL0*%
X67394500Y-109993750D03*
D20*
%TO.P,J2,1,Pin_1*%
%TO.N,ROT1*%
X67394500Y-112533750D03*
%TD*%
%TO.P,J1,1,Pin_1*%
%TO.N,Net-(U1-Pad12)*%
X134120000Y-148000000D03*
D19*
%TO.P,J1,2,Pin_2*%
%TO.N,Net-(U1-Pad11)*%
X131580000Y-148000000D03*
%TO.P,J1,3,Pin_3*%
%TO.N,Net-(U1-Pad10)*%
X129040000Y-148000000D03*
%TO.P,J1,4,Pin_4*%
%TO.N,Net-(U1-Pad9)*%
X126500000Y-148000000D03*
%TO.P,J1,5,Pin_5*%
%TO.N,Net-(U1-Pad8)*%
X123960000Y-148000000D03*
%TO.P,J1,6,Pin_6*%
%TO.N,Net-(U1-Pad7)*%
X121420000Y-148000000D03*
%TO.P,J1,7,Pin_7*%
%TO.N,Net-(U1-Pad6)*%
X118880000Y-148000000D03*
%TO.P,J1,8,Pin_8*%
%TO.N,Net-(U1-Pad5)*%
X116340000Y-148000000D03*
%TO.P,J1,9,Pin_9*%
%TO.N,Net-(U1-Pad4)*%
X113800000Y-148000000D03*
%TO.P,J1,10,Pin_10*%
%TO.N,Net-(U1-Pad3)*%
X111260000Y-148000000D03*
%TO.P,J1,11,Pin_11*%
%TO.N,I2C2*%
X108720000Y-148000000D03*
%TO.P,J1,12,Pin_12*%
%TO.N,I2C1*%
X106180000Y-148000000D03*
%TD*%
D10*
%TO.P,SW4,2*%
%TO.N,COL1*%
X96922000Y-58876250D03*
%TO.P,SW4,1*%
%TO.N,Net-(D4-Pad2)*%
X90572000Y-61416250D03*
%TD*%
D16*
%TO.P,D8,2,A*%
%TO.N,Net-(D4-Pad2)*%
X88500000Y-76500000D03*
D17*
%TO.P,D8,1,K*%
%TO.N,ROW1*%
X98660000Y-76500000D03*
%TD*%
%TO.P,D7,1,K*%
%TO.N,ROW0*%
X79580000Y-76500000D03*
D16*
%TO.P,D7,2,A*%
%TO.N,Net-(D3-Pad2)*%
X69420000Y-76500000D03*
%TD*%
D17*
%TO.P,D6,1,K*%
%TO.N,ROW1*%
X136660000Y-76500000D03*
D16*
%TO.P,D6,2,A*%
%TO.N,Net-(D2-Pad2)*%
X126500000Y-76500000D03*
%TD*%
%TO.P,D5,2,A*%
%TO.N,Net-(D1-Pad2)*%
X107420000Y-76500000D03*
D17*
%TO.P,D5,1,K*%
%TO.N,ROW0*%
X117580000Y-76500000D03*
%TD*%
D21*
%TO.P,U1,25,B7*%
%TO.N,ROW1*%
X97580000Y-118020150D03*
%TO.P,U1,26,D5*%
%TO.N,ROW0*%
X95040000Y-118477350D03*
%TO.P,U1,27,C7*%
%TO.N,COL1*%
X92500000Y-118020150D03*
%TO.P,U1,28,F1*%
%TO.N,COL0*%
X89960000Y-118477350D03*
%TO.P,U1,29,F0*%
%TO.N,ROT1*%
X87420000Y-118020150D03*
%TO.P,U1,24,B0*%
%TO.N,Net-(J3-Pad1)*%
X84651400Y-146188750D03*
%TO.P,U1,12,9/PB5*%
%TO.N,Net-(U1-Pad12)*%
X99891400Y-118248750D03*
%TO.P,U1,23,GND*%
%TO.N,Net-(J3-Pad2)*%
X85108600Y-143648750D03*
%TO.P,U1,22,RST*%
%TO.N,Net-(J3-Pad3)*%
X84651400Y-141108750D03*
%TO.P,U1,21,VCC*%
%TO.N,Net-(J3-Pad4)*%
X85108600Y-138568750D03*
%TO.P,U1,20,A3/PF4*%
%TO.N,Net-(J3-Pad5)*%
X84651400Y-136028750D03*
%TO.P,U1,19,A2/PF5*%
%TO.N,Net-(J3-Pad6)*%
X85108600Y-133488750D03*
%TO.P,U1,18,A1/PF6*%
%TO.N,Net-(J3-Pad7)*%
X84651400Y-130948750D03*
%TO.P,U1,17,A0/PF7*%
%TO.N,Net-(J3-Pad8)*%
X85108600Y-128408750D03*
%TO.P,U1,16,15/PB1*%
%TO.N,Net-(J3-Pad9)*%
X84651400Y-125868750D03*
%TO.P,U1,15,14/PB3*%
%TO.N,Net-(J3-Pad10)*%
X85108600Y-123328750D03*
%TO.P,U1,14,16/PB2*%
%TO.N,ROT3*%
X84651400Y-120788750D03*
%TO.P,U1,13,10/PB6*%
%TO.N,ROT2*%
X85108600Y-118248750D03*
%TO.P,U1,11,8/PB4*%
%TO.N,Net-(U1-Pad11)*%
X100348600Y-120788750D03*
%TO.P,U1,10,7/PE6*%
%TO.N,Net-(U1-Pad10)*%
X99891400Y-123328750D03*
%TO.P,U1,9,6/PD7*%
%TO.N,Net-(U1-Pad9)*%
X100348600Y-125868750D03*
%TO.P,U1,8,5/PC6*%
%TO.N,Net-(U1-Pad8)*%
X99891400Y-128408750D03*
%TO.P,U1,7,4/PD4*%
%TO.N,Net-(U1-Pad7)*%
X100348600Y-130948750D03*
%TO.P,U1,6,3/PD0*%
%TO.N,Net-(U1-Pad6)*%
X99891400Y-133488750D03*
%TO.P,U1,5,2/PD1*%
%TO.N,Net-(U1-Pad5)*%
X100348600Y-136028750D03*
%TO.P,U1,4,GND*%
%TO.N,Net-(U1-Pad4)*%
X99891400Y-138568750D03*
%TO.P,U1,3,GND*%
%TO.N,Net-(U1-Pad3)*%
X100348600Y-141108750D03*
%TO.P,U1,2,RX1/PD2*%
%TO.N,I2C2*%
X99891400Y-143648750D03*
D22*
%TO.P,U1,1,TX0/PD3*%
%TO.N,I2C1*%
X100348600Y-146188750D03*
%TD*%
D10*
%TO.P,SW3,1*%
%TO.N,Net-(D3-Pad2)*%
X71522000Y-61416250D03*
%TO.P,SW3,2*%
%TO.N,COL1*%
X77872000Y-58876250D03*
%TD*%
%TO.P,SW2,2*%
%TO.N,COL0*%
X135022000Y-58876250D03*
%TO.P,SW2,1*%
%TO.N,Net-(D2-Pad2)*%
X128672000Y-61416250D03*
%TD*%
D23*
%TO.N,ROW1*%
X144500000Y-83500000D03*
%TO.N,COL0*%
X95500000Y-85000000D03*
X104500000Y-76000000D03*
%TO.N,ROW0*%
X86000000Y-90500000D03*
%TO.N,ROT2*%
X133500000Y-90500000D03*
X93000000Y-101000000D03*
%TO.N,ROT1*%
X152000000Y-109500000D03*
X95500000Y-109500000D03*
%TO.N,COL3*%
X162000000Y-73500000D03*
%TD*%
D24*
%TO.N,ROW1*%
X135583000Y-77577000D02*
X136660000Y-76500000D01*
X99737000Y-77577000D02*
X135583000Y-77577000D01*
X98660000Y-76500000D02*
X99737000Y-77577000D01*
X144388250Y-83611750D02*
X144500000Y-83500000D01*
X144388250Y-95706250D02*
X144388250Y-83611750D01*
%TO.N,COL0*%
X115150412Y-58876250D02*
X115972000Y-58876250D01*
X104500000Y-76000000D02*
X104500000Y-69526662D01*
X104500000Y-69526662D02*
X115150412Y-58876250D01*
X70506250Y-109993750D02*
X95500000Y-85000000D01*
X67394500Y-109993750D02*
X70506250Y-109993750D01*
%TO.N,ROW0*%
X71586250Y-104913750D02*
X86000000Y-90500000D01*
X67394500Y-104913750D02*
X71586250Y-104913750D01*
%TO.N,ROT2*%
X133500000Y-90500000D02*
X152325750Y-71674250D01*
X152325750Y-71674250D02*
X152325750Y-71100000D01*
X85108600Y-108891400D02*
X93000000Y-101000000D01*
X85108600Y-118248750D02*
X85108600Y-108891400D01*
%TO.N,ROT1*%
X95500000Y-109500000D02*
X95500000Y-109940150D01*
X95500000Y-109940150D02*
X87420000Y-118020150D01*
X152250750Y-109500000D02*
X152000000Y-109500000D01*
X157207000Y-104543750D02*
X152250750Y-109500000D01*
%TO.N,ROT3*%
X134625300Y-122125450D02*
X152207000Y-104543750D01*
X85988100Y-122125450D02*
X134625300Y-122125450D01*
X84651400Y-120788750D02*
X85988100Y-122125450D01*
D25*
%TO.N,+5V*%
X150610000Y-127000000D02*
X154500000Y-127000000D01*
X154500000Y-127000000D02*
X157000000Y-129500000D01*
D24*
%TO.N,I2C2*%
X141963000Y-128027000D02*
X142990000Y-127000000D01*
X141963000Y-141675500D02*
X141963000Y-128027000D01*
X144700000Y-144412500D02*
X141963000Y-141675500D01*
%TO.N,I2C1*%
X147875998Y-134580000D02*
X146222999Y-136232999D01*
X157000000Y-134580000D02*
X147875998Y-134580000D01*
X146222999Y-136232999D02*
X146222999Y-145889501D01*
X142990000Y-133000000D02*
X146222999Y-136232999D01*
X146222999Y-145889501D02*
X144700000Y-147412500D01*
%TO.N,I2C2*%
X146062398Y-127000000D02*
X151102398Y-132040000D01*
X142990000Y-127000000D02*
X146062398Y-127000000D01*
X151102398Y-132040000D02*
X157000000Y-132040000D01*
%TO.N,I2C1*%
X107357000Y-146823000D02*
X106180000Y-148000000D01*
X144110500Y-146823000D02*
X107357000Y-146823000D01*
X144700000Y-147412500D02*
X144110500Y-146823000D01*
%TO.N,I2C2*%
X100655150Y-144412500D02*
X99891400Y-143648750D01*
X144700000Y-144412500D02*
X100655150Y-144412500D01*
%TO.N,ROW1*%
X97580000Y-77580000D02*
X98660000Y-76500000D01*
X97580000Y-118020150D02*
X97580000Y-77580000D01*
%TO.N,COL3*%
X162000000Y-85250750D02*
X157207000Y-90043750D01*
X162000000Y-73500000D02*
X162000000Y-85250750D01*
D25*
%TO.N,GND*%
X154825750Y-104425000D02*
X154707000Y-104543750D01*
X154825750Y-71100000D02*
X154825750Y-104425000D01*
%TD*%
M02*
