%TF.GenerationSoftware,KiCad,Pcbnew,(6.0.10)*%
%TF.CreationDate,2023-01-18T22:34:27-08:00*%
%TF.ProjectId,shitpad,73686974-7061-4642-9e6b-696361645f70,rev?*%
%TF.SameCoordinates,Original*%
%TF.FileFunction,Legend,Top*%
%TF.FilePolarity,Positive*%
%FSLAX46Y46*%
G04 Gerber Fmt 4.6, Leading zero omitted, Abs format (unit mm)*
G04 Created by KiCad (PCBNEW (6.0.10)) date 2023-01-18 22:34:27*
%MOMM*%
%LPD*%
G01*
G04 APERTURE LIST*
%ADD10C,0.150000*%
%ADD11C,0.120000*%
%ADD12C,0.381000*%
%ADD13C,1.752600*%
%ADD14R,1.752600X1.752600*%
G04 APERTURE END LIST*
D10*
X116880952Y-112184761D02*
X117023809Y-112232380D01*
X117261904Y-112232380D01*
X117357142Y-112184761D01*
X117404761Y-112137142D01*
X117452380Y-112041904D01*
X117452380Y-111946666D01*
X117404761Y-111851428D01*
X117357142Y-111803809D01*
X117261904Y-111756190D01*
X117071428Y-111708571D01*
X116976190Y-111660952D01*
X116928571Y-111613333D01*
X116880952Y-111518095D01*
X116880952Y-111422857D01*
X116928571Y-111327619D01*
X116976190Y-111280000D01*
X117071428Y-111232380D01*
X117309523Y-111232380D01*
X117452380Y-111280000D01*
X117880952Y-112232380D02*
X117880952Y-111232380D01*
X118309523Y-112232380D02*
X118309523Y-111708571D01*
X118261904Y-111613333D01*
X118166666Y-111565714D01*
X118023809Y-111565714D01*
X117928571Y-111613333D01*
X117880952Y-111660952D01*
X118785714Y-112232380D02*
X118785714Y-111565714D01*
X118785714Y-111232380D02*
X118738095Y-111280000D01*
X118785714Y-111327619D01*
X118833333Y-111280000D01*
X118785714Y-111232380D01*
X118785714Y-111327619D01*
X119119047Y-111565714D02*
X119500000Y-111565714D01*
X119261904Y-111232380D02*
X119261904Y-112089523D01*
X119309523Y-112184761D01*
X119404761Y-112232380D01*
X119500000Y-112232380D01*
X119833333Y-112232380D02*
X119833333Y-111232380D01*
X119833333Y-111613333D02*
X119928571Y-111565714D01*
X120119047Y-111565714D01*
X120214285Y-111613333D01*
X120261904Y-111660952D01*
X120309523Y-111756190D01*
X120309523Y-112041904D01*
X120261904Y-112137142D01*
X120214285Y-112184761D01*
X120119047Y-112232380D01*
X119928571Y-112232380D01*
X119833333Y-112184761D01*
X120880952Y-112232380D02*
X120785714Y-112184761D01*
X120738095Y-112137142D01*
X120690476Y-112041904D01*
X120690476Y-111756190D01*
X120738095Y-111660952D01*
X120785714Y-111613333D01*
X120880952Y-111565714D01*
X121023809Y-111565714D01*
X121119047Y-111613333D01*
X121166666Y-111660952D01*
X121214285Y-111756190D01*
X121214285Y-112041904D01*
X121166666Y-112137142D01*
X121119047Y-112184761D01*
X121023809Y-112232380D01*
X120880952Y-112232380D01*
X122071428Y-112232380D02*
X122071428Y-111708571D01*
X122023809Y-111613333D01*
X121928571Y-111565714D01*
X121738095Y-111565714D01*
X121642857Y-111613333D01*
X122071428Y-112184761D02*
X121976190Y-112232380D01*
X121738095Y-112232380D01*
X121642857Y-112184761D01*
X121595238Y-112089523D01*
X121595238Y-111994285D01*
X121642857Y-111899047D01*
X121738095Y-111851428D01*
X121976190Y-111851428D01*
X122071428Y-111803809D01*
X122547619Y-112232380D02*
X122547619Y-111565714D01*
X122547619Y-111756190D02*
X122595238Y-111660952D01*
X122642857Y-111613333D01*
X122738095Y-111565714D01*
X122833333Y-111565714D01*
X123595238Y-112232380D02*
X123595238Y-111232380D01*
X123595238Y-112184761D02*
X123500000Y-112232380D01*
X123309523Y-112232380D01*
X123214285Y-112184761D01*
X123166666Y-112137142D01*
X123119047Y-112041904D01*
X123119047Y-111756190D01*
X123166666Y-111660952D01*
X123214285Y-111613333D01*
X123309523Y-111565714D01*
X123500000Y-111565714D01*
X123595238Y-111613333D01*
X124738095Y-111565714D02*
X124976190Y-112232380D01*
X125214285Y-111565714D01*
X126119047Y-112232380D02*
X125547619Y-112232380D01*
X125833333Y-112232380D02*
X125833333Y-111232380D01*
X125738095Y-111375238D01*
X125642857Y-111470476D01*
X125547619Y-111518095D01*
X106214285Y-114452380D02*
X106214285Y-114642857D01*
X106595238Y-114452380D02*
X106595238Y-114642857D01*
X107023809Y-115452380D02*
X107023809Y-114452380D01*
X107261904Y-114452380D01*
X107404761Y-114500000D01*
X107500000Y-114595238D01*
X107547619Y-114690476D01*
X107595238Y-114880952D01*
X107595238Y-115023809D01*
X107547619Y-115214285D01*
X107500000Y-115309523D01*
X107404761Y-115404761D01*
X107261904Y-115452380D01*
X107023809Y-115452380D01*
X108452380Y-114785714D02*
X108452380Y-115452380D01*
X108023809Y-114785714D02*
X108023809Y-115309523D01*
X108071428Y-115404761D01*
X108166666Y-115452380D01*
X108309523Y-115452380D01*
X108404761Y-115404761D01*
X108452380Y-115357142D01*
X109357142Y-115452380D02*
X109357142Y-114452380D01*
X109357142Y-115404761D02*
X109261904Y-115452380D01*
X109071428Y-115452380D01*
X108976190Y-115404761D01*
X108928571Y-115357142D01*
X108880952Y-115261904D01*
X108880952Y-114976190D01*
X108928571Y-114880952D01*
X108976190Y-114833333D01*
X109071428Y-114785714D01*
X109261904Y-114785714D01*
X109357142Y-114833333D01*
X110214285Y-115404761D02*
X110119047Y-115452380D01*
X109928571Y-115452380D01*
X109833333Y-115404761D01*
X109785714Y-115309523D01*
X109785714Y-114928571D01*
X109833333Y-114833333D01*
X109928571Y-114785714D01*
X110119047Y-114785714D01*
X110214285Y-114833333D01*
X110261904Y-114928571D01*
X110261904Y-115023809D01*
X109785714Y-115119047D01*
X110738095Y-115404761D02*
X110738095Y-115452380D01*
X110690476Y-115547619D01*
X110642857Y-115595238D01*
X111880952Y-115404761D02*
X111976190Y-115452380D01*
X112166666Y-115452380D01*
X112261904Y-115404761D01*
X112309523Y-115309523D01*
X112309523Y-115261904D01*
X112261904Y-115166666D01*
X112166666Y-115119047D01*
X112023809Y-115119047D01*
X111928571Y-115071428D01*
X111880952Y-114976190D01*
X111880952Y-114928571D01*
X111928571Y-114833333D01*
X112023809Y-114785714D01*
X112166666Y-114785714D01*
X112261904Y-114833333D01*
X113166666Y-114785714D02*
X113166666Y-115452380D01*
X112738095Y-114785714D02*
X112738095Y-115309523D01*
X112785714Y-115404761D01*
X112880952Y-115452380D01*
X113023809Y-115452380D01*
X113119047Y-115404761D01*
X113166666Y-115357142D01*
X114071428Y-115404761D02*
X113976190Y-115452380D01*
X113785714Y-115452380D01*
X113690476Y-115404761D01*
X113642857Y-115357142D01*
X113595238Y-115261904D01*
X113595238Y-114976190D01*
X113642857Y-114880952D01*
X113690476Y-114833333D01*
X113785714Y-114785714D01*
X113976190Y-114785714D01*
X114071428Y-114833333D01*
X114500000Y-115452380D02*
X114500000Y-114452380D01*
X114595238Y-115071428D02*
X114880952Y-115452380D01*
X114880952Y-114785714D02*
X114500000Y-115166666D01*
X115309523Y-115452380D02*
X115309523Y-114785714D01*
X115309523Y-114452380D02*
X115261904Y-114500000D01*
X115309523Y-114547619D01*
X115357142Y-114500000D01*
X115309523Y-114452380D01*
X115309523Y-114547619D01*
X115785714Y-114785714D02*
X115785714Y-115452380D01*
X115785714Y-114880952D02*
X115833333Y-114833333D01*
X115928571Y-114785714D01*
X116071428Y-114785714D01*
X116166666Y-114833333D01*
X116214285Y-114928571D01*
X116214285Y-115452380D01*
X117119047Y-114785714D02*
X117119047Y-115595238D01*
X117071428Y-115690476D01*
X117023809Y-115738095D01*
X116928571Y-115785714D01*
X116785714Y-115785714D01*
X116690476Y-115738095D01*
X117119047Y-115404761D02*
X117023809Y-115452380D01*
X116833333Y-115452380D01*
X116738095Y-115404761D01*
X116690476Y-115357142D01*
X116642857Y-115261904D01*
X116642857Y-114976190D01*
X116690476Y-114880952D01*
X116738095Y-114833333D01*
X116833333Y-114785714D01*
X117023809Y-114785714D01*
X117119047Y-114833333D01*
X118785714Y-115452380D02*
X118785714Y-114928571D01*
X118738095Y-114833333D01*
X118642857Y-114785714D01*
X118452380Y-114785714D01*
X118357142Y-114833333D01*
X118785714Y-115404761D02*
X118690476Y-115452380D01*
X118452380Y-115452380D01*
X118357142Y-115404761D01*
X118309523Y-115309523D01*
X118309523Y-115214285D01*
X118357142Y-115119047D01*
X118452380Y-115071428D01*
X118690476Y-115071428D01*
X118785714Y-115023809D01*
X119119047Y-114785714D02*
X119500000Y-114785714D01*
X119261904Y-114452380D02*
X119261904Y-115309523D01*
X119309523Y-115404761D01*
X119404761Y-115452380D01*
X119500000Y-115452380D01*
X120547619Y-115404761D02*
X120642857Y-115452380D01*
X120833333Y-115452380D01*
X120928571Y-115404761D01*
X120976190Y-115309523D01*
X120976190Y-115261904D01*
X120928571Y-115166666D01*
X120833333Y-115119047D01*
X120690476Y-115119047D01*
X120595238Y-115071428D01*
X120547619Y-114976190D01*
X120547619Y-114928571D01*
X120595238Y-114833333D01*
X120690476Y-114785714D01*
X120833333Y-114785714D01*
X120928571Y-114833333D01*
X121547619Y-115452380D02*
X121452380Y-115404761D01*
X121404761Y-115357142D01*
X121357142Y-115261904D01*
X121357142Y-114976190D01*
X121404761Y-114880952D01*
X121452380Y-114833333D01*
X121547619Y-114785714D01*
X121690476Y-114785714D01*
X121785714Y-114833333D01*
X121833333Y-114880952D01*
X121880952Y-114976190D01*
X121880952Y-115261904D01*
X121833333Y-115357142D01*
X121785714Y-115404761D01*
X121690476Y-115452380D01*
X121547619Y-115452380D01*
X122309523Y-115452380D02*
X122309523Y-114785714D01*
X122309523Y-114880952D02*
X122357142Y-114833333D01*
X122452380Y-114785714D01*
X122595238Y-114785714D01*
X122690476Y-114833333D01*
X122738095Y-114928571D01*
X122738095Y-115452380D01*
X122738095Y-114928571D02*
X122785714Y-114833333D01*
X122880952Y-114785714D01*
X123023809Y-114785714D01*
X123119047Y-114833333D01*
X123166666Y-114928571D01*
X123166666Y-115452380D01*
X124023809Y-115404761D02*
X123928571Y-115452380D01*
X123738095Y-115452380D01*
X123642857Y-115404761D01*
X123595238Y-115309523D01*
X123595238Y-114928571D01*
X123642857Y-114833333D01*
X123738095Y-114785714D01*
X123928571Y-114785714D01*
X124023809Y-114833333D01*
X124071428Y-114928571D01*
X124071428Y-115023809D01*
X123595238Y-115119047D01*
X124357142Y-114785714D02*
X124738095Y-114785714D01*
X124500000Y-114452380D02*
X124500000Y-115309523D01*
X124547619Y-115404761D01*
X124642857Y-115452380D01*
X124738095Y-115452380D01*
X125071428Y-115452380D02*
X125071428Y-114452380D01*
X125500000Y-115452380D02*
X125500000Y-114928571D01*
X125452380Y-114833333D01*
X125357142Y-114785714D01*
X125214285Y-114785714D01*
X125119047Y-114833333D01*
X125071428Y-114880952D01*
X125976190Y-115452380D02*
X125976190Y-114785714D01*
X125976190Y-114452380D02*
X125928571Y-114500000D01*
X125976190Y-114547619D01*
X126023809Y-114500000D01*
X125976190Y-114452380D01*
X125976190Y-114547619D01*
X126452380Y-114785714D02*
X126452380Y-115452380D01*
X126452380Y-114880952D02*
X126500000Y-114833333D01*
X126595238Y-114785714D01*
X126738095Y-114785714D01*
X126833333Y-114833333D01*
X126880952Y-114928571D01*
X126880952Y-115452380D01*
X127785714Y-114785714D02*
X127785714Y-115595238D01*
X127738095Y-115690476D01*
X127690476Y-115738095D01*
X127595238Y-115785714D01*
X127452380Y-115785714D01*
X127357142Y-115738095D01*
X127785714Y-115404761D02*
X127690476Y-115452380D01*
X127500000Y-115452380D01*
X127404761Y-115404761D01*
X127357142Y-115357142D01*
X127309523Y-115261904D01*
X127309523Y-114976190D01*
X127357142Y-114880952D01*
X127404761Y-114833333D01*
X127500000Y-114785714D01*
X127690476Y-114785714D01*
X127785714Y-114833333D01*
X129023809Y-115452380D02*
X129023809Y-114785714D01*
X129023809Y-114452380D02*
X128976190Y-114500000D01*
X129023809Y-114547619D01*
X129071428Y-114500000D01*
X129023809Y-114452380D01*
X129023809Y-114547619D01*
X129452380Y-115404761D02*
X129547619Y-115452380D01*
X129738095Y-115452380D01*
X129833333Y-115404761D01*
X129880952Y-115309523D01*
X129880952Y-115261904D01*
X129833333Y-115166666D01*
X129738095Y-115119047D01*
X129595238Y-115119047D01*
X129500000Y-115071428D01*
X129452380Y-114976190D01*
X129452380Y-114928571D01*
X129500000Y-114833333D01*
X129595238Y-114785714D01*
X129738095Y-114785714D01*
X129833333Y-114833333D01*
X130928571Y-114785714D02*
X131309523Y-114785714D01*
X131071428Y-114452380D02*
X131071428Y-115309523D01*
X131119047Y-115404761D01*
X131214285Y-115452380D01*
X131309523Y-115452380D01*
X131642857Y-115452380D02*
X131642857Y-114452380D01*
X132071428Y-115452380D02*
X132071428Y-114928571D01*
X132023809Y-114833333D01*
X131928571Y-114785714D01*
X131785714Y-114785714D01*
X131690476Y-114833333D01*
X131642857Y-114880952D01*
X132928571Y-115404761D02*
X132833333Y-115452380D01*
X132642857Y-115452380D01*
X132547619Y-115404761D01*
X132499999Y-115309523D01*
X132499999Y-114928571D01*
X132547619Y-114833333D01*
X132642857Y-114785714D01*
X132833333Y-114785714D01*
X132928571Y-114833333D01*
X132976190Y-114928571D01*
X132976190Y-115023809D01*
X132499999Y-115119047D01*
X134023809Y-114785714D02*
X134404761Y-114785714D01*
X134166666Y-115452380D02*
X134166666Y-114595238D01*
X134214285Y-114500000D01*
X134309523Y-114452380D01*
X134404761Y-114452380D01*
X134738095Y-115452380D02*
X134738095Y-114785714D01*
X134738095Y-114452380D02*
X134690476Y-114500000D01*
X134738095Y-114547619D01*
X134785714Y-114500000D01*
X134738095Y-114452380D01*
X134738095Y-114547619D01*
X135214285Y-115452380D02*
X135214285Y-114785714D01*
X135214285Y-114976190D02*
X135261904Y-114880952D01*
X135309523Y-114833333D01*
X135404761Y-114785714D01*
X135500000Y-114785714D01*
X135785714Y-115404761D02*
X135880952Y-115452380D01*
X136071428Y-115452380D01*
X136166666Y-115404761D01*
X136214285Y-115309523D01*
X136214285Y-115261904D01*
X136166666Y-115166666D01*
X136071428Y-115119047D01*
X135928571Y-115119047D01*
X135833333Y-115071428D01*
X135785714Y-114976190D01*
X135785714Y-114928571D01*
X135833333Y-114833333D01*
X135928571Y-114785714D01*
X136071428Y-114785714D01*
X136166666Y-114833333D01*
X136500000Y-114785714D02*
X136880952Y-114785714D01*
X136642857Y-114452380D02*
X136642857Y-115309523D01*
X136690476Y-115404761D01*
X136785714Y-115452380D01*
X136880952Y-115452380D01*
X104023809Y-117014761D02*
X104119047Y-117062380D01*
X104309523Y-117062380D01*
X104404761Y-117014761D01*
X104452380Y-116919523D01*
X104452380Y-116871904D01*
X104404761Y-116776666D01*
X104309523Y-116729047D01*
X104166666Y-116729047D01*
X104071428Y-116681428D01*
X104023809Y-116586190D01*
X104023809Y-116538571D01*
X104071428Y-116443333D01*
X104166666Y-116395714D01*
X104309523Y-116395714D01*
X104404761Y-116443333D01*
X104738095Y-116395714D02*
X105119047Y-116395714D01*
X104880952Y-116062380D02*
X104880952Y-116919523D01*
X104928571Y-117014761D01*
X105023809Y-117062380D01*
X105119047Y-117062380D01*
X105833333Y-117014761D02*
X105738095Y-117062380D01*
X105547619Y-117062380D01*
X105452380Y-117014761D01*
X105404761Y-116919523D01*
X105404761Y-116538571D01*
X105452380Y-116443333D01*
X105547619Y-116395714D01*
X105738095Y-116395714D01*
X105833333Y-116443333D01*
X105880952Y-116538571D01*
X105880952Y-116633809D01*
X105404761Y-116729047D01*
X106309523Y-116395714D02*
X106309523Y-117395714D01*
X106309523Y-116443333D02*
X106404761Y-116395714D01*
X106595238Y-116395714D01*
X106690476Y-116443333D01*
X106738095Y-116490952D01*
X106785714Y-116586190D01*
X106785714Y-116871904D01*
X106738095Y-116967142D01*
X106690476Y-117014761D01*
X106595238Y-117062380D01*
X106404761Y-117062380D01*
X106309523Y-117014761D01*
X107833333Y-116395714D02*
X108214285Y-116395714D01*
X107976190Y-116062380D02*
X107976190Y-116919523D01*
X108023809Y-117014761D01*
X108119047Y-117062380D01*
X108214285Y-117062380D01*
X108690476Y-117062380D02*
X108595238Y-117014761D01*
X108547619Y-116967142D01*
X108500000Y-116871904D01*
X108500000Y-116586190D01*
X108547619Y-116490952D01*
X108595238Y-116443333D01*
X108690476Y-116395714D01*
X108833333Y-116395714D01*
X108928571Y-116443333D01*
X108976190Y-116490952D01*
X109023809Y-116586190D01*
X109023809Y-116871904D01*
X108976190Y-116967142D01*
X108928571Y-117014761D01*
X108833333Y-117062380D01*
X108690476Y-117062380D01*
X109357142Y-116395714D02*
X109547619Y-117062380D01*
X109738095Y-116586190D01*
X109928571Y-117062380D01*
X110119047Y-116395714D01*
X110928571Y-117062380D02*
X110928571Y-116538571D01*
X110880952Y-116443333D01*
X110785714Y-116395714D01*
X110595238Y-116395714D01*
X110500000Y-116443333D01*
X110928571Y-117014761D02*
X110833333Y-117062380D01*
X110595238Y-117062380D01*
X110500000Y-117014761D01*
X110452380Y-116919523D01*
X110452380Y-116824285D01*
X110500000Y-116729047D01*
X110595238Y-116681428D01*
X110833333Y-116681428D01*
X110928571Y-116633809D01*
X111404761Y-117062380D02*
X111404761Y-116395714D01*
X111404761Y-116586190D02*
X111452380Y-116490952D01*
X111500000Y-116443333D01*
X111595238Y-116395714D01*
X111690476Y-116395714D01*
X112452380Y-117062380D02*
X112452380Y-116062380D01*
X112452380Y-117014761D02*
X112357142Y-117062380D01*
X112166666Y-117062380D01*
X112071428Y-117014761D01*
X112023809Y-116967142D01*
X111976190Y-116871904D01*
X111976190Y-116586190D01*
X112023809Y-116490952D01*
X112071428Y-116443333D01*
X112166666Y-116395714D01*
X112357142Y-116395714D01*
X112452380Y-116443333D01*
X112880952Y-117014761D02*
X112976190Y-117062380D01*
X113166666Y-117062380D01*
X113261904Y-117014761D01*
X113309523Y-116919523D01*
X113309523Y-116871904D01*
X113261904Y-116776666D01*
X113166666Y-116729047D01*
X113023809Y-116729047D01*
X112928571Y-116681428D01*
X112880952Y-116586190D01*
X112880952Y-116538571D01*
X112928571Y-116443333D01*
X113023809Y-116395714D01*
X113166666Y-116395714D01*
X113261904Y-116443333D01*
X114500000Y-117062380D02*
X114500000Y-116062380D01*
X114500000Y-116443333D02*
X114595238Y-116395714D01*
X114785714Y-116395714D01*
X114880952Y-116443333D01*
X114928571Y-116490952D01*
X114976190Y-116586190D01*
X114976190Y-116871904D01*
X114928571Y-116967142D01*
X114880952Y-117014761D01*
X114785714Y-117062380D01*
X114595238Y-117062380D01*
X114500000Y-117014761D01*
X115785714Y-117014761D02*
X115690476Y-117062380D01*
X115500000Y-117062380D01*
X115404761Y-117014761D01*
X115357142Y-116919523D01*
X115357142Y-116538571D01*
X115404761Y-116443333D01*
X115500000Y-116395714D01*
X115690476Y-116395714D01*
X115785714Y-116443333D01*
X115833333Y-116538571D01*
X115833333Y-116633809D01*
X115357142Y-116729047D01*
X116261904Y-117062380D02*
X116261904Y-116395714D01*
X116261904Y-116062380D02*
X116214285Y-116110000D01*
X116261904Y-116157619D01*
X116309523Y-116110000D01*
X116261904Y-116062380D01*
X116261904Y-116157619D01*
X116738095Y-116395714D02*
X116738095Y-117062380D01*
X116738095Y-116490952D02*
X116785714Y-116443333D01*
X116880952Y-116395714D01*
X117023809Y-116395714D01*
X117119047Y-116443333D01*
X117166666Y-116538571D01*
X117166666Y-117062380D01*
X118071428Y-116395714D02*
X118071428Y-117205238D01*
X118023809Y-117300476D01*
X117976190Y-117348095D01*
X117880952Y-117395714D01*
X117738095Y-117395714D01*
X117642857Y-117348095D01*
X118071428Y-117014761D02*
X117976190Y-117062380D01*
X117785714Y-117062380D01*
X117690476Y-117014761D01*
X117642857Y-116967142D01*
X117595238Y-116871904D01*
X117595238Y-116586190D01*
X117642857Y-116490952D01*
X117690476Y-116443333D01*
X117785714Y-116395714D01*
X117976190Y-116395714D01*
X118071428Y-116443333D01*
X119261904Y-117014761D02*
X119357142Y-117062380D01*
X119547619Y-117062380D01*
X119642857Y-117014761D01*
X119690476Y-116919523D01*
X119690476Y-116871904D01*
X119642857Y-116776666D01*
X119547619Y-116729047D01*
X119404761Y-116729047D01*
X119309523Y-116681428D01*
X119261904Y-116586190D01*
X119261904Y-116538571D01*
X119309523Y-116443333D01*
X119404761Y-116395714D01*
X119547619Y-116395714D01*
X119642857Y-116443333D01*
X120261904Y-117062380D02*
X120166666Y-117014761D01*
X120119047Y-116967142D01*
X120071428Y-116871904D01*
X120071428Y-116586190D01*
X120119047Y-116490952D01*
X120166666Y-116443333D01*
X120261904Y-116395714D01*
X120404761Y-116395714D01*
X120500000Y-116443333D01*
X120547619Y-116490952D01*
X120595238Y-116586190D01*
X120595238Y-116871904D01*
X120547619Y-116967142D01*
X120500000Y-117014761D01*
X120404761Y-117062380D01*
X120261904Y-117062380D01*
X121023809Y-117062380D02*
X121023809Y-116395714D01*
X121023809Y-116586190D02*
X121071428Y-116490952D01*
X121119047Y-116443333D01*
X121214285Y-116395714D01*
X121309523Y-116395714D01*
X121500000Y-116395714D02*
X121880952Y-116395714D01*
X121642857Y-116062380D02*
X121642857Y-116919523D01*
X121690476Y-117014761D01*
X121785714Y-117062380D01*
X121880952Y-117062380D01*
X122642857Y-117062380D02*
X122642857Y-116538571D01*
X122595238Y-116443333D01*
X122499999Y-116395714D01*
X122309523Y-116395714D01*
X122214285Y-116443333D01*
X122642857Y-117014761D02*
X122547619Y-117062380D01*
X122309523Y-117062380D01*
X122214285Y-117014761D01*
X122166666Y-116919523D01*
X122166666Y-116824285D01*
X122214285Y-116729047D01*
X122309523Y-116681428D01*
X122547619Y-116681428D01*
X122642857Y-116633809D01*
X124309523Y-116395714D02*
X124309523Y-117205238D01*
X124261904Y-117300476D01*
X124214285Y-117348095D01*
X124119047Y-117395714D01*
X123976190Y-117395714D01*
X123880952Y-117348095D01*
X124309523Y-117014761D02*
X124214285Y-117062380D01*
X124023809Y-117062380D01*
X123928571Y-117014761D01*
X123880952Y-116967142D01*
X123833333Y-116871904D01*
X123833333Y-116586190D01*
X123880952Y-116490952D01*
X123928571Y-116443333D01*
X124023809Y-116395714D01*
X124214285Y-116395714D01*
X124309523Y-116443333D01*
X124928571Y-117062380D02*
X124833333Y-117014761D01*
X124785714Y-116967142D01*
X124738095Y-116871904D01*
X124738095Y-116586190D01*
X124785714Y-116490952D01*
X124833333Y-116443333D01*
X124928571Y-116395714D01*
X125071428Y-116395714D01*
X125166666Y-116443333D01*
X125214285Y-116490952D01*
X125261904Y-116586190D01*
X125261904Y-116871904D01*
X125214285Y-116967142D01*
X125166666Y-117014761D01*
X125071428Y-117062380D01*
X124928571Y-117062380D01*
X125833333Y-117062380D02*
X125738095Y-117014761D01*
X125690476Y-116967142D01*
X125642857Y-116871904D01*
X125642857Y-116586190D01*
X125690476Y-116490952D01*
X125738095Y-116443333D01*
X125833333Y-116395714D01*
X125976190Y-116395714D01*
X126071428Y-116443333D01*
X126119047Y-116490952D01*
X126166666Y-116586190D01*
X126166666Y-116871904D01*
X126119047Y-116967142D01*
X126071428Y-117014761D01*
X125976190Y-117062380D01*
X125833333Y-117062380D01*
X127023809Y-117062380D02*
X127023809Y-116062380D01*
X127023809Y-117014761D02*
X126928571Y-117062380D01*
X126738095Y-117062380D01*
X126642857Y-117014761D01*
X126595238Y-116967142D01*
X126547619Y-116871904D01*
X126547619Y-116586190D01*
X126595238Y-116490952D01*
X126642857Y-116443333D01*
X126738095Y-116395714D01*
X126928571Y-116395714D01*
X127023809Y-116443333D01*
X128690476Y-117062380D02*
X128690476Y-116538571D01*
X128642857Y-116443333D01*
X128547619Y-116395714D01*
X128357142Y-116395714D01*
X128261904Y-116443333D01*
X128690476Y-117014761D02*
X128595238Y-117062380D01*
X128357142Y-117062380D01*
X128261904Y-117014761D01*
X128214285Y-116919523D01*
X128214285Y-116824285D01*
X128261904Y-116729047D01*
X128357142Y-116681428D01*
X128595238Y-116681428D01*
X128690476Y-116633809D01*
X129023809Y-116395714D02*
X129404761Y-116395714D01*
X129166666Y-116062380D02*
X129166666Y-116919523D01*
X129214285Y-117014761D01*
X129309523Y-117062380D01*
X129404761Y-117062380D01*
X130452380Y-117014761D02*
X130547619Y-117062380D01*
X130738095Y-117062380D01*
X130833333Y-117014761D01*
X130880952Y-116919523D01*
X130880952Y-116871904D01*
X130833333Y-116776666D01*
X130738095Y-116729047D01*
X130595238Y-116729047D01*
X130499999Y-116681428D01*
X130452380Y-116586190D01*
X130452380Y-116538571D01*
X130499999Y-116443333D01*
X130595238Y-116395714D01*
X130738095Y-116395714D01*
X130833333Y-116443333D01*
X131452380Y-117062380D02*
X131357142Y-117014761D01*
X131309523Y-116967142D01*
X131261904Y-116871904D01*
X131261904Y-116586190D01*
X131309523Y-116490952D01*
X131357142Y-116443333D01*
X131452380Y-116395714D01*
X131595238Y-116395714D01*
X131690476Y-116443333D01*
X131738095Y-116490952D01*
X131785714Y-116586190D01*
X131785714Y-116871904D01*
X131738095Y-116967142D01*
X131690476Y-117014761D01*
X131595238Y-117062380D01*
X131452380Y-117062380D01*
X132214285Y-117062380D02*
X132214285Y-116395714D01*
X132214285Y-116490952D02*
X132261904Y-116443333D01*
X132357142Y-116395714D01*
X132499999Y-116395714D01*
X132595238Y-116443333D01*
X132642857Y-116538571D01*
X132642857Y-117062380D01*
X132642857Y-116538571D02*
X132690476Y-116443333D01*
X132785714Y-116395714D01*
X132928571Y-116395714D01*
X133023809Y-116443333D01*
X133071428Y-116538571D01*
X133071428Y-117062380D01*
X133928571Y-117014761D02*
X133833333Y-117062380D01*
X133642857Y-117062380D01*
X133547619Y-117014761D01*
X133499999Y-116919523D01*
X133499999Y-116538571D01*
X133547619Y-116443333D01*
X133642857Y-116395714D01*
X133833333Y-116395714D01*
X133928571Y-116443333D01*
X133976190Y-116538571D01*
X133976190Y-116633809D01*
X133499999Y-116729047D01*
X134261904Y-116395714D02*
X134642857Y-116395714D01*
X134404761Y-116062380D02*
X134404761Y-116919523D01*
X134452380Y-117014761D01*
X134547619Y-117062380D01*
X134642857Y-117062380D01*
X134976190Y-117062380D02*
X134976190Y-116062380D01*
X135404761Y-117062380D02*
X135404761Y-116538571D01*
X135357142Y-116443333D01*
X135261904Y-116395714D01*
X135119047Y-116395714D01*
X135023809Y-116443333D01*
X134976190Y-116490952D01*
X135880952Y-117062380D02*
X135880952Y-116395714D01*
X135880952Y-116062380D02*
X135833333Y-116110000D01*
X135880952Y-116157619D01*
X135928571Y-116110000D01*
X135880952Y-116062380D01*
X135880952Y-116157619D01*
X136357142Y-116395714D02*
X136357142Y-117062380D01*
X136357142Y-116490952D02*
X136404761Y-116443333D01*
X136499999Y-116395714D01*
X136642857Y-116395714D01*
X136738095Y-116443333D01*
X136785714Y-116538571D01*
X136785714Y-117062380D01*
X137690476Y-116395714D02*
X137690476Y-117205238D01*
X137642857Y-117300476D01*
X137595238Y-117348095D01*
X137499999Y-117395714D01*
X137357142Y-117395714D01*
X137261904Y-117348095D01*
X137690476Y-117014761D02*
X137595238Y-117062380D01*
X137404761Y-117062380D01*
X137309523Y-117014761D01*
X137261904Y-116967142D01*
X137214285Y-116871904D01*
X137214285Y-116586190D01*
X137261904Y-116490952D01*
X137309523Y-116443333D01*
X137404761Y-116395714D01*
X137595238Y-116395714D01*
X137690476Y-116443333D01*
X138166666Y-116967142D02*
X138214285Y-117014761D01*
X138166666Y-117062380D01*
X138119047Y-117014761D01*
X138166666Y-116967142D01*
X138166666Y-117062380D01*
X138595238Y-116062380D02*
X138595238Y-116252857D01*
X138976190Y-116062380D02*
X138976190Y-116252857D01*
X115642857Y-118291428D02*
X116404761Y-118291428D01*
X117928571Y-117672380D02*
X117928571Y-118386666D01*
X117880952Y-118529523D01*
X117785714Y-118624761D01*
X117642857Y-118672380D01*
X117547619Y-118672380D01*
X118833333Y-118672380D02*
X118833333Y-118148571D01*
X118785714Y-118053333D01*
X118690476Y-118005714D01*
X118500000Y-118005714D01*
X118404761Y-118053333D01*
X118833333Y-118624761D02*
X118738095Y-118672380D01*
X118500000Y-118672380D01*
X118404761Y-118624761D01*
X118357142Y-118529523D01*
X118357142Y-118434285D01*
X118404761Y-118339047D01*
X118500000Y-118291428D01*
X118738095Y-118291428D01*
X118833333Y-118243809D01*
X119309523Y-118672380D02*
X119309523Y-117672380D01*
X119404761Y-118291428D02*
X119690476Y-118672380D01*
X119690476Y-118005714D02*
X119309523Y-118386666D01*
X120500000Y-118624761D02*
X120404761Y-118672380D01*
X120214285Y-118672380D01*
X120119047Y-118624761D01*
X120071428Y-118529523D01*
X120071428Y-118148571D01*
X120119047Y-118053333D01*
X120214285Y-118005714D01*
X120404761Y-118005714D01*
X120500000Y-118053333D01*
X120547619Y-118148571D01*
X120547619Y-118243809D01*
X120071428Y-118339047D01*
X121595238Y-117672380D02*
X122166666Y-117672380D01*
X121880952Y-118672380D02*
X121880952Y-117672380D01*
X122500000Y-118672380D02*
X122500000Y-117672380D01*
X122928571Y-118672380D02*
X122928571Y-118148571D01*
X122880952Y-118053333D01*
X122785714Y-118005714D01*
X122642857Y-118005714D01*
X122547619Y-118053333D01*
X122500000Y-118100952D01*
X123785714Y-118624761D02*
X123690476Y-118672380D01*
X123500000Y-118672380D01*
X123404761Y-118624761D01*
X123357142Y-118529523D01*
X123357142Y-118148571D01*
X123404761Y-118053333D01*
X123500000Y-118005714D01*
X123690476Y-118005714D01*
X123785714Y-118053333D01*
X123833333Y-118148571D01*
X123833333Y-118243809D01*
X123357142Y-118339047D01*
X125023809Y-118672380D02*
X125023809Y-117672380D01*
X125261904Y-117672380D01*
X125404761Y-117720000D01*
X125500000Y-117815238D01*
X125547619Y-117910476D01*
X125595238Y-118100952D01*
X125595238Y-118243809D01*
X125547619Y-118434285D01*
X125500000Y-118529523D01*
X125404761Y-118624761D01*
X125261904Y-118672380D01*
X125023809Y-118672380D01*
X126166666Y-118672380D02*
X126071428Y-118624761D01*
X126023809Y-118577142D01*
X125976190Y-118481904D01*
X125976190Y-118196190D01*
X126023809Y-118100952D01*
X126071428Y-118053333D01*
X126166666Y-118005714D01*
X126309523Y-118005714D01*
X126404761Y-118053333D01*
X126452380Y-118100952D01*
X126500000Y-118196190D01*
X126500000Y-118481904D01*
X126452380Y-118577142D01*
X126404761Y-118624761D01*
X126309523Y-118672380D01*
X126166666Y-118672380D01*
X127357142Y-118005714D02*
X127357142Y-118815238D01*
X127309523Y-118910476D01*
X127261904Y-118958095D01*
X127166666Y-119005714D01*
X127023809Y-119005714D01*
X126928571Y-118958095D01*
X127357142Y-118624761D02*
X127261904Y-118672380D01*
X127071428Y-118672380D01*
X126976190Y-118624761D01*
X126928571Y-118577142D01*
X126880952Y-118481904D01*
X126880952Y-118196190D01*
X126928571Y-118100952D01*
X126976190Y-118053333D01*
X127071428Y-118005714D01*
X127261904Y-118005714D01*
X127357142Y-118053333D01*
%TO.C,SW1*%
X112098666Y-55698511D02*
X112241523Y-55746130D01*
X112479619Y-55746130D01*
X112574857Y-55698511D01*
X112622476Y-55650892D01*
X112670095Y-55555654D01*
X112670095Y-55460416D01*
X112622476Y-55365178D01*
X112574857Y-55317559D01*
X112479619Y-55269940D01*
X112289142Y-55222321D01*
X112193904Y-55174702D01*
X112146285Y-55127083D01*
X112098666Y-55031845D01*
X112098666Y-54936607D01*
X112146285Y-54841369D01*
X112193904Y-54793750D01*
X112289142Y-54746130D01*
X112527238Y-54746130D01*
X112670095Y-54793750D01*
X113003428Y-54746130D02*
X113241523Y-55746130D01*
X113432000Y-55031845D01*
X113622476Y-55746130D01*
X113860571Y-54746130D01*
X114765333Y-55746130D02*
X114193904Y-55746130D01*
X114479619Y-55746130D02*
X114479619Y-54746130D01*
X114384380Y-54888988D01*
X114289142Y-54984226D01*
X114193904Y-55031845D01*
%TO.C,R2*%
X146633333Y-125532380D02*
X146300000Y-125056190D01*
X146061904Y-125532380D02*
X146061904Y-124532380D01*
X146442857Y-124532380D01*
X146538095Y-124580000D01*
X146585714Y-124627619D01*
X146633333Y-124722857D01*
X146633333Y-124865714D01*
X146585714Y-124960952D01*
X146538095Y-125008571D01*
X146442857Y-125056190D01*
X146061904Y-125056190D01*
X147014285Y-124627619D02*
X147061904Y-124580000D01*
X147157142Y-124532380D01*
X147395238Y-124532380D01*
X147490476Y-124580000D01*
X147538095Y-124627619D01*
X147585714Y-124722857D01*
X147585714Y-124818095D01*
X147538095Y-124960952D01*
X146966666Y-125532380D01*
X147585714Y-125532380D01*
%TO.C,R1*%
X146633333Y-131532380D02*
X146300000Y-131056190D01*
X146061904Y-131532380D02*
X146061904Y-130532380D01*
X146442857Y-130532380D01*
X146538095Y-130580000D01*
X146585714Y-130627619D01*
X146633333Y-130722857D01*
X146633333Y-130865714D01*
X146585714Y-130960952D01*
X146538095Y-131008571D01*
X146442857Y-131056190D01*
X146061904Y-131056190D01*
X147585714Y-131532380D02*
X147014285Y-131532380D01*
X147300000Y-131532380D02*
X147300000Y-130532380D01*
X147204761Y-130675238D01*
X147109523Y-130770476D01*
X147014285Y-130818095D01*
%TO.C,SW6*%
X147911761Y-103077083D02*
X147959380Y-102934226D01*
X147959380Y-102696130D01*
X147911761Y-102600892D01*
X147864142Y-102553273D01*
X147768904Y-102505654D01*
X147673666Y-102505654D01*
X147578428Y-102553273D01*
X147530809Y-102600892D01*
X147483190Y-102696130D01*
X147435571Y-102886607D01*
X147387952Y-102981845D01*
X147340333Y-103029464D01*
X147245095Y-103077083D01*
X147149857Y-103077083D01*
X147054619Y-103029464D01*
X147007000Y-102981845D01*
X146959380Y-102886607D01*
X146959380Y-102648511D01*
X147007000Y-102505654D01*
X146959380Y-102172321D02*
X147959380Y-101934226D01*
X147245095Y-101743750D01*
X147959380Y-101553273D01*
X146959380Y-101315178D01*
X146959380Y-100505654D02*
X146959380Y-100696130D01*
X147007000Y-100791369D01*
X147054619Y-100838988D01*
X147197476Y-100934226D01*
X147387952Y-100981845D01*
X147768904Y-100981845D01*
X147864142Y-100934226D01*
X147911761Y-100886607D01*
X147959380Y-100791369D01*
X147959380Y-100600892D01*
X147911761Y-100505654D01*
X147864142Y-100458035D01*
X147768904Y-100410416D01*
X147530809Y-100410416D01*
X147435571Y-100458035D01*
X147387952Y-100505654D01*
X147340333Y-100600892D01*
X147340333Y-100791369D01*
X147387952Y-100886607D01*
X147435571Y-100934226D01*
X147530809Y-100981845D01*
%TO.C,D12*%
X137411464Y-103452380D02*
X137411464Y-102452380D01*
X137649559Y-102452380D01*
X137792416Y-102500000D01*
X137887654Y-102595238D01*
X137935273Y-102690476D01*
X137982892Y-102880952D01*
X137982892Y-103023809D01*
X137935273Y-103214285D01*
X137887654Y-103309523D01*
X137792416Y-103404761D01*
X137649559Y-103452380D01*
X137411464Y-103452380D01*
X138935273Y-103452380D02*
X138363845Y-103452380D01*
X138649559Y-103452380D02*
X138649559Y-102452380D01*
X138554321Y-102595238D01*
X138459083Y-102690476D01*
X138363845Y-102738095D01*
X139316226Y-102547619D02*
X139363845Y-102500000D01*
X139459083Y-102452380D01*
X139697178Y-102452380D01*
X139792416Y-102500000D01*
X139840035Y-102547619D01*
X139887654Y-102642857D01*
X139887654Y-102738095D01*
X139840035Y-102880952D01*
X139268607Y-103452380D01*
X139887654Y-103452380D01*
%TO.C,D11*%
X153911464Y-83952380D02*
X153911464Y-82952380D01*
X154149559Y-82952380D01*
X154292416Y-83000000D01*
X154387654Y-83095238D01*
X154435273Y-83190476D01*
X154482892Y-83380952D01*
X154482892Y-83523809D01*
X154435273Y-83714285D01*
X154387654Y-83809523D01*
X154292416Y-83904761D01*
X154149559Y-83952380D01*
X153911464Y-83952380D01*
X155435273Y-83952380D02*
X154863845Y-83952380D01*
X155149559Y-83952380D02*
X155149559Y-82952380D01*
X155054321Y-83095238D01*
X154959083Y-83190476D01*
X154863845Y-83238095D01*
X156387654Y-83952380D02*
X155816226Y-83952380D01*
X156101940Y-83952380D02*
X156101940Y-82952380D01*
X156006702Y-83095238D01*
X155911464Y-83190476D01*
X155816226Y-83238095D01*
%TO.C,D10*%
X138093964Y-98078630D02*
X138093964Y-97078630D01*
X138332059Y-97078630D01*
X138474916Y-97126250D01*
X138570154Y-97221488D01*
X138617773Y-97316726D01*
X138665392Y-97507202D01*
X138665392Y-97650059D01*
X138617773Y-97840535D01*
X138570154Y-97935773D01*
X138474916Y-98031011D01*
X138332059Y-98078630D01*
X138093964Y-98078630D01*
X139617773Y-98078630D02*
X139046345Y-98078630D01*
X139332059Y-98078630D02*
X139332059Y-97078630D01*
X139236821Y-97221488D01*
X139141583Y-97316726D01*
X139046345Y-97364345D01*
X140236821Y-97078630D02*
X140332059Y-97078630D01*
X140427297Y-97126250D01*
X140474916Y-97173869D01*
X140522535Y-97269107D01*
X140570154Y-97459583D01*
X140570154Y-97697678D01*
X140522535Y-97888154D01*
X140474916Y-97983392D01*
X140427297Y-98031011D01*
X140332059Y-98078630D01*
X140236821Y-98078630D01*
X140141583Y-98031011D01*
X140093964Y-97983392D01*
X140046345Y-97888154D01*
X139998726Y-97697678D01*
X139998726Y-97459583D01*
X140046345Y-97269107D01*
X140093964Y-97173869D01*
X140141583Y-97126250D01*
X140236821Y-97078630D01*
X144126345Y-97908630D02*
X144126345Y-96908630D01*
X144697773Y-97908630D02*
X144269202Y-97337202D01*
X144697773Y-96908630D02*
X144126345Y-97480059D01*
%TO.C,D9*%
X154341904Y-78872380D02*
X154341904Y-77872380D01*
X154580000Y-77872380D01*
X154722857Y-77920000D01*
X154818095Y-78015238D01*
X154865714Y-78110476D01*
X154913333Y-78300952D01*
X154913333Y-78443809D01*
X154865714Y-78634285D01*
X154818095Y-78729523D01*
X154722857Y-78824761D01*
X154580000Y-78872380D01*
X154341904Y-78872380D01*
X155389523Y-78872380D02*
X155580000Y-78872380D01*
X155675238Y-78824761D01*
X155722857Y-78777142D01*
X155818095Y-78634285D01*
X155865714Y-78443809D01*
X155865714Y-78062857D01*
X155818095Y-77967619D01*
X155770476Y-77920000D01*
X155675238Y-77872380D01*
X155484761Y-77872380D01*
X155389523Y-77920000D01*
X155341904Y-77967619D01*
X155294285Y-78062857D01*
X155294285Y-78300952D01*
X155341904Y-78396190D01*
X155389523Y-78443809D01*
X155484761Y-78491428D01*
X155675238Y-78491428D01*
X155770476Y-78443809D01*
X155818095Y-78396190D01*
X155865714Y-78300952D01*
X159898095Y-78702380D02*
X159898095Y-77702380D01*
X160469523Y-78702380D02*
X160040952Y-78130952D01*
X160469523Y-77702380D02*
X159898095Y-78273809D01*
%TO.C,SW5*%
X148030511Y-69633333D02*
X148078130Y-69490476D01*
X148078130Y-69252380D01*
X148030511Y-69157142D01*
X147982892Y-69109523D01*
X147887654Y-69061904D01*
X147792416Y-69061904D01*
X147697178Y-69109523D01*
X147649559Y-69157142D01*
X147601940Y-69252380D01*
X147554321Y-69442857D01*
X147506702Y-69538095D01*
X147459083Y-69585714D01*
X147363845Y-69633333D01*
X147268607Y-69633333D01*
X147173369Y-69585714D01*
X147125750Y-69538095D01*
X147078130Y-69442857D01*
X147078130Y-69204761D01*
X147125750Y-69061904D01*
X147078130Y-68728571D02*
X148078130Y-68490476D01*
X147363845Y-68300000D01*
X148078130Y-68109523D01*
X147078130Y-67871428D01*
X147078130Y-67014285D02*
X147078130Y-67490476D01*
X147554321Y-67538095D01*
X147506702Y-67490476D01*
X147459083Y-67395238D01*
X147459083Y-67157142D01*
X147506702Y-67061904D01*
X147554321Y-67014285D01*
X147649559Y-66966666D01*
X147887654Y-66966666D01*
X147982892Y-67014285D01*
X148030511Y-67061904D01*
X148078130Y-67157142D01*
X148078130Y-67395238D01*
X148030511Y-67490476D01*
X147982892Y-67538095D01*
%TO.C,X1*%
X156190476Y-126622380D02*
X156857142Y-127622380D01*
X156857142Y-126622380D02*
X156190476Y-127622380D01*
X157761904Y-127622380D02*
X157190476Y-127622380D01*
X157476190Y-127622380D02*
X157476190Y-126622380D01*
X157380952Y-126765238D01*
X157285714Y-126860476D01*
X157190476Y-126908095D01*
%TO.C,J3*%
X67061166Y-147976130D02*
X67061166Y-148690416D01*
X67013547Y-148833273D01*
X66918309Y-148928511D01*
X66775452Y-148976130D01*
X66680214Y-148976130D01*
X67442119Y-147976130D02*
X68061166Y-147976130D01*
X67727833Y-148357083D01*
X67870690Y-148357083D01*
X67965928Y-148404702D01*
X68013547Y-148452321D01*
X68061166Y-148547559D01*
X68061166Y-148785654D01*
X68013547Y-148880892D01*
X67965928Y-148928511D01*
X67870690Y-148976130D01*
X67584976Y-148976130D01*
X67489738Y-148928511D01*
X67442119Y-148880892D01*
%TO.C,J2*%
X67061166Y-114316130D02*
X67061166Y-115030416D01*
X67013547Y-115173273D01*
X66918309Y-115268511D01*
X66775452Y-115316130D01*
X66680214Y-115316130D01*
X67489738Y-114411369D02*
X67537357Y-114363750D01*
X67632595Y-114316130D01*
X67870690Y-114316130D01*
X67965928Y-114363750D01*
X68013547Y-114411369D01*
X68061166Y-114506607D01*
X68061166Y-114601845D01*
X68013547Y-114744702D01*
X67442119Y-115316130D01*
X68061166Y-115316130D01*
%TO.C,J1*%
X135902380Y-148333333D02*
X136616666Y-148333333D01*
X136759523Y-148380952D01*
X136854761Y-148476190D01*
X136902380Y-148619047D01*
X136902380Y-148714285D01*
X136902380Y-147333333D02*
X136902380Y-147904761D01*
X136902380Y-147619047D02*
X135902380Y-147619047D01*
X136045238Y-147714285D01*
X136140476Y-147809523D01*
X136188095Y-147904761D01*
%TO.C,SW4*%
X93048666Y-55698511D02*
X93191523Y-55746130D01*
X93429619Y-55746130D01*
X93524857Y-55698511D01*
X93572476Y-55650892D01*
X93620095Y-55555654D01*
X93620095Y-55460416D01*
X93572476Y-55365178D01*
X93524857Y-55317559D01*
X93429619Y-55269940D01*
X93239142Y-55222321D01*
X93143904Y-55174702D01*
X93096285Y-55127083D01*
X93048666Y-55031845D01*
X93048666Y-54936607D01*
X93096285Y-54841369D01*
X93143904Y-54793750D01*
X93239142Y-54746130D01*
X93477238Y-54746130D01*
X93620095Y-54793750D01*
X93953428Y-54746130D02*
X94191523Y-55746130D01*
X94382000Y-55031845D01*
X94572476Y-55746130D01*
X94810571Y-54746130D01*
X95620095Y-55079464D02*
X95620095Y-55746130D01*
X95382000Y-54698511D02*
X95143904Y-55412797D01*
X95762952Y-55412797D01*
%TO.C,D8*%
X92841904Y-78872380D02*
X92841904Y-77872380D01*
X93080000Y-77872380D01*
X93222857Y-77920000D01*
X93318095Y-78015238D01*
X93365714Y-78110476D01*
X93413333Y-78300952D01*
X93413333Y-78443809D01*
X93365714Y-78634285D01*
X93318095Y-78729523D01*
X93222857Y-78824761D01*
X93080000Y-78872380D01*
X92841904Y-78872380D01*
X93984761Y-78300952D02*
X93889523Y-78253333D01*
X93841904Y-78205714D01*
X93794285Y-78110476D01*
X93794285Y-78062857D01*
X93841904Y-77967619D01*
X93889523Y-77920000D01*
X93984761Y-77872380D01*
X94175238Y-77872380D01*
X94270476Y-77920000D01*
X94318095Y-77967619D01*
X94365714Y-78062857D01*
X94365714Y-78110476D01*
X94318095Y-78205714D01*
X94270476Y-78253333D01*
X94175238Y-78300952D01*
X93984761Y-78300952D01*
X93889523Y-78348571D01*
X93841904Y-78396190D01*
X93794285Y-78491428D01*
X93794285Y-78681904D01*
X93841904Y-78777142D01*
X93889523Y-78824761D01*
X93984761Y-78872380D01*
X94175238Y-78872380D01*
X94270476Y-78824761D01*
X94318095Y-78777142D01*
X94365714Y-78681904D01*
X94365714Y-78491428D01*
X94318095Y-78396190D01*
X94270476Y-78348571D01*
X94175238Y-78300952D01*
X98398095Y-78702380D02*
X98398095Y-77702380D01*
X98969523Y-78702380D02*
X98540952Y-78130952D01*
X98969523Y-77702380D02*
X98398095Y-78273809D01*
%TO.C,D7*%
X73761904Y-78872380D02*
X73761904Y-77872380D01*
X74000000Y-77872380D01*
X74142857Y-77920000D01*
X74238095Y-78015238D01*
X74285714Y-78110476D01*
X74333333Y-78300952D01*
X74333333Y-78443809D01*
X74285714Y-78634285D01*
X74238095Y-78729523D01*
X74142857Y-78824761D01*
X74000000Y-78872380D01*
X73761904Y-78872380D01*
X74666666Y-77872380D02*
X75333333Y-77872380D01*
X74904761Y-78872380D01*
X79318095Y-78702380D02*
X79318095Y-77702380D01*
X79889523Y-78702380D02*
X79460952Y-78130952D01*
X79889523Y-77702380D02*
X79318095Y-78273809D01*
%TO.C,D6*%
X130841904Y-78872380D02*
X130841904Y-77872380D01*
X131080000Y-77872380D01*
X131222857Y-77920000D01*
X131318095Y-78015238D01*
X131365714Y-78110476D01*
X131413333Y-78300952D01*
X131413333Y-78443809D01*
X131365714Y-78634285D01*
X131318095Y-78729523D01*
X131222857Y-78824761D01*
X131080000Y-78872380D01*
X130841904Y-78872380D01*
X132270476Y-77872380D02*
X132080000Y-77872380D01*
X131984761Y-77920000D01*
X131937142Y-77967619D01*
X131841904Y-78110476D01*
X131794285Y-78300952D01*
X131794285Y-78681904D01*
X131841904Y-78777142D01*
X131889523Y-78824761D01*
X131984761Y-78872380D01*
X132175238Y-78872380D01*
X132270476Y-78824761D01*
X132318095Y-78777142D01*
X132365714Y-78681904D01*
X132365714Y-78443809D01*
X132318095Y-78348571D01*
X132270476Y-78300952D01*
X132175238Y-78253333D01*
X131984761Y-78253333D01*
X131889523Y-78300952D01*
X131841904Y-78348571D01*
X131794285Y-78443809D01*
X136398095Y-78702380D02*
X136398095Y-77702380D01*
X136969523Y-78702380D02*
X136540952Y-78130952D01*
X136969523Y-77702380D02*
X136398095Y-78273809D01*
%TO.C,D5*%
X111761904Y-78872380D02*
X111761904Y-77872380D01*
X112000000Y-77872380D01*
X112142857Y-77920000D01*
X112238095Y-78015238D01*
X112285714Y-78110476D01*
X112333333Y-78300952D01*
X112333333Y-78443809D01*
X112285714Y-78634285D01*
X112238095Y-78729523D01*
X112142857Y-78824761D01*
X112000000Y-78872380D01*
X111761904Y-78872380D01*
X113238095Y-77872380D02*
X112761904Y-77872380D01*
X112714285Y-78348571D01*
X112761904Y-78300952D01*
X112857142Y-78253333D01*
X113095238Y-78253333D01*
X113190476Y-78300952D01*
X113238095Y-78348571D01*
X113285714Y-78443809D01*
X113285714Y-78681904D01*
X113238095Y-78777142D01*
X113190476Y-78824761D01*
X113095238Y-78872380D01*
X112857142Y-78872380D01*
X112761904Y-78824761D01*
X112714285Y-78777142D01*
X117318095Y-78702380D02*
X117318095Y-77702380D01*
X117889523Y-78702380D02*
X117460952Y-78130952D01*
X117889523Y-77702380D02*
X117318095Y-78273809D01*
%TO.C,U1*%
X94449523Y-120180654D02*
X94449523Y-119380654D01*
X94640000Y-119380654D01*
X94754285Y-119418750D01*
X94830476Y-119494940D01*
X94868571Y-119571130D01*
X94906666Y-119723511D01*
X94906666Y-119837797D01*
X94868571Y-119990178D01*
X94830476Y-120066369D01*
X94754285Y-120142559D01*
X94640000Y-120180654D01*
X94449523Y-120180654D01*
X95630476Y-119380654D02*
X95249523Y-119380654D01*
X95211428Y-119761607D01*
X95249523Y-119723511D01*
X95325714Y-119685416D01*
X95516190Y-119685416D01*
X95592380Y-119723511D01*
X95630476Y-119761607D01*
X95668571Y-119837797D01*
X95668571Y-120028273D01*
X95630476Y-120104464D01*
X95592380Y-120142559D01*
X95516190Y-120180654D01*
X95325714Y-120180654D01*
X95249523Y-120142559D01*
X95211428Y-120104464D01*
X89693333Y-119761607D02*
X89426666Y-119761607D01*
X89426666Y-120180654D02*
X89426666Y-119380654D01*
X89807619Y-119380654D01*
X90531428Y-120180654D02*
X90074285Y-120180654D01*
X90302857Y-120180654D02*
X90302857Y-119380654D01*
X90226666Y-119494940D01*
X90150476Y-119571130D01*
X90074285Y-119609226D01*
X92366666Y-120104464D02*
X92328571Y-120142559D01*
X92214285Y-120180654D01*
X92138095Y-120180654D01*
X92023809Y-120142559D01*
X91947619Y-120066369D01*
X91909523Y-119990178D01*
X91871428Y-119837797D01*
X91871428Y-119723511D01*
X91909523Y-119571130D01*
X91947619Y-119494940D01*
X92023809Y-119418750D01*
X92138095Y-119380654D01*
X92214285Y-119380654D01*
X92328571Y-119418750D01*
X92366666Y-119456845D01*
X92633333Y-119380654D02*
X93166666Y-119380654D01*
X92823809Y-120180654D01*
X86335702Y-119353758D02*
X86241421Y-119400898D01*
X86194280Y-119400898D01*
X86123570Y-119377328D01*
X86052859Y-119306617D01*
X86029289Y-119235907D01*
X86029289Y-119188766D01*
X86052859Y-119118056D01*
X86241421Y-118929494D01*
X86736396Y-119424469D01*
X86571404Y-119589460D01*
X86500693Y-119613030D01*
X86453553Y-119613030D01*
X86382842Y-119589460D01*
X86335702Y-119542320D01*
X86312132Y-119471609D01*
X86312132Y-119424469D01*
X86335702Y-119353758D01*
X86500693Y-119188766D01*
X86029289Y-120131575D02*
X86123570Y-120037294D01*
X86147140Y-119966584D01*
X86147140Y-119919443D01*
X86123570Y-119801592D01*
X86052859Y-119683741D01*
X85864297Y-119495179D01*
X85793587Y-119471609D01*
X85746446Y-119471609D01*
X85675735Y-119495179D01*
X85581455Y-119589460D01*
X85557884Y-119660171D01*
X85557884Y-119707311D01*
X85581455Y-119778022D01*
X85699306Y-119895873D01*
X85770016Y-119919443D01*
X85817157Y-119919443D01*
X85887867Y-119895873D01*
X85982148Y-119801592D01*
X86005719Y-119730882D01*
X86005719Y-119683741D01*
X85982148Y-119613030D01*
X87766666Y-119568750D02*
X87533333Y-119568750D01*
X87533333Y-119935416D02*
X87533333Y-119235416D01*
X87866666Y-119235416D01*
X88266666Y-119235416D02*
X88333333Y-119235416D01*
X88400000Y-119268750D01*
X88433333Y-119302083D01*
X88466666Y-119368750D01*
X88500000Y-119502083D01*
X88500000Y-119668750D01*
X88466666Y-119802083D01*
X88433333Y-119868750D01*
X88400000Y-119902083D01*
X88333333Y-119935416D01*
X88266666Y-119935416D01*
X88200000Y-119902083D01*
X88166666Y-119868750D01*
X88133333Y-119802083D01*
X88100000Y-119668750D01*
X88100000Y-119502083D01*
X88133333Y-119368750D01*
X88166666Y-119302083D01*
X88200000Y-119268750D01*
X88266666Y-119235416D01*
X96716666Y-119568750D02*
X96816666Y-119602083D01*
X96850000Y-119635416D01*
X96883333Y-119702083D01*
X96883333Y-119802083D01*
X96850000Y-119868750D01*
X96816666Y-119902083D01*
X96750000Y-119935416D01*
X96483333Y-119935416D01*
X96483333Y-119235416D01*
X96716666Y-119235416D01*
X96783333Y-119268750D01*
X96816666Y-119302083D01*
X96850000Y-119368750D01*
X96850000Y-119435416D01*
X96816666Y-119502083D01*
X96783333Y-119535416D01*
X96716666Y-119568750D01*
X96483333Y-119568750D01*
X97116666Y-119235416D02*
X97583333Y-119235416D01*
X97283333Y-119935416D01*
X93881395Y-145750654D02*
X94338538Y-145750654D01*
X94109967Y-146550654D02*
X94109967Y-145750654D01*
X94529014Y-145750654D02*
X95062348Y-146550654D01*
X95062348Y-145750654D02*
X94529014Y-146550654D01*
X95519491Y-145750654D02*
X95595681Y-145750654D01*
X95671872Y-145788750D01*
X95709967Y-145826845D01*
X95748062Y-145903035D01*
X95786157Y-146055416D01*
X95786157Y-146245892D01*
X95748062Y-146398273D01*
X95709967Y-146474464D01*
X95671872Y-146512559D01*
X95595681Y-146550654D01*
X95519491Y-146550654D01*
X95443300Y-146512559D01*
X95405205Y-146474464D01*
X95367110Y-146398273D01*
X95329014Y-146245892D01*
X95329014Y-146055416D01*
X95367110Y-145903035D01*
X95405205Y-145826845D01*
X95443300Y-145788750D01*
X95519491Y-145750654D01*
X96700443Y-145712559D02*
X96014729Y-146741130D01*
X96967110Y-146550654D02*
X96967110Y-145750654D01*
X97157586Y-145750654D01*
X97271872Y-145788750D01*
X97348062Y-145864940D01*
X97386157Y-145941130D01*
X97424252Y-146093511D01*
X97424252Y-146207797D01*
X97386157Y-146360178D01*
X97348062Y-146436369D01*
X97271872Y-146512559D01*
X97157586Y-146550654D01*
X96967110Y-146550654D01*
X97690919Y-145750654D02*
X98186157Y-145750654D01*
X97919491Y-146055416D01*
X98033776Y-146055416D01*
X98109967Y-146093511D01*
X98148062Y-146131607D01*
X98186157Y-146207797D01*
X98186157Y-146398273D01*
X98148062Y-146474464D01*
X98109967Y-146512559D01*
X98033776Y-146550654D01*
X97805205Y-146550654D01*
X97729014Y-146512559D01*
X97690919Y-146474464D01*
X97370523Y-144010654D02*
X97370523Y-143210654D01*
X97561000Y-143210654D01*
X97675285Y-143248750D01*
X97751476Y-143324940D01*
X97789571Y-143401130D01*
X97827666Y-143553511D01*
X97827666Y-143667797D01*
X97789571Y-143820178D01*
X97751476Y-143896369D01*
X97675285Y-143972559D01*
X97561000Y-144010654D01*
X97370523Y-144010654D01*
X98132428Y-143286845D02*
X98170523Y-143248750D01*
X98246714Y-143210654D01*
X98437190Y-143210654D01*
X98513380Y-143248750D01*
X98551476Y-143286845D01*
X98589571Y-143363035D01*
X98589571Y-143439226D01*
X98551476Y-143553511D01*
X98094333Y-144010654D01*
X98589571Y-144010654D01*
X97370523Y-133850654D02*
X97370523Y-133050654D01*
X97561000Y-133050654D01*
X97675285Y-133088750D01*
X97751476Y-133164940D01*
X97789571Y-133241130D01*
X97827666Y-133393511D01*
X97827666Y-133507797D01*
X97789571Y-133660178D01*
X97751476Y-133736369D01*
X97675285Y-133812559D01*
X97561000Y-133850654D01*
X97370523Y-133850654D01*
X98322904Y-133050654D02*
X98399095Y-133050654D01*
X98475285Y-133088750D01*
X98513380Y-133126845D01*
X98551476Y-133203035D01*
X98589571Y-133355416D01*
X98589571Y-133545892D01*
X98551476Y-133698273D01*
X98513380Y-133774464D01*
X98475285Y-133812559D01*
X98399095Y-133850654D01*
X98322904Y-133850654D01*
X98246714Y-133812559D01*
X98208619Y-133774464D01*
X98170523Y-133698273D01*
X98132428Y-133545892D01*
X98132428Y-133355416D01*
X98170523Y-133203035D01*
X98208619Y-133126845D01*
X98246714Y-133088750D01*
X98322904Y-133050654D01*
X97370523Y-136390654D02*
X97370523Y-135590654D01*
X97561000Y-135590654D01*
X97675285Y-135628750D01*
X97751476Y-135704940D01*
X97789571Y-135781130D01*
X97827666Y-135933511D01*
X97827666Y-136047797D01*
X97789571Y-136200178D01*
X97751476Y-136276369D01*
X97675285Y-136352559D01*
X97561000Y-136390654D01*
X97370523Y-136390654D01*
X98589571Y-136390654D02*
X98132428Y-136390654D01*
X98361000Y-136390654D02*
X98361000Y-135590654D01*
X98284809Y-135704940D01*
X98208619Y-135781130D01*
X98132428Y-135819226D01*
X97351476Y-138168750D02*
X97275285Y-138130654D01*
X97161000Y-138130654D01*
X97046714Y-138168750D01*
X96970523Y-138244940D01*
X96932428Y-138321130D01*
X96894333Y-138473511D01*
X96894333Y-138587797D01*
X96932428Y-138740178D01*
X96970523Y-138816369D01*
X97046714Y-138892559D01*
X97161000Y-138930654D01*
X97237190Y-138930654D01*
X97351476Y-138892559D01*
X97389571Y-138854464D01*
X97389571Y-138587797D01*
X97237190Y-138587797D01*
X97732428Y-138930654D02*
X97732428Y-138130654D01*
X98189571Y-138930654D01*
X98189571Y-138130654D01*
X98570523Y-138930654D02*
X98570523Y-138130654D01*
X98761000Y-138130654D01*
X98875285Y-138168750D01*
X98951476Y-138244940D01*
X98989571Y-138321130D01*
X99027666Y-138473511D01*
X99027666Y-138587797D01*
X98989571Y-138740178D01*
X98951476Y-138816369D01*
X98875285Y-138892559D01*
X98761000Y-138930654D01*
X98570523Y-138930654D01*
X97351476Y-140708750D02*
X97275285Y-140670654D01*
X97161000Y-140670654D01*
X97046714Y-140708750D01*
X96970523Y-140784940D01*
X96932428Y-140861130D01*
X96894333Y-141013511D01*
X96894333Y-141127797D01*
X96932428Y-141280178D01*
X96970523Y-141356369D01*
X97046714Y-141432559D01*
X97161000Y-141470654D01*
X97237190Y-141470654D01*
X97351476Y-141432559D01*
X97389571Y-141394464D01*
X97389571Y-141127797D01*
X97237190Y-141127797D01*
X97732428Y-141470654D02*
X97732428Y-140670654D01*
X98189571Y-141470654D01*
X98189571Y-140670654D01*
X98570523Y-141470654D02*
X98570523Y-140670654D01*
X98761000Y-140670654D01*
X98875285Y-140708750D01*
X98951476Y-140784940D01*
X98989571Y-140861130D01*
X99027666Y-141013511D01*
X99027666Y-141127797D01*
X98989571Y-141280178D01*
X98951476Y-141356369D01*
X98875285Y-141432559D01*
X98761000Y-141470654D01*
X98570523Y-141470654D01*
X97370523Y-131310654D02*
X97370523Y-130510654D01*
X97561000Y-130510654D01*
X97675285Y-130548750D01*
X97751476Y-130624940D01*
X97789571Y-130701130D01*
X97827666Y-130853511D01*
X97827666Y-130967797D01*
X97789571Y-131120178D01*
X97751476Y-131196369D01*
X97675285Y-131272559D01*
X97561000Y-131310654D01*
X97370523Y-131310654D01*
X98513380Y-130777321D02*
X98513380Y-131310654D01*
X98322904Y-130472559D02*
X98132428Y-131043988D01*
X98627666Y-131043988D01*
X97827666Y-128694464D02*
X97789571Y-128732559D01*
X97675285Y-128770654D01*
X97599095Y-128770654D01*
X97484809Y-128732559D01*
X97408619Y-128656369D01*
X97370523Y-128580178D01*
X97332428Y-128427797D01*
X97332428Y-128313511D01*
X97370523Y-128161130D01*
X97408619Y-128084940D01*
X97484809Y-128008750D01*
X97599095Y-127970654D01*
X97675285Y-127970654D01*
X97789571Y-128008750D01*
X97827666Y-128046845D01*
X98513380Y-127970654D02*
X98361000Y-127970654D01*
X98284809Y-128008750D01*
X98246714Y-128046845D01*
X98170523Y-128161130D01*
X98132428Y-128313511D01*
X98132428Y-128618273D01*
X98170523Y-128694464D01*
X98208619Y-128732559D01*
X98284809Y-128770654D01*
X98437190Y-128770654D01*
X98513380Y-128732559D01*
X98551476Y-128694464D01*
X98589571Y-128618273D01*
X98589571Y-128427797D01*
X98551476Y-128351607D01*
X98513380Y-128313511D01*
X98437190Y-128275416D01*
X98284809Y-128275416D01*
X98208619Y-128313511D01*
X98170523Y-128351607D01*
X98132428Y-128427797D01*
X97370523Y-126230654D02*
X97370523Y-125430654D01*
X97561000Y-125430654D01*
X97675285Y-125468750D01*
X97751476Y-125544940D01*
X97789571Y-125621130D01*
X97827666Y-125773511D01*
X97827666Y-125887797D01*
X97789571Y-126040178D01*
X97751476Y-126116369D01*
X97675285Y-126192559D01*
X97561000Y-126230654D01*
X97370523Y-126230654D01*
X98094333Y-125430654D02*
X98627666Y-125430654D01*
X98284809Y-126230654D01*
X97408619Y-123271607D02*
X97675285Y-123271607D01*
X97789571Y-123690654D02*
X97408619Y-123690654D01*
X97408619Y-122890654D01*
X97789571Y-122890654D01*
X98475285Y-122890654D02*
X98322904Y-122890654D01*
X98246714Y-122928750D01*
X98208619Y-122966845D01*
X98132428Y-123081130D01*
X98094333Y-123233511D01*
X98094333Y-123538273D01*
X98132428Y-123614464D01*
X98170523Y-123652559D01*
X98246714Y-123690654D01*
X98399095Y-123690654D01*
X98475285Y-123652559D01*
X98513380Y-123614464D01*
X98551476Y-123538273D01*
X98551476Y-123347797D01*
X98513380Y-123271607D01*
X98475285Y-123233511D01*
X98399095Y-123195416D01*
X98246714Y-123195416D01*
X98170523Y-123233511D01*
X98132428Y-123271607D01*
X98094333Y-123347797D01*
X97637190Y-120731607D02*
X97751476Y-120769702D01*
X97789571Y-120807797D01*
X97827666Y-120883988D01*
X97827666Y-120998273D01*
X97789571Y-121074464D01*
X97751476Y-121112559D01*
X97675285Y-121150654D01*
X97370523Y-121150654D01*
X97370523Y-120350654D01*
X97637190Y-120350654D01*
X97713380Y-120388750D01*
X97751476Y-120426845D01*
X97789571Y-120503035D01*
X97789571Y-120579226D01*
X97751476Y-120655416D01*
X97713380Y-120693511D01*
X97637190Y-120731607D01*
X97370523Y-120731607D01*
X98513380Y-120617321D02*
X98513380Y-121150654D01*
X98322904Y-120312559D02*
X98132428Y-120883988D01*
X98627666Y-120883988D01*
X99064991Y-119754452D02*
X99017851Y-119660171D01*
X99017851Y-119613030D01*
X99041421Y-119542320D01*
X99112132Y-119471609D01*
X99182842Y-119448039D01*
X99229983Y-119448039D01*
X99300693Y-119471609D01*
X99489255Y-119660171D01*
X98994280Y-120155146D01*
X98829289Y-119990154D01*
X98805719Y-119919443D01*
X98805719Y-119872303D01*
X98829289Y-119801592D01*
X98876429Y-119754452D01*
X98947140Y-119730882D01*
X98994280Y-119730882D01*
X99064991Y-119754452D01*
X99229983Y-119919443D01*
X98263603Y-119424469D02*
X98499306Y-119660171D01*
X98758578Y-119448039D01*
X98711438Y-119448039D01*
X98640727Y-119424469D01*
X98522876Y-119306617D01*
X98499306Y-119235907D01*
X98499306Y-119188766D01*
X98522876Y-119118056D01*
X98640727Y-119000205D01*
X98711438Y-118976634D01*
X98758578Y-118976634D01*
X98829289Y-119000205D01*
X98947140Y-119118056D01*
X98970710Y-119188766D01*
X98970710Y-119235907D01*
X86715190Y-123271607D02*
X86829476Y-123309702D01*
X86867571Y-123347797D01*
X86905666Y-123423988D01*
X86905666Y-123538273D01*
X86867571Y-123614464D01*
X86829476Y-123652559D01*
X86753285Y-123690654D01*
X86448523Y-123690654D01*
X86448523Y-122890654D01*
X86715190Y-122890654D01*
X86791380Y-122928750D01*
X86829476Y-122966845D01*
X86867571Y-123043035D01*
X86867571Y-123119226D01*
X86829476Y-123195416D01*
X86791380Y-123233511D01*
X86715190Y-123271607D01*
X86448523Y-123271607D01*
X87172333Y-122890654D02*
X87667571Y-122890654D01*
X87400904Y-123195416D01*
X87515190Y-123195416D01*
X87591380Y-123233511D01*
X87629476Y-123271607D01*
X87667571Y-123347797D01*
X87667571Y-123538273D01*
X87629476Y-123614464D01*
X87591380Y-123652559D01*
X87515190Y-123690654D01*
X87286619Y-123690654D01*
X87210428Y-123652559D01*
X87172333Y-123614464D01*
X86715190Y-125811607D02*
X86829476Y-125849702D01*
X86867571Y-125887797D01*
X86905666Y-125963988D01*
X86905666Y-126078273D01*
X86867571Y-126154464D01*
X86829476Y-126192559D01*
X86753285Y-126230654D01*
X86448523Y-126230654D01*
X86448523Y-125430654D01*
X86715190Y-125430654D01*
X86791380Y-125468750D01*
X86829476Y-125506845D01*
X86867571Y-125583035D01*
X86867571Y-125659226D01*
X86829476Y-125735416D01*
X86791380Y-125773511D01*
X86715190Y-125811607D01*
X86448523Y-125811607D01*
X87667571Y-126230654D02*
X87210428Y-126230654D01*
X87439000Y-126230654D02*
X87439000Y-125430654D01*
X87362809Y-125544940D01*
X87286619Y-125621130D01*
X87210428Y-125659226D01*
X86772333Y-135971607D02*
X86505666Y-135971607D01*
X86505666Y-136390654D02*
X86505666Y-135590654D01*
X86886619Y-135590654D01*
X87534238Y-135857321D02*
X87534238Y-136390654D01*
X87343761Y-135552559D02*
X87153285Y-136123988D01*
X87648523Y-136123988D01*
X85972333Y-138130654D02*
X86239000Y-138930654D01*
X86505666Y-138130654D01*
X87229476Y-138854464D02*
X87191380Y-138892559D01*
X87077095Y-138930654D01*
X87000904Y-138930654D01*
X86886619Y-138892559D01*
X86810428Y-138816369D01*
X86772333Y-138740178D01*
X86734238Y-138587797D01*
X86734238Y-138473511D01*
X86772333Y-138321130D01*
X86810428Y-138244940D01*
X86886619Y-138168750D01*
X87000904Y-138130654D01*
X87077095Y-138130654D01*
X87191380Y-138168750D01*
X87229476Y-138206845D01*
X88029476Y-138854464D02*
X87991380Y-138892559D01*
X87877095Y-138930654D01*
X87800904Y-138930654D01*
X87686619Y-138892559D01*
X87610428Y-138816369D01*
X87572333Y-138740178D01*
X87534238Y-138587797D01*
X87534238Y-138473511D01*
X87572333Y-138321130D01*
X87610428Y-138244940D01*
X87686619Y-138168750D01*
X87800904Y-138130654D01*
X87877095Y-138130654D01*
X87991380Y-138168750D01*
X88029476Y-138206845D01*
X86233546Y-141462559D02*
X86347832Y-141500654D01*
X86538308Y-141500654D01*
X86614499Y-141462559D01*
X86652594Y-141424464D01*
X86690689Y-141348273D01*
X86690689Y-141272083D01*
X86652594Y-141195892D01*
X86614499Y-141157797D01*
X86538308Y-141119702D01*
X86385927Y-141081607D01*
X86309737Y-141043511D01*
X86271641Y-141005416D01*
X86233546Y-140929226D01*
X86233546Y-140853035D01*
X86271641Y-140776845D01*
X86309737Y-140738750D01*
X86385927Y-140700654D01*
X86576403Y-140700654D01*
X86690689Y-140738750D01*
X86919260Y-140700654D02*
X87376403Y-140700654D01*
X87147832Y-141500654D02*
X87147832Y-140700654D01*
X86429476Y-143248750D02*
X86353285Y-143210654D01*
X86239000Y-143210654D01*
X86124714Y-143248750D01*
X86048523Y-143324940D01*
X86010428Y-143401130D01*
X85972333Y-143553511D01*
X85972333Y-143667797D01*
X86010428Y-143820178D01*
X86048523Y-143896369D01*
X86124714Y-143972559D01*
X86239000Y-144010654D01*
X86315190Y-144010654D01*
X86429476Y-143972559D01*
X86467571Y-143934464D01*
X86467571Y-143667797D01*
X86315190Y-143667797D01*
X86810428Y-144010654D02*
X86810428Y-143210654D01*
X87267571Y-144010654D01*
X87267571Y-143210654D01*
X87648523Y-144010654D02*
X87648523Y-143210654D01*
X87839000Y-143210654D01*
X87953285Y-143248750D01*
X88029476Y-143324940D01*
X88067571Y-143401130D01*
X88105666Y-143553511D01*
X88105666Y-143667797D01*
X88067571Y-143820178D01*
X88029476Y-143896369D01*
X87953285Y-143972559D01*
X87839000Y-144010654D01*
X87648523Y-144010654D01*
X86715190Y-146131607D02*
X86829476Y-146169702D01*
X86867571Y-146207797D01*
X86905666Y-146283988D01*
X86905666Y-146398273D01*
X86867571Y-146474464D01*
X86829476Y-146512559D01*
X86753285Y-146550654D01*
X86448523Y-146550654D01*
X86448523Y-145750654D01*
X86715190Y-145750654D01*
X86791380Y-145788750D01*
X86829476Y-145826845D01*
X86867571Y-145903035D01*
X86867571Y-145979226D01*
X86829476Y-146055416D01*
X86791380Y-146093511D01*
X86715190Y-146131607D01*
X86448523Y-146131607D01*
X87400904Y-145750654D02*
X87477095Y-145750654D01*
X87553285Y-145788750D01*
X87591380Y-145826845D01*
X87629476Y-145903035D01*
X87667571Y-146055416D01*
X87667571Y-146245892D01*
X87629476Y-146398273D01*
X87591380Y-146474464D01*
X87553285Y-146512559D01*
X87477095Y-146550654D01*
X87400904Y-146550654D01*
X87324714Y-146512559D01*
X87286619Y-146474464D01*
X87248523Y-146398273D01*
X87210428Y-146245892D01*
X87210428Y-146055416D01*
X87248523Y-145903035D01*
X87286619Y-145826845D01*
X87324714Y-145788750D01*
X87400904Y-145750654D01*
X86772333Y-133431607D02*
X86505666Y-133431607D01*
X86505666Y-133850654D02*
X86505666Y-133050654D01*
X86886619Y-133050654D01*
X87572333Y-133050654D02*
X87191380Y-133050654D01*
X87153285Y-133431607D01*
X87191380Y-133393511D01*
X87267571Y-133355416D01*
X87458047Y-133355416D01*
X87534238Y-133393511D01*
X87572333Y-133431607D01*
X87610428Y-133507797D01*
X87610428Y-133698273D01*
X87572333Y-133774464D01*
X87534238Y-133812559D01*
X87458047Y-133850654D01*
X87267571Y-133850654D01*
X87191380Y-133812559D01*
X87153285Y-133774464D01*
X86772333Y-130891607D02*
X86505666Y-130891607D01*
X86505666Y-131310654D02*
X86505666Y-130510654D01*
X86886619Y-130510654D01*
X87534238Y-130510654D02*
X87381857Y-130510654D01*
X87305666Y-130548750D01*
X87267571Y-130586845D01*
X87191380Y-130701130D01*
X87153285Y-130853511D01*
X87153285Y-131158273D01*
X87191380Y-131234464D01*
X87229476Y-131272559D01*
X87305666Y-131310654D01*
X87458047Y-131310654D01*
X87534238Y-131272559D01*
X87572333Y-131234464D01*
X87610428Y-131158273D01*
X87610428Y-130967797D01*
X87572333Y-130891607D01*
X87534238Y-130853511D01*
X87458047Y-130815416D01*
X87305666Y-130815416D01*
X87229476Y-130853511D01*
X87191380Y-130891607D01*
X87153285Y-130967797D01*
X86772333Y-128351607D02*
X86505666Y-128351607D01*
X86505666Y-128770654D02*
X86505666Y-127970654D01*
X86886619Y-127970654D01*
X87115190Y-127970654D02*
X87648523Y-127970654D01*
X87305666Y-128770654D01*
X86715190Y-120731607D02*
X86829476Y-120769702D01*
X86867571Y-120807797D01*
X86905666Y-120883988D01*
X86905666Y-120998273D01*
X86867571Y-121074464D01*
X86829476Y-121112559D01*
X86753285Y-121150654D01*
X86448523Y-121150654D01*
X86448523Y-120350654D01*
X86715190Y-120350654D01*
X86791380Y-120388750D01*
X86829476Y-120426845D01*
X86867571Y-120503035D01*
X86867571Y-120579226D01*
X86829476Y-120655416D01*
X86791380Y-120693511D01*
X86715190Y-120731607D01*
X86448523Y-120731607D01*
X87210428Y-120426845D02*
X87248523Y-120388750D01*
X87324714Y-120350654D01*
X87515190Y-120350654D01*
X87591380Y-120388750D01*
X87629476Y-120426845D01*
X87667571Y-120503035D01*
X87667571Y-120579226D01*
X87629476Y-120693511D01*
X87172333Y-121150654D01*
X87667571Y-121150654D01*
%TO.C,SW3*%
X73998666Y-55698511D02*
X74141523Y-55746130D01*
X74379619Y-55746130D01*
X74474857Y-55698511D01*
X74522476Y-55650892D01*
X74570095Y-55555654D01*
X74570095Y-55460416D01*
X74522476Y-55365178D01*
X74474857Y-55317559D01*
X74379619Y-55269940D01*
X74189142Y-55222321D01*
X74093904Y-55174702D01*
X74046285Y-55127083D01*
X73998666Y-55031845D01*
X73998666Y-54936607D01*
X74046285Y-54841369D01*
X74093904Y-54793750D01*
X74189142Y-54746130D01*
X74427238Y-54746130D01*
X74570095Y-54793750D01*
X74903428Y-54746130D02*
X75141523Y-55746130D01*
X75332000Y-55031845D01*
X75522476Y-55746130D01*
X75760571Y-54746130D01*
X76046285Y-54746130D02*
X76665333Y-54746130D01*
X76332000Y-55127083D01*
X76474857Y-55127083D01*
X76570095Y-55174702D01*
X76617714Y-55222321D01*
X76665333Y-55317559D01*
X76665333Y-55555654D01*
X76617714Y-55650892D01*
X76570095Y-55698511D01*
X76474857Y-55746130D01*
X76189142Y-55746130D01*
X76093904Y-55698511D01*
X76046285Y-55650892D01*
%TO.C,SW2*%
X131148666Y-55698511D02*
X131291523Y-55746130D01*
X131529619Y-55746130D01*
X131624857Y-55698511D01*
X131672476Y-55650892D01*
X131720095Y-55555654D01*
X131720095Y-55460416D01*
X131672476Y-55365178D01*
X131624857Y-55317559D01*
X131529619Y-55269940D01*
X131339142Y-55222321D01*
X131243904Y-55174702D01*
X131196285Y-55127083D01*
X131148666Y-55031845D01*
X131148666Y-54936607D01*
X131196285Y-54841369D01*
X131243904Y-54793750D01*
X131339142Y-54746130D01*
X131577238Y-54746130D01*
X131720095Y-54793750D01*
X132053428Y-54746130D02*
X132291523Y-55746130D01*
X132482000Y-55031845D01*
X132672476Y-55746130D01*
X132910571Y-54746130D01*
X133243904Y-54841369D02*
X133291523Y-54793750D01*
X133386761Y-54746130D01*
X133624857Y-54746130D01*
X133720095Y-54793750D01*
X133767714Y-54841369D01*
X133815333Y-54936607D01*
X133815333Y-55031845D01*
X133767714Y-55174702D01*
X133196285Y-55746130D01*
X133815333Y-55746130D01*
%TO.C,D4*%
X92712654Y-83952380D02*
X92712654Y-82952380D01*
X92950750Y-82952380D01*
X93093607Y-83000000D01*
X93188845Y-83095238D01*
X93236464Y-83190476D01*
X93284083Y-83380952D01*
X93284083Y-83523809D01*
X93236464Y-83714285D01*
X93188845Y-83809523D01*
X93093607Y-83904761D01*
X92950750Y-83952380D01*
X92712654Y-83952380D01*
X94141226Y-83285714D02*
X94141226Y-83952380D01*
X93903130Y-82904761D02*
X93665035Y-83619047D01*
X94284083Y-83619047D01*
%TO.C,D3*%
X73800154Y-83871130D02*
X73800154Y-82871130D01*
X74038250Y-82871130D01*
X74181107Y-82918750D01*
X74276345Y-83013988D01*
X74323964Y-83109226D01*
X74371583Y-83299702D01*
X74371583Y-83442559D01*
X74323964Y-83633035D01*
X74276345Y-83728273D01*
X74181107Y-83823511D01*
X74038250Y-83871130D01*
X73800154Y-83871130D01*
X74704916Y-82871130D02*
X75323964Y-82871130D01*
X74990630Y-83252083D01*
X75133488Y-83252083D01*
X75228726Y-83299702D01*
X75276345Y-83347321D01*
X75323964Y-83442559D01*
X75323964Y-83680654D01*
X75276345Y-83775892D01*
X75228726Y-83823511D01*
X75133488Y-83871130D01*
X74847773Y-83871130D01*
X74752535Y-83823511D01*
X74704916Y-83775892D01*
%TO.C,D2*%
X130887654Y-83952380D02*
X130887654Y-82952380D01*
X131125750Y-82952380D01*
X131268607Y-83000000D01*
X131363845Y-83095238D01*
X131411464Y-83190476D01*
X131459083Y-83380952D01*
X131459083Y-83523809D01*
X131411464Y-83714285D01*
X131363845Y-83809523D01*
X131268607Y-83904761D01*
X131125750Y-83952380D01*
X130887654Y-83952380D01*
X131840035Y-83047619D02*
X131887654Y-83000000D01*
X131982892Y-82952380D01*
X132220988Y-82952380D01*
X132316226Y-83000000D01*
X132363845Y-83047619D01*
X132411464Y-83142857D01*
X132411464Y-83238095D01*
X132363845Y-83380952D01*
X131792416Y-83952380D01*
X132411464Y-83952380D01*
%TO.C,D1*%
X111811904Y-83952380D02*
X111811904Y-82952380D01*
X112050000Y-82952380D01*
X112192857Y-83000000D01*
X112288095Y-83095238D01*
X112335714Y-83190476D01*
X112383333Y-83380952D01*
X112383333Y-83523809D01*
X112335714Y-83714285D01*
X112288095Y-83809523D01*
X112192857Y-83904761D01*
X112050000Y-83952380D01*
X111811904Y-83952380D01*
X113335714Y-83952380D02*
X112764285Y-83952380D01*
X113050000Y-83952380D02*
X113050000Y-82952380D01*
X112954761Y-83095238D01*
X112859523Y-83190476D01*
X112764285Y-83238095D01*
%TO.C,G\u002A\u002A\u002A*%
G36*
X128306736Y-131869577D02*
G01*
X128470586Y-131259121D01*
X128505977Y-131105208D01*
X128533810Y-130882183D01*
X128554991Y-130576692D01*
X128570427Y-130175380D01*
X128581022Y-129664894D01*
X128581653Y-129621408D01*
X128590192Y-129143566D01*
X128601851Y-128767045D01*
X128618412Y-128469573D01*
X128641661Y-128228876D01*
X128673382Y-128022682D01*
X128715358Y-127828718D01*
X128729895Y-127770837D01*
X128975228Y-127033805D01*
X129309480Y-126382613D01*
X129732851Y-125817051D01*
X130245544Y-125336908D01*
X130847763Y-124941976D01*
X131539709Y-124632043D01*
X131862288Y-124525627D01*
X132162450Y-124459436D01*
X132551271Y-124407719D01*
X132994491Y-124371953D01*
X133457854Y-124353614D01*
X133907101Y-124354180D01*
X134307975Y-124375126D01*
X134576921Y-124408608D01*
X135211699Y-124551875D01*
X135806954Y-124748388D01*
X136331670Y-124986778D01*
X136616112Y-125156053D01*
X136957766Y-125411000D01*
X137267439Y-125691573D01*
X137517835Y-125970727D01*
X137671806Y-126201946D01*
X137806216Y-126340998D01*
X138045997Y-126459535D01*
X138062243Y-126465344D01*
X138356952Y-126621583D01*
X138631217Y-126860220D01*
X138852257Y-127146086D01*
X138987291Y-127444009D01*
X138992391Y-127463272D01*
X139057359Y-127938272D01*
X139003984Y-128377631D01*
X138832198Y-128781611D01*
X138541929Y-129150473D01*
X138539189Y-129153223D01*
X138373907Y-129322396D01*
X138279347Y-129441422D01*
X138238719Y-129547440D01*
X138235232Y-129677590D01*
X138245823Y-129802128D01*
X138290559Y-130034809D01*
X138389407Y-130296215D01*
X138554517Y-130617841D01*
X138573473Y-130651581D01*
X138970389Y-131448659D01*
X139249158Y-132227607D01*
X139345046Y-132612173D01*
X139398793Y-132891955D01*
X139420159Y-133098889D01*
X139410993Y-133278893D01*
X139378885Y-133452617D01*
X139252142Y-133783032D01*
X139047407Y-134022057D01*
X138776969Y-134162717D01*
X138453120Y-134198038D01*
X138159587Y-134144490D01*
X137987995Y-134095841D01*
X137875295Y-134069573D01*
X137851364Y-134068325D01*
X137831039Y-134129759D01*
X137787047Y-134281378D01*
X137727789Y-134493998D01*
X137709046Y-134562548D01*
X137521184Y-135136403D01*
X137291712Y-135614607D01*
X137007255Y-136021840D01*
X136792261Y-136254575D01*
X136404051Y-136635427D01*
X136508131Y-137088882D01*
X136561031Y-137415918D01*
X136594952Y-137829435D01*
X136609955Y-138293790D01*
X136606107Y-138773340D01*
X136583469Y-139232440D01*
X136542105Y-139635448D01*
X136503186Y-139859854D01*
X136454246Y-140096377D01*
X136434103Y-140241208D01*
X136442747Y-140322852D01*
X136480168Y-140369814D01*
X136503006Y-140385158D01*
X136750459Y-140566652D01*
X136878601Y-140737876D01*
X136890230Y-140907733D01*
X136788140Y-141085121D01*
X136739341Y-141137567D01*
X136622903Y-141235707D01*
X136504102Y-141273192D01*
X136328328Y-141265000D01*
X136291287Y-141260453D01*
X135858950Y-141179113D01*
X135538384Y-141058834D01*
X135380910Y-140953593D01*
X135222199Y-140817076D01*
X135383287Y-140261215D01*
X135476252Y-139846861D01*
X135544619Y-139352191D01*
X135585959Y-138818482D01*
X135597844Y-138287015D01*
X135577845Y-137799069D01*
X135544927Y-137514031D01*
X135508734Y-137292393D01*
X135478952Y-137125866D01*
X135461136Y-137045189D01*
X135459611Y-137042140D01*
X135398311Y-137051628D01*
X135243806Y-137086064D01*
X135022537Y-137139370D01*
X134864647Y-137178918D01*
X134308666Y-137289785D01*
X133717581Y-137354314D01*
X133122694Y-137372503D01*
X132555305Y-137344347D01*
X132046716Y-137269844D01*
X131710195Y-137179287D01*
X131554146Y-137129589D01*
X131486579Y-137125837D01*
X131480563Y-137169743D01*
X131487042Y-137193488D01*
X131563208Y-137542439D01*
X131612717Y-137974154D01*
X131636224Y-138458258D01*
X131634381Y-138964376D01*
X131607842Y-139462131D01*
X131557262Y-139921148D01*
X131483292Y-140311053D01*
X131415177Y-140533868D01*
X131393679Y-140634812D01*
X131430583Y-140728130D01*
X131543497Y-140849386D01*
X131594698Y-140896412D01*
X131730356Y-141035377D01*
X131815984Y-141154643D01*
X131831387Y-141200510D01*
X131790410Y-141298570D01*
X131688324Y-141431858D01*
X131650740Y-141471421D01*
X131422057Y-141620387D01*
X131149548Y-141653832D01*
X130833337Y-141571758D01*
X130610024Y-141459738D01*
X130386144Y-141318726D01*
X130253623Y-141193203D01*
X130202948Y-141052484D01*
X130224604Y-140865885D01*
X130309076Y-140602719D01*
X130328115Y-140550558D01*
X130389081Y-140379978D01*
X130433870Y-140232409D01*
X130464938Y-140084431D01*
X130484740Y-139912623D01*
X130495731Y-139693565D01*
X130500367Y-139403837D01*
X130501103Y-139020020D01*
X130500958Y-138901946D01*
X130499409Y-138486346D01*
X130494512Y-138170186D01*
X130483817Y-137929307D01*
X130464874Y-137739551D01*
X130435230Y-137576759D01*
X130392437Y-137416775D01*
X130334042Y-137235439D01*
X130330964Y-137226258D01*
X130238039Y-136967202D01*
X130155350Y-136793770D01*
X130061761Y-136672034D01*
X129936136Y-136568065D01*
X129909037Y-136548999D01*
X129694064Y-136374242D01*
X129446949Y-136134342D01*
X129200632Y-135865165D01*
X128988055Y-135602580D01*
X128848975Y-135394774D01*
X128651665Y-135162463D01*
X128449965Y-135032980D01*
X128195092Y-134871255D01*
X127971642Y-134640558D01*
X127765328Y-134322725D01*
X127566002Y-133909220D01*
X127457895Y-133648597D01*
X127399223Y-133476931D01*
X127397346Y-133463504D01*
X127575792Y-133463504D01*
X127614705Y-133554167D01*
X127682179Y-133711463D01*
X127716172Y-133790728D01*
X127821669Y-134025504D01*
X127938227Y-134269531D01*
X127961226Y-134315533D01*
X128057190Y-134463188D01*
X128183875Y-134604555D01*
X128321464Y-134726005D01*
X128450141Y-134813908D01*
X128550087Y-134854636D01*
X128601485Y-134834558D01*
X128586937Y-134745864D01*
X128539535Y-134621457D01*
X128473950Y-134440342D01*
X128450914Y-134375061D01*
X128382244Y-134217304D01*
X128315522Y-134123617D01*
X128292402Y-134112409D01*
X128221077Y-134070367D01*
X128091537Y-133958870D01*
X127928780Y-133799857D01*
X127887548Y-133757056D01*
X127734866Y-133600512D01*
X127624986Y-133495284D01*
X127575792Y-133458211D01*
X127575792Y-133463504D01*
X127397346Y-133463504D01*
X127396606Y-133458211D01*
X127384611Y-133372398D01*
X127408683Y-133313172D01*
X127417254Y-133305183D01*
X127550994Y-133263859D01*
X127718914Y-133336041D01*
X127923864Y-133523161D01*
X127982594Y-133589674D01*
X128216059Y-133863105D01*
X128196576Y-133174595D01*
X128200120Y-133027763D01*
X128370560Y-133027763D01*
X128431108Y-133706182D01*
X128610113Y-134385737D01*
X128844211Y-134936020D01*
X128979531Y-135190817D01*
X129114784Y-135405189D01*
X129273766Y-135610002D01*
X129480273Y-135836124D01*
X129735906Y-136092666D01*
X129998497Y-136354659D01*
X130189312Y-136563608D01*
X130326889Y-136750851D01*
X130429768Y-136947726D01*
X130516487Y-137185570D01*
X130605587Y-137495723D01*
X130638380Y-137618184D01*
X130685812Y-137831759D01*
X130718238Y-138071842D01*
X130737721Y-138365131D01*
X130746322Y-138738323D01*
X130747085Y-139025547D01*
X130744600Y-139407474D01*
X130737233Y-139693972D01*
X130721692Y-139913201D01*
X130694687Y-140093323D01*
X130652926Y-140262499D01*
X130593117Y-140448891D01*
X130574393Y-140503107D01*
X130499645Y-140738189D01*
X130450197Y-140934349D01*
X130433991Y-141058407D01*
X130436992Y-141077126D01*
X130508592Y-141147176D01*
X130657492Y-141240120D01*
X130844857Y-141336547D01*
X131031853Y-141417044D01*
X131179644Y-141462199D01*
X131215082Y-141466063D01*
X131334897Y-141432783D01*
X131446833Y-141370462D01*
X131560626Y-141256050D01*
X131561518Y-141142110D01*
X131446626Y-141016871D01*
X131342601Y-140944909D01*
X131101017Y-140792404D01*
X131222207Y-140403379D01*
X131333554Y-139928546D01*
X131402774Y-139378731D01*
X131429560Y-138791821D01*
X131413605Y-138205704D01*
X131354603Y-137658266D01*
X131252246Y-137187394D01*
X131248373Y-137174417D01*
X131201167Y-136996325D01*
X131180451Y-136872621D01*
X131184274Y-136840138D01*
X131252459Y-136842744D01*
X131410177Y-136873928D01*
X131628325Y-136927586D01*
X131722762Y-136953083D01*
X132294435Y-137069593D01*
X132926258Y-137127153D01*
X133580960Y-137126751D01*
X134221273Y-137069376D01*
X134809925Y-136956017D01*
X135118712Y-136862992D01*
X135417349Y-136757755D01*
X135615495Y-136689979D01*
X135729373Y-136656442D01*
X135775203Y-136653917D01*
X135769209Y-136679181D01*
X135727612Y-136729010D01*
X135713737Y-136744716D01*
X135645563Y-136863851D01*
X135676258Y-136981086D01*
X135705690Y-137086329D01*
X135737518Y-137286767D01*
X135768013Y-137554150D01*
X135793443Y-137860223D01*
X135794590Y-137877154D01*
X135815122Y-138599578D01*
X135780468Y-139286243D01*
X135692950Y-139908811D01*
X135594736Y-140314219D01*
X135529942Y-140538913D01*
X135500852Y-140675700D01*
X135506419Y-140754683D01*
X135545594Y-140805965D01*
X135576782Y-140830131D01*
X135776571Y-140929295D01*
X136044889Y-141001777D01*
X136327294Y-141033354D01*
X136356099Y-141033719D01*
X136546631Y-141001618D01*
X136656460Y-140918394D01*
X136670501Y-140804680D01*
X136598620Y-140701939D01*
X136473578Y-140622507D01*
X136391874Y-140601460D01*
X136258601Y-140565797D01*
X136196016Y-140452083D01*
X136201603Y-140250232D01*
X136249896Y-140031673D01*
X136313218Y-139708090D01*
X136358461Y-139295976D01*
X136385069Y-138829154D01*
X136392485Y-138341445D01*
X136380153Y-137866671D01*
X136347517Y-137438654D01*
X136297949Y-137109755D01*
X136182658Y-136553573D01*
X136587193Y-136151204D01*
X137001736Y-135652672D01*
X137319894Y-135081213D01*
X137535420Y-134448471D01*
X137561579Y-134334827D01*
X137666422Y-133846540D01*
X137390876Y-133601050D01*
X137182545Y-133418711D01*
X136960844Y-133229509D01*
X136859438Y-133144975D01*
X136603546Y-132934390D01*
X136379963Y-133066308D01*
X136186329Y-133150745D01*
X136045726Y-133152391D01*
X135976273Y-133072735D01*
X135972020Y-133032840D01*
X135946339Y-132949264D01*
X135923768Y-132938199D01*
X135870801Y-132886797D01*
X135809235Y-132762533D01*
X135807029Y-132756753D01*
X135784910Y-132570696D01*
X135910219Y-132570696D01*
X135953217Y-132582457D01*
X136060294Y-132529317D01*
X136099179Y-132503062D01*
X136251266Y-132413060D01*
X136318552Y-132407734D01*
X136292656Y-132474616D01*
X136165197Y-132601238D01*
X136165182Y-132601251D01*
X136024835Y-132734346D01*
X135978736Y-132811162D01*
X136025397Y-132822478D01*
X136163329Y-132759077D01*
X136188322Y-132744609D01*
X136339647Y-132675306D01*
X136401810Y-132683027D01*
X136363866Y-132750913D01*
X136250122Y-132839816D01*
X136123462Y-132944494D01*
X136101090Y-133006885D01*
X136172943Y-133007590D01*
X136303767Y-132943240D01*
X136455914Y-132860303D01*
X136571113Y-132816596D01*
X136587634Y-132814599D01*
X136661861Y-132852223D01*
X136809104Y-132954835D01*
X137008483Y-133107044D01*
X137239119Y-133293457D01*
X137253932Y-133305757D01*
X137500092Y-133505293D01*
X137730365Y-133682692D01*
X137918527Y-133818321D01*
X138036123Y-133891455D01*
X138319149Y-133973830D01*
X138625089Y-133972069D01*
X138882367Y-133893147D01*
X139030654Y-133779615D01*
X139126500Y-133641922D01*
X139185772Y-133343329D01*
X139174502Y-132963184D01*
X139096629Y-132518576D01*
X138956093Y-132026594D01*
X138756833Y-131504323D01*
X138516162Y-130994576D01*
X138165937Y-130317863D01*
X138147964Y-130826106D01*
X138143708Y-131078661D01*
X138157588Y-131277000D01*
X138198315Y-131466115D01*
X138274599Y-131690997D01*
X138355480Y-131897942D01*
X138492614Y-132284185D01*
X138583046Y-132632847D01*
X138624362Y-132926160D01*
X138614150Y-133146357D01*
X138549995Y-133275669D01*
X138543302Y-133280946D01*
X138432418Y-133330362D01*
X138296795Y-133322793D01*
X138121466Y-133251572D01*
X137891460Y-133110028D01*
X137629063Y-132918663D01*
X138059838Y-132918663D01*
X138083599Y-132995860D01*
X138138079Y-133041044D01*
X138162164Y-133053384D01*
X138329413Y-133113067D01*
X138418967Y-133085293D01*
X138444039Y-132975609D01*
X138428946Y-132858223D01*
X138389820Y-132685658D01*
X138335890Y-132488112D01*
X138276388Y-132295779D01*
X138220544Y-132138856D01*
X138177588Y-132047537D01*
X138158678Y-132042092D01*
X138141757Y-132130605D01*
X138116619Y-132305441D01*
X138088485Y-132530056D01*
X138086420Y-132547713D01*
X138062283Y-132779324D01*
X138059838Y-132918663D01*
X137629063Y-132918663D01*
X137591808Y-132891493D01*
X137486132Y-132809952D01*
X137164435Y-132568577D01*
X136913746Y-132403405D01*
X136716360Y-132304569D01*
X136554576Y-132262203D01*
X136497324Y-132258856D01*
X136337452Y-132287120D01*
X136160922Y-132357653D01*
X136007997Y-132449069D01*
X135918944Y-132539982D01*
X135910219Y-132570696D01*
X135784910Y-132570696D01*
X135783262Y-132556835D01*
X135876177Y-132383403D01*
X136088696Y-132231105D01*
X136096303Y-132227141D01*
X136321424Y-132145024D01*
X136551716Y-132138707D01*
X136805791Y-132213390D01*
X137102257Y-132374271D01*
X137420865Y-132597182D01*
X137600274Y-132726774D01*
X137738146Y-132816737D01*
X137808564Y-132850357D01*
X137811895Y-132849338D01*
X137835666Y-132769821D01*
X137863017Y-132588628D01*
X137892234Y-132327570D01*
X137921603Y-132008459D01*
X137949408Y-131653106D01*
X137973936Y-131283324D01*
X137993471Y-130920922D01*
X138006299Y-130587713D01*
X138010710Y-130320251D01*
X138011436Y-129463617D01*
X137801171Y-129503062D01*
X137595439Y-129515303D01*
X137371722Y-129492882D01*
X137348102Y-129487954D01*
X137105296Y-129433399D01*
X137037227Y-129687902D01*
X136912523Y-129969379D01*
X136719421Y-130155631D01*
X136467730Y-130237892D01*
X136418452Y-130240941D01*
X136132221Y-130192766D01*
X135900437Y-130041696D01*
X135752284Y-129818587D01*
X135688159Y-129687119D01*
X135615004Y-129640244D01*
X135484088Y-129654621D01*
X135433296Y-129665800D01*
X135209706Y-129688059D01*
X134986166Y-129670203D01*
X134975386Y-129667896D01*
X134827251Y-129642255D01*
X134750548Y-129672804D01*
X134700263Y-129786715D01*
X134682570Y-129844640D01*
X134543423Y-130110418D01*
X134322276Y-130304375D01*
X134046905Y-130411490D01*
X133745090Y-130416739D01*
X133659586Y-130397897D01*
X133444240Y-130287062D01*
X133241091Y-130097700D01*
X133089300Y-129871911D01*
X133037505Y-129729165D01*
X133004075Y-129597894D01*
X132980079Y-129539371D01*
X132979281Y-129539173D01*
X132919277Y-129564361D01*
X132791086Y-129626839D01*
X132752439Y-129646398D01*
X132506614Y-129723115D01*
X132193271Y-129753095D01*
X131859245Y-129736518D01*
X131551370Y-129673562D01*
X131460584Y-129641467D01*
X131050192Y-129421810D01*
X130743935Y-129136125D01*
X130539812Y-128781722D01*
X130435819Y-128355912D01*
X130426166Y-128252188D01*
X130427489Y-128225650D01*
X130991236Y-128225650D01*
X131081044Y-128612082D01*
X131279684Y-128946964D01*
X131582133Y-129219770D01*
X131738687Y-129313190D01*
X131931546Y-129376256D01*
X132181101Y-129408205D01*
X132441774Y-129408580D01*
X132667989Y-129376921D01*
X132800019Y-129323867D01*
X132893609Y-129208679D01*
X132909263Y-129168370D01*
X133108853Y-129168370D01*
X133132906Y-129578072D01*
X133221923Y-129887095D01*
X133377915Y-130101129D01*
X133460021Y-130161730D01*
X133689680Y-130250886D01*
X133948726Y-130276316D01*
X134185290Y-130236570D01*
X134289178Y-130184908D01*
X134422650Y-130063634D01*
X134519016Y-129899729D01*
X134590790Y-129664859D01*
X134642239Y-129385470D01*
X134659548Y-129264691D01*
X134797811Y-129264691D01*
X134805759Y-129433581D01*
X134844183Y-129516982D01*
X134934953Y-129552702D01*
X134967762Y-129558512D01*
X135143037Y-129569516D01*
X135340302Y-129558015D01*
X135511336Y-129529315D01*
X135607922Y-129488721D01*
X135608589Y-129488013D01*
X135626662Y-129404653D01*
X135621713Y-129253173D01*
X135618180Y-129222445D01*
X135589498Y-128998418D01*
X134797811Y-128998418D01*
X134797811Y-129264691D01*
X134659548Y-129264691D01*
X134674805Y-129158233D01*
X134681934Y-129018139D01*
X134658438Y-128930397D01*
X134599128Y-128860220D01*
X134558564Y-128824407D01*
X134451669Y-128667597D01*
X134458651Y-128494652D01*
X134575078Y-128325213D01*
X134691318Y-128236090D01*
X134839947Y-128163035D01*
X135010580Y-128130864D01*
X135250103Y-128131462D01*
X135285091Y-128133316D01*
X135514671Y-128153621D01*
X135661781Y-128192162D01*
X135767499Y-128263541D01*
X135825845Y-128325518D01*
X135943869Y-128497401D01*
X135957387Y-128637411D01*
X135867736Y-128777514D01*
X135845662Y-128800324D01*
X135774919Y-128889289D01*
X135744590Y-128996686D01*
X135747615Y-129163176D01*
X135760496Y-129290767D01*
X135836334Y-129650681D01*
X135967909Y-129914278D01*
X136149121Y-130075447D01*
X136373874Y-130128077D01*
X136562374Y-130094305D01*
X136748257Y-129987224D01*
X136877826Y-129800628D01*
X136955733Y-129523033D01*
X136986630Y-129142956D01*
X136987581Y-129044769D01*
X136977125Y-128721364D01*
X136941726Y-128478427D01*
X136874763Y-128274187D01*
X136860245Y-128241363D01*
X136652280Y-127874237D01*
X136398151Y-127601898D01*
X136197972Y-127481963D01*
X136616244Y-127481963D01*
X136625603Y-127592914D01*
X136690147Y-127726005D01*
X136771557Y-127853206D01*
X136895623Y-128069328D01*
X136995812Y-128293890D01*
X137028012Y-128392921D01*
X137080781Y-128594284D01*
X137128338Y-128771360D01*
X137135559Y-128797567D01*
X137235036Y-128947288D01*
X137423113Y-129070391D01*
X137665105Y-129149054D01*
X137856935Y-129168178D01*
X138083452Y-129139036D01*
X138302979Y-129068080D01*
X138319507Y-129060123D01*
X138556868Y-128876257D01*
X138726455Y-128612903D01*
X138826724Y-128294932D01*
X138856127Y-127947217D01*
X138813121Y-127594629D01*
X138696158Y-127262040D01*
X138503694Y-126974322D01*
X138452452Y-126920867D01*
X138170394Y-126722846D01*
X137839540Y-126635120D01*
X137453337Y-126655993D01*
X137438249Y-126658762D01*
X137215179Y-126747598D01*
X136983115Y-126913166D01*
X136783379Y-127119317D01*
X136657296Y-127329903D01*
X136651154Y-127347289D01*
X136616244Y-127481963D01*
X136197972Y-127481963D01*
X136077710Y-127409909D01*
X135670806Y-127283833D01*
X135473410Y-127247703D01*
X134967065Y-127218600D01*
X134480729Y-127284838D01*
X134048915Y-127441675D01*
X133739800Y-127664340D01*
X133477553Y-127980915D01*
X133275868Y-128366242D01*
X133148444Y-128795164D01*
X133108853Y-129168370D01*
X132909263Y-129168370D01*
X132976680Y-128994768D01*
X133032588Y-128775298D01*
X133131277Y-128440284D01*
X133268493Y-128111410D01*
X133349187Y-127961463D01*
X133475176Y-127729655D01*
X133523556Y-127554364D01*
X133493875Y-127395543D01*
X133385679Y-127213145D01*
X133340007Y-127150730D01*
X133097075Y-126923398D01*
X132782868Y-126771591D01*
X132428290Y-126701281D01*
X132064242Y-126718445D01*
X131721626Y-126829055D01*
X131709013Y-126835401D01*
X131389042Y-127058016D01*
X131164452Y-127354066D01*
X131028593Y-127732782D01*
X131015287Y-127798194D01*
X130991236Y-128225650D01*
X130427489Y-128225650D01*
X130448583Y-127802521D01*
X130570849Y-127404848D01*
X130777587Y-127066434D01*
X131053423Y-126794545D01*
X131382982Y-126596445D01*
X131750888Y-126479399D01*
X132141766Y-126450671D01*
X132540242Y-126517526D01*
X132930939Y-126687229D01*
X133247130Y-126919292D01*
X133414010Y-127085681D01*
X133541585Y-127243109D01*
X133599737Y-127351284D01*
X133633957Y-127463672D01*
X133654263Y-127499757D01*
X133714192Y-127475274D01*
X133857083Y-127410488D01*
X134054380Y-127318397D01*
X134095617Y-127298905D01*
X134309542Y-127202764D01*
X134484352Y-127143667D01*
X134663898Y-127113095D01*
X134892032Y-127102532D01*
X135106813Y-127102503D01*
X135497005Y-127118708D01*
X135783266Y-127162031D01*
X135933217Y-127210654D01*
X136102086Y-127282252D01*
X136186556Y-127306562D01*
X136215859Y-127284929D01*
X136219222Y-127223805D01*
X136266695Y-127100400D01*
X136389633Y-126941001D01*
X136558817Y-126775325D01*
X136745025Y-126633090D01*
X136867597Y-126564405D01*
X137074224Y-126491719D01*
X137275968Y-126452590D01*
X137316181Y-126450506D01*
X137452076Y-126439464D01*
X137504103Y-126395597D01*
X137473667Y-126299173D01*
X137362175Y-126130463D01*
X137341061Y-126101171D01*
X136967720Y-125686812D01*
X136501354Y-125332759D01*
X135958015Y-125041190D01*
X135353757Y-124814282D01*
X134704635Y-124654214D01*
X134026703Y-124563163D01*
X133336013Y-124543308D01*
X132648620Y-124596827D01*
X131980578Y-124725899D01*
X131347940Y-124932700D01*
X130780779Y-125211106D01*
X130281059Y-125551119D01*
X129860866Y-125939566D01*
X129516369Y-126385421D01*
X129243739Y-126897655D01*
X129039145Y-127485242D01*
X128898756Y-128157154D01*
X128818742Y-128922364D01*
X128795273Y-129789845D01*
X128795701Y-129861188D01*
X128795982Y-130292390D01*
X128788043Y-130618650D01*
X128770678Y-130858428D01*
X128742681Y-131030183D01*
X128712963Y-131128098D01*
X128633677Y-131379409D01*
X128553573Y-131713514D01*
X128479960Y-132089872D01*
X128420143Y-132467943D01*
X128381431Y-132807187D01*
X128370560Y-133027763D01*
X128200120Y-133027763D01*
X128212729Y-132505421D01*
X128306736Y-131869577D01*
G37*
G36*
X129817694Y-130780333D02*
G01*
X129831971Y-130847391D01*
X129855135Y-131016597D01*
X129884676Y-131267027D01*
X129918087Y-131577753D01*
X129943006Y-131825791D01*
X130007296Y-132445610D01*
X130069770Y-132952590D01*
X130134010Y-133357374D01*
X130203599Y-133670606D01*
X130282120Y-133902929D01*
X130373155Y-134064987D01*
X130480287Y-134167423D01*
X130607098Y-134220881D01*
X130754271Y-134236010D01*
X130923425Y-134222811D01*
X131091044Y-134176045D01*
X131276122Y-134084953D01*
X131497656Y-133938781D01*
X131774638Y-133726770D01*
X132047689Y-133503546D01*
X132297190Y-133300859D01*
X132518002Y-133130362D01*
X132690699Y-133006395D01*
X132795857Y-132943299D01*
X132813382Y-132938247D01*
X132916595Y-132983722D01*
X132978281Y-133046253D01*
X133060679Y-133118890D01*
X133105059Y-133092950D01*
X133091934Y-132992059D01*
X133067397Y-132938199D01*
X133029032Y-132822725D01*
X133043898Y-132757597D01*
X133096682Y-132771890D01*
X133131553Y-132816388D01*
X133195312Y-132930708D01*
X133212433Y-132969100D01*
X133264492Y-133000027D01*
X133279795Y-132990293D01*
X133283955Y-132914086D01*
X133236220Y-132781157D01*
X133226455Y-132761610D01*
X133148559Y-132595288D01*
X133140468Y-132528756D01*
X133203532Y-132558893D01*
X133283699Y-132629197D01*
X133391115Y-132712388D01*
X133434603Y-132711131D01*
X133417206Y-132644862D01*
X133341969Y-132533018D01*
X133253246Y-132434735D01*
X133108276Y-132313863D01*
X132989730Y-132281933D01*
X132929351Y-132293879D01*
X132833154Y-132341350D01*
X132654146Y-132445085D01*
X132412412Y-132592864D01*
X132128034Y-132772466D01*
X131893745Y-132924034D01*
X131595957Y-133117583D01*
X131331442Y-133287466D01*
X131118613Y-133422018D01*
X130975884Y-133509576D01*
X130924570Y-133537940D01*
X130842203Y-133513406D01*
X130788335Y-133446721D01*
X130756310Y-133339387D01*
X130718892Y-133139457D01*
X130678570Y-132870291D01*
X130637834Y-132555252D01*
X130599173Y-132217700D01*
X130565077Y-131880996D01*
X130538036Y-131568503D01*
X130520540Y-131303581D01*
X130515077Y-131109592D01*
X130524138Y-131009897D01*
X130527936Y-131003306D01*
X130561723Y-130992152D01*
X130591891Y-131040528D01*
X130621018Y-131161818D01*
X130651681Y-131369410D01*
X130686461Y-131676688D01*
X130717402Y-131986883D01*
X130761922Y-132437216D01*
X130798640Y-132778653D01*
X130829661Y-133025500D01*
X130857090Y-133192066D01*
X130883032Y-133292656D01*
X130909595Y-133341578D01*
X130917746Y-133348163D01*
X130986531Y-133327996D01*
X131138080Y-133248850D01*
X131353301Y-133121764D01*
X131613105Y-132957779D01*
X131761836Y-132860023D01*
X132145621Y-132606656D01*
X132442344Y-132416778D01*
X132665866Y-132282523D01*
X132830046Y-132196024D01*
X132948746Y-132149413D01*
X133035826Y-132134823D01*
X133039608Y-132134793D01*
X133163069Y-132183374D01*
X133310234Y-132304584D01*
X133447341Y-132461620D01*
X133540625Y-132617681D01*
X133561801Y-132703986D01*
X133518294Y-132839780D01*
X133410372Y-132998832D01*
X133271932Y-133142890D01*
X133136872Y-133233708D01*
X133080380Y-133247202D01*
X132958732Y-133208041D01*
X132882577Y-133155028D01*
X132833209Y-133124538D01*
X132770387Y-133127237D01*
X132677042Y-133173160D01*
X132536108Y-133272343D01*
X132330518Y-133434823D01*
X132136105Y-133593974D01*
X131742870Y-133907168D01*
X131420092Y-134137039D01*
X131153273Y-134290040D01*
X130927914Y-134372623D01*
X130729516Y-134391238D01*
X130543580Y-134352340D01*
X130484579Y-134328902D01*
X130353959Y-134242375D01*
X130240398Y-134098910D01*
X130141339Y-133888678D01*
X130054222Y-133601849D01*
X129976490Y-133228593D01*
X129905584Y-132759080D01*
X129838945Y-132183482D01*
X129788166Y-131653227D01*
X129757670Y-131270007D01*
X129745499Y-131000306D01*
X129751949Y-130835364D01*
X129777315Y-130766423D01*
X129817694Y-130780333D01*
G37*
G36*
X130050336Y-128696108D02*
G01*
X130050455Y-128696320D01*
X130082499Y-128848533D01*
X130064979Y-129057643D01*
X130005805Y-129271122D01*
X129945669Y-129392197D01*
X129798362Y-129517646D01*
X129598799Y-129559211D01*
X129407431Y-129513108D01*
X129284785Y-129394198D01*
X129189830Y-129199077D01*
X129139279Y-128974645D01*
X129146648Y-128781260D01*
X129186311Y-128655209D01*
X129223209Y-128652114D01*
X129257709Y-128772232D01*
X129272884Y-128868990D01*
X129311910Y-129114934D01*
X129354870Y-129265033D01*
X129414489Y-129346732D01*
X129503493Y-129387474D01*
X129514672Y-129390395D01*
X129663153Y-129416845D01*
X129766011Y-129395574D01*
X129837477Y-129308200D01*
X129891781Y-129136340D01*
X129943153Y-128861612D01*
X129948271Y-128830276D01*
X129977969Y-128683134D01*
X130008053Y-128643574D01*
X130050336Y-128696108D01*
G37*
D11*
%TO.C,SW1*%
X106432000Y-56956250D02*
X106432000Y-70956250D01*
X106432000Y-56956250D02*
X120432000Y-56956250D01*
X120432000Y-56956250D02*
X120432000Y-70956250D01*
X120432000Y-70956250D02*
X106432000Y-70956250D01*
%TO.C,R2*%
X143930000Y-127000000D02*
X144880000Y-127000000D01*
X144880000Y-126080000D02*
X144880000Y-127920000D01*
X149670000Y-127000000D02*
X148720000Y-127000000D01*
X144880000Y-127920000D02*
X148720000Y-127920000D01*
X148720000Y-126080000D02*
X144880000Y-126080000D01*
X148720000Y-127920000D02*
X148720000Y-126080000D01*
%TO.C,R1*%
X143930000Y-133000000D02*
X144880000Y-133000000D01*
X144880000Y-132080000D02*
X144880000Y-133920000D01*
X149670000Y-133000000D02*
X148720000Y-133000000D01*
X144880000Y-133920000D02*
X148720000Y-133920000D01*
X148720000Y-132080000D02*
X144880000Y-132080000D01*
X148720000Y-133920000D02*
X148720000Y-132080000D01*
%TO.C,SW6*%
X157707000Y-97043750D02*
G75*
G03*
X157707000Y-97043750I-3000000J0D01*
G01*
X150607000Y-104843750D02*
X150607000Y-104243750D01*
X148807000Y-103143750D02*
X160607000Y-103143750D01*
X153407000Y-90943750D02*
X156007000Y-90943750D01*
X154707000Y-97543750D02*
X154707000Y-96543750D01*
X148807000Y-99043750D02*
X148807000Y-103143750D01*
X154207000Y-97043750D02*
X155207000Y-97043750D01*
X158207000Y-90943750D02*
X160607000Y-90943750D01*
X148807000Y-90943750D02*
X151207000Y-90943750D01*
X148807000Y-95043750D02*
X148807000Y-90943750D01*
X160607000Y-99043750D02*
X160607000Y-103143750D01*
X150907000Y-104543750D02*
X150607000Y-104843750D01*
X150607000Y-104243750D02*
X150907000Y-104543750D01*
X160607000Y-90943750D02*
X160607000Y-95043750D01*
%TO.C,D12*%
X140875750Y-100000000D02*
X136975750Y-100000000D01*
X140875750Y-102000000D02*
X140875750Y-100000000D01*
X140875750Y-102000000D02*
X136975750Y-102000000D01*
%TO.C,D11*%
X157375750Y-80500000D02*
X153475750Y-80500000D01*
X157375750Y-82500000D02*
X157375750Y-80500000D01*
X157375750Y-82500000D02*
X153475750Y-82500000D01*
%TO.C,D10*%
X137668250Y-96626250D02*
X140948250Y-96626250D01*
X140252250Y-96626250D02*
X140252250Y-94786250D01*
X140948250Y-94786250D02*
X137668250Y-94786250D01*
X140492250Y-96626250D02*
X140492250Y-94786250D01*
X140372250Y-96626250D02*
X140372250Y-94786250D01*
X143398250Y-95706250D02*
X140948250Y-95706250D01*
X140948250Y-96626250D02*
X140948250Y-94786250D01*
X135218250Y-95706250D02*
X137668250Y-95706250D01*
X137668250Y-94786250D02*
X137668250Y-96626250D01*
%TO.C,D9*%
X153440000Y-77420000D02*
X156720000Y-77420000D01*
X156024000Y-77420000D02*
X156024000Y-75580000D01*
X156720000Y-75580000D02*
X153440000Y-75580000D01*
X156264000Y-77420000D02*
X156264000Y-75580000D01*
X156144000Y-77420000D02*
X156144000Y-75580000D01*
X159170000Y-76500000D02*
X156720000Y-76500000D01*
X156720000Y-77420000D02*
X156720000Y-75580000D01*
X150990000Y-76500000D02*
X153440000Y-76500000D01*
X153440000Y-75580000D02*
X153440000Y-77420000D01*
%TO.C,SW5*%
X157825750Y-63600000D02*
G75*
G03*
X157825750Y-63600000I-3000000J0D01*
G01*
X150725750Y-71400000D02*
X150725750Y-70800000D01*
X148925750Y-69700000D02*
X160725750Y-69700000D01*
X153525750Y-57500000D02*
X156125750Y-57500000D01*
X154825750Y-64100000D02*
X154825750Y-63100000D01*
X148925750Y-65600000D02*
X148925750Y-69700000D01*
X154325750Y-63600000D02*
X155325750Y-63600000D01*
X158325750Y-57500000D02*
X160725750Y-57500000D01*
X148925750Y-57500000D02*
X151325750Y-57500000D01*
X148925750Y-61600000D02*
X148925750Y-57500000D01*
X160725750Y-65600000D02*
X160725750Y-69700000D01*
X151025750Y-71100000D02*
X150725750Y-71400000D01*
X150725750Y-70800000D02*
X151025750Y-71100000D01*
X160725750Y-57500000D02*
X160725750Y-61600000D01*
D10*
%TO.C,T1*%
X144200000Y-152612500D02*
X149800000Y-152612500D01*
X149800000Y-150612500D02*
X149800000Y-152612500D01*
X144200000Y-150612500D02*
X144200000Y-152612500D01*
X150050000Y-150612500D02*
X150050000Y-138512500D01*
X143950000Y-150612500D02*
X143950000Y-138512500D01*
X143950000Y-138512500D02*
X150050000Y-138512500D01*
X143950000Y-150612500D02*
X150050000Y-150612500D01*
D11*
%TO.C,X1*%
X155670000Y-129500000D02*
X155670000Y-128170000D01*
X155670000Y-130770000D02*
X158330000Y-130770000D01*
X155670000Y-140990000D02*
X158330000Y-140990000D01*
X155670000Y-130770000D02*
X155670000Y-140990000D01*
X155670000Y-128170000D02*
X157000000Y-128170000D01*
X158330000Y-130770000D02*
X158330000Y-140990000D01*
%TO.C,J3*%
X68724500Y-144923750D02*
X66064500Y-144923750D01*
X68724500Y-147523750D02*
X67394500Y-147523750D01*
X68724500Y-146193750D02*
X68724500Y-147523750D01*
X68724500Y-144923750D02*
X68724500Y-116923750D01*
X68724500Y-116923750D02*
X66064500Y-116923750D01*
X66064500Y-144923750D02*
X66064500Y-116923750D01*
%TO.C,J2*%
X68724500Y-112533750D02*
X68724500Y-113863750D01*
X68724500Y-111263750D02*
X66064500Y-111263750D01*
X68724500Y-101043750D02*
X66064500Y-101043750D01*
X68724500Y-111263750D02*
X68724500Y-101043750D01*
X68724500Y-113863750D02*
X67394500Y-113863750D01*
X66064500Y-111263750D02*
X66064500Y-101043750D01*
%TO.C,J1*%
X132850000Y-149330000D02*
X104850000Y-149330000D01*
X104850000Y-146670000D02*
X104850000Y-149330000D01*
X132850000Y-146670000D02*
X104850000Y-146670000D01*
X134120000Y-146670000D02*
X135450000Y-146670000D01*
X135450000Y-146670000D02*
X135450000Y-148000000D01*
X132850000Y-146670000D02*
X132850000Y-149330000D01*
%TO.C,SW4*%
X87382000Y-56956250D02*
X87382000Y-70956250D01*
X87382000Y-56956250D02*
X101382000Y-56956250D01*
X101382000Y-56956250D02*
X101382000Y-70956250D01*
X101382000Y-70956250D02*
X87382000Y-70956250D01*
%TO.C,D8*%
X91940000Y-77420000D02*
X95220000Y-77420000D01*
X94524000Y-77420000D02*
X94524000Y-75580000D01*
X95220000Y-75580000D02*
X91940000Y-75580000D01*
X94764000Y-77420000D02*
X94764000Y-75580000D01*
X94644000Y-77420000D02*
X94644000Y-75580000D01*
X97670000Y-76500000D02*
X95220000Y-76500000D01*
X95220000Y-77420000D02*
X95220000Y-75580000D01*
X89490000Y-76500000D02*
X91940000Y-76500000D01*
X91940000Y-75580000D02*
X91940000Y-77420000D01*
%TO.C,D7*%
X72860000Y-75580000D02*
X72860000Y-77420000D01*
X70410000Y-76500000D02*
X72860000Y-76500000D01*
X76140000Y-77420000D02*
X76140000Y-75580000D01*
X78590000Y-76500000D02*
X76140000Y-76500000D01*
X75564000Y-77420000D02*
X75564000Y-75580000D01*
X75684000Y-77420000D02*
X75684000Y-75580000D01*
X76140000Y-75580000D02*
X72860000Y-75580000D01*
X75444000Y-77420000D02*
X75444000Y-75580000D01*
X72860000Y-77420000D02*
X76140000Y-77420000D01*
%TO.C,D6*%
X129940000Y-75580000D02*
X129940000Y-77420000D01*
X127490000Y-76500000D02*
X129940000Y-76500000D01*
X133220000Y-77420000D02*
X133220000Y-75580000D01*
X135670000Y-76500000D02*
X133220000Y-76500000D01*
X132644000Y-77420000D02*
X132644000Y-75580000D01*
X132764000Y-77420000D02*
X132764000Y-75580000D01*
X133220000Y-75580000D02*
X129940000Y-75580000D01*
X132524000Y-77420000D02*
X132524000Y-75580000D01*
X129940000Y-77420000D02*
X133220000Y-77420000D01*
%TO.C,D5*%
X110860000Y-77420000D02*
X114140000Y-77420000D01*
X113444000Y-77420000D02*
X113444000Y-75580000D01*
X114140000Y-75580000D02*
X110860000Y-75580000D01*
X113684000Y-77420000D02*
X113684000Y-75580000D01*
X113564000Y-77420000D02*
X113564000Y-75580000D01*
X116590000Y-76500000D02*
X114140000Y-76500000D01*
X114140000Y-77420000D02*
X114140000Y-75580000D01*
X108410000Y-76500000D02*
X110860000Y-76500000D01*
X110860000Y-75580000D02*
X110860000Y-77420000D01*
D12*
%TO.C,U1*%
X98850000Y-147458750D02*
X101390000Y-147458750D01*
X101390000Y-149998750D02*
X101390000Y-147458750D01*
X83610000Y-149998750D02*
X101390000Y-149998750D01*
X83610000Y-147458750D02*
X83610000Y-149998750D01*
G36*
X87668432Y-140979390D02*
G01*
X87568432Y-140979390D01*
X87568432Y-140779390D01*
X87668432Y-140779390D01*
X87668432Y-140979390D01*
G37*
D10*
X87668432Y-140979390D02*
X87568432Y-140979390D01*
X87568432Y-140779390D01*
X87668432Y-140779390D01*
X87668432Y-140979390D01*
G36*
X88068432Y-141579390D02*
G01*
X87968432Y-141579390D01*
X87968432Y-140779390D01*
X88068432Y-140779390D01*
X88068432Y-141579390D01*
G37*
X88068432Y-141579390D02*
X87968432Y-141579390D01*
X87968432Y-140779390D01*
X88068432Y-140779390D01*
X88068432Y-141579390D01*
G36*
X88068432Y-141579390D02*
G01*
X87568432Y-141579390D01*
X87568432Y-141479390D01*
X88068432Y-141479390D01*
X88068432Y-141579390D01*
G37*
X88068432Y-141579390D02*
X87568432Y-141579390D01*
X87568432Y-141479390D01*
X88068432Y-141479390D01*
X88068432Y-141579390D01*
G36*
X87868432Y-141179390D02*
G01*
X87768432Y-141179390D01*
X87768432Y-141079390D01*
X87868432Y-141079390D01*
X87868432Y-141179390D01*
G37*
X87868432Y-141179390D02*
X87768432Y-141179390D01*
X87768432Y-141079390D01*
X87868432Y-141079390D01*
X87868432Y-141179390D01*
G36*
X87668432Y-141579390D02*
G01*
X87568432Y-141579390D01*
X87568432Y-141279390D01*
X87668432Y-141279390D01*
X87668432Y-141579390D01*
G37*
X87668432Y-141579390D02*
X87568432Y-141579390D01*
X87568432Y-141279390D01*
X87668432Y-141279390D01*
X87668432Y-141579390D01*
D12*
X98850000Y-144918750D02*
X101390000Y-144918750D01*
X98850000Y-147458750D02*
X98850000Y-144918750D01*
X83610000Y-116978750D02*
X83610000Y-147458750D01*
X101390000Y-116978750D02*
X83610000Y-116978750D01*
X101390000Y-147458750D02*
X101390000Y-116978750D01*
D11*
%TO.C,SW3*%
X82332000Y-70956250D02*
X68332000Y-70956250D01*
X82332000Y-56956250D02*
X82332000Y-70956250D01*
X68332000Y-56956250D02*
X82332000Y-56956250D01*
X68332000Y-56956250D02*
X68332000Y-70956250D01*
%TO.C,SW2*%
X125482000Y-56956250D02*
X125482000Y-70956250D01*
X125482000Y-56956250D02*
X139482000Y-56956250D01*
X139482000Y-56956250D02*
X139482000Y-70956250D01*
X139482000Y-70956250D02*
X125482000Y-70956250D01*
%TO.C,D4*%
X95700750Y-82500000D02*
X91800750Y-82500000D01*
X95700750Y-82500000D02*
X95700750Y-80500000D01*
X95700750Y-80500000D02*
X91800750Y-80500000D01*
%TO.C,D3*%
X76788250Y-80418750D02*
X72888250Y-80418750D01*
X76788250Y-82418750D02*
X76788250Y-80418750D01*
X76788250Y-82418750D02*
X72888250Y-82418750D01*
%TO.C,D2*%
X133875750Y-82500000D02*
X129975750Y-82500000D01*
X133875750Y-82500000D02*
X133875750Y-80500000D01*
X133875750Y-80500000D02*
X129975750Y-80500000D01*
%TO.C,D1*%
X114800000Y-80500000D02*
X110900000Y-80500000D01*
X114800000Y-82500000D02*
X114800000Y-80500000D01*
X114800000Y-82500000D02*
X110900000Y-82500000D01*
%TD*%
D13*
%TO.C,U1*%
X97580000Y-118020150D03*
X95040000Y-118477350D03*
X92500000Y-118020150D03*
X89960000Y-118477350D03*
X87420000Y-118020150D03*
X84651400Y-146188750D03*
X99891400Y-118248750D03*
X85108600Y-143648750D03*
X84651400Y-141108750D03*
X85108600Y-138568750D03*
X84651400Y-136028750D03*
X85108600Y-133488750D03*
X84651400Y-130948750D03*
X85108600Y-128408750D03*
X84651400Y-125868750D03*
X85108600Y-123328750D03*
X84651400Y-120788750D03*
X85108600Y-118248750D03*
X100348600Y-120788750D03*
X99891400Y-123328750D03*
X100348600Y-125868750D03*
X99891400Y-128408750D03*
X100348600Y-130948750D03*
X99891400Y-133488750D03*
X100348600Y-136028750D03*
X99891400Y-138568750D03*
X100348600Y-141108750D03*
X99891400Y-143648750D03*
D14*
X100348600Y-146188750D03*
%TD*%
M02*
