M48
; DRILL file {KiCad (6.0.10)} date Wed Jan 18 22:34:33 2023
; FORMAT={-:-/ absolute / inch / decimal}
; #@! TF.CreationDate,2023-01-18T22:34:33-08:00
; #@! TF.GenerationSoftware,Kicad,Pcbnew,(6.0.10)
; #@! TF.FileFunction,Plated,1,2,PTH
FMAT,2
INCH
; #@! TA.AperFunction,Plated,PTH,ViaDrill
T1C0.0157
; #@! TA.AperFunction,Plated,PTH,ComponentDrill
T2C0.0276
; #@! TA.AperFunction,Plated,PTH,ComponentDrill
T3C0.0295
; #@! TA.AperFunction,Plated,PTH,ComponentDrill
T4C0.0354
; #@! TA.AperFunction,Plated,PTH,ComponentDrill
T5C0.0394
; #@! TA.AperFunction,Plated,PTH,ComponentDrill
T6C0.0430
; #@! TA.AperFunction,Plated,PTH,ComponentDrill
T7C0.0591
%
G90
G05
T1
X3.3858Y-3.563
X3.6614Y-3.9764
X3.7598Y-3.3465
X3.7598Y-4.311
X4.1142Y-2.9921
X5.2559Y-3.563
X5.689Y-3.2874
X5.9843Y-4.311
X6.378Y-2.8937
T2
X5.6295Y-5.0
X5.6295Y-5.2362
X5.9295Y-5.0
X5.9295Y-5.2362
T3
X2.7331Y-3.0118
X3.1331Y-3.0118
X3.4843Y-3.0118
X3.8843Y-3.0118
X4.2291Y-3.0118
X4.6291Y-3.0118
X4.9803Y-3.0118
X5.2846Y-3.768
X5.3803Y-3.0118
X5.6846Y-3.768
X5.9055Y-3.0118
X6.3055Y-3.0118
T5
X2.6533Y-4.0305
X2.6533Y-4.1305
X2.6533Y-4.2305
X2.6533Y-4.3305
X2.6533Y-4.4305
X2.6533Y-4.6557
X2.6533Y-4.7557
X2.6533Y-4.8557
X2.6533Y-4.9557
X2.6533Y-5.0557
X2.6533Y-5.1557
X2.6533Y-5.2557
X2.6533Y-5.3557
X2.6533Y-5.4557
X2.6533Y-5.5557
X2.6533Y-5.6557
X2.6533Y-5.7557
X4.1803Y-5.8268
X4.2803Y-5.8268
X4.3803Y-5.8268
X4.4803Y-5.8268
X4.5803Y-5.8268
X4.6803Y-5.8268
X4.7803Y-5.8268
X4.8803Y-5.8268
X4.9803Y-5.8268
X5.0803Y-5.8268
X5.1803Y-5.8268
X5.2803Y-5.8268
X5.9924Y-3.545
X5.9924Y-4.1159
X5.9971Y-2.2283
X5.9971Y-2.7992
X6.0908Y-4.1159
X6.0955Y-2.7992
X6.1811Y-5.0984
X6.1811Y-5.1984
X6.1811Y-5.2984
X6.1811Y-5.3984
X6.1811Y-5.4984
X6.1893Y-3.545
X6.1893Y-4.1159
X6.1939Y-2.2283
X6.1939Y-2.7992
T6
X3.3327Y-4.7555
X3.3327Y-4.9555
X3.3327Y-5.1555
X3.3327Y-5.3555
X3.3327Y-5.5555
X3.3327Y-5.7555
X3.3507Y-4.6555
X3.3507Y-4.8555
X3.3507Y-5.0555
X3.3507Y-5.2555
X3.3507Y-5.4555
X3.3507Y-5.6555
X3.4417Y-4.6465
X3.5417Y-4.6645
X3.6417Y-4.6465
X3.7417Y-4.6645
X3.8417Y-4.6465
X3.9327Y-4.6555
X3.9327Y-4.8555
X3.9327Y-5.0555
X3.9327Y-5.2555
X3.9327Y-5.4555
X3.9327Y-5.6555
X3.9507Y-4.7555
X3.9507Y-4.9555
X3.9507Y-5.1555
X3.9507Y-5.3555
X3.9507Y-5.5555
X3.9507Y-5.7555
T7
X2.8158Y-2.418
X3.0658Y-2.318
X3.5658Y-2.418
X3.8158Y-2.318
X4.3158Y-2.418
X4.5658Y-2.318
X5.0658Y-2.418
X5.3158Y-2.318
T4
G00X5.6969Y-5.5359
M15
G01X5.6969Y-5.5202
M16
G05
G00X5.6969Y-5.6934
M15
G01X5.6969Y-5.6777
M16
G05
G00X5.6969Y-5.8115
M15
G01X5.6969Y-5.7958
M16
G05
G00X5.878Y-5.4926
M15
G01X5.878Y-5.4769
M16
G05
T7
G00X5.8704Y-3.8462
M15
G01X5.8704Y-3.795
M16
G05
G00X5.875Y-2.5295
M15
G01X5.875Y-2.4783
M16
G05
G00X6.3113Y-3.8462
M15
G01X6.3113Y-3.795
M16
G05
G00X6.316Y-2.5295
M15
G01X6.316Y-2.4783
M16
G05
T0
M30
