%TF.GenerationSoftware,KiCad,Pcbnew,(6.0.10)*%
%TF.CreationDate,2023-01-18T22:34:27-08:00*%
%TF.ProjectId,shitpad,73686974-7061-4642-9e6b-696361645f70,rev?*%
%TF.SameCoordinates,Original*%
%TF.FileFunction,Legend,Bot*%
%TF.FilePolarity,Positive*%
%FSLAX46Y46*%
G04 Gerber Fmt 4.6, Leading zero omitted, Abs format (unit mm)*
G04 Created by KiCad (PCBNEW (6.0.10)) date 2023-01-18 22:34:27*
%MOMM*%
%LPD*%
G01*
G04 APERTURE LIST*
%ADD10C,0.150000*%
%ADD11C,0.381000*%
%ADD12C,1.752600*%
%ADD13R,1.752600X1.752600*%
G04 APERTURE END LIST*
D10*
%TO.C,U1*%
X95630476Y-120180654D02*
X95630476Y-119380654D01*
X95440000Y-119380654D01*
X95325714Y-119418750D01*
X95249523Y-119494940D01*
X95211428Y-119571130D01*
X95173333Y-119723511D01*
X95173333Y-119837797D01*
X95211428Y-119990178D01*
X95249523Y-120066369D01*
X95325714Y-120142559D01*
X95440000Y-120180654D01*
X95630476Y-120180654D01*
X94449523Y-119380654D02*
X94830476Y-119380654D01*
X94868571Y-119761607D01*
X94830476Y-119723511D01*
X94754285Y-119685416D01*
X94563809Y-119685416D01*
X94487619Y-119723511D01*
X94449523Y-119761607D01*
X94411428Y-119837797D01*
X94411428Y-120028273D01*
X94449523Y-120104464D01*
X94487619Y-120142559D01*
X94563809Y-120180654D01*
X94754285Y-120180654D01*
X94830476Y-120142559D01*
X94868571Y-120104464D01*
X90226666Y-119761607D02*
X90493333Y-119761607D01*
X90493333Y-120180654D02*
X90493333Y-119380654D01*
X90112380Y-119380654D01*
X89388571Y-120180654D02*
X89845714Y-120180654D01*
X89617142Y-120180654D02*
X89617142Y-119380654D01*
X89693333Y-119494940D01*
X89769523Y-119571130D01*
X89845714Y-119609226D01*
X92633333Y-120104464D02*
X92671428Y-120142559D01*
X92785714Y-120180654D01*
X92861904Y-120180654D01*
X92976190Y-120142559D01*
X93052380Y-120066369D01*
X93090476Y-119990178D01*
X93128571Y-119837797D01*
X93128571Y-119723511D01*
X93090476Y-119571130D01*
X93052380Y-119494940D01*
X92976190Y-119418750D01*
X92861904Y-119380654D01*
X92785714Y-119380654D01*
X92671428Y-119418750D01*
X92633333Y-119456845D01*
X92366666Y-119380654D02*
X91833333Y-119380654D01*
X92176190Y-120180654D01*
X85935008Y-119754452D02*
X85982148Y-119660171D01*
X85982148Y-119613030D01*
X85958578Y-119542320D01*
X85887867Y-119471609D01*
X85817157Y-119448039D01*
X85770016Y-119448039D01*
X85699306Y-119471609D01*
X85510744Y-119660171D01*
X86005719Y-120155146D01*
X86170710Y-119990154D01*
X86194280Y-119919443D01*
X86194280Y-119872303D01*
X86170710Y-119801592D01*
X86123570Y-119754452D01*
X86052859Y-119730882D01*
X86005719Y-119730882D01*
X85935008Y-119754452D01*
X85770016Y-119919443D01*
X86712825Y-119448039D02*
X86618544Y-119542320D01*
X86547834Y-119565890D01*
X86500693Y-119565890D01*
X86382842Y-119542320D01*
X86264991Y-119471609D01*
X86076429Y-119283047D01*
X86052859Y-119212337D01*
X86052859Y-119165196D01*
X86076429Y-119094485D01*
X86170710Y-119000205D01*
X86241421Y-118976634D01*
X86288561Y-118976634D01*
X86359272Y-119000205D01*
X86477123Y-119118056D01*
X86500693Y-119188766D01*
X86500693Y-119235907D01*
X86477123Y-119306617D01*
X86382842Y-119400898D01*
X86312132Y-119424469D01*
X86264991Y-119424469D01*
X86194280Y-119400898D01*
X88233333Y-119568750D02*
X88466666Y-119568750D01*
X88466666Y-119935416D02*
X88466666Y-119235416D01*
X88133333Y-119235416D01*
X87733333Y-119235416D02*
X87666666Y-119235416D01*
X87600000Y-119268750D01*
X87566666Y-119302083D01*
X87533333Y-119368750D01*
X87500000Y-119502083D01*
X87500000Y-119668750D01*
X87533333Y-119802083D01*
X87566666Y-119868750D01*
X87600000Y-119902083D01*
X87666666Y-119935416D01*
X87733333Y-119935416D01*
X87800000Y-119902083D01*
X87833333Y-119868750D01*
X87866666Y-119802083D01*
X87900000Y-119668750D01*
X87900000Y-119502083D01*
X87866666Y-119368750D01*
X87833333Y-119302083D01*
X87800000Y-119268750D01*
X87733333Y-119235416D01*
X97283333Y-119568750D02*
X97183333Y-119602083D01*
X97150000Y-119635416D01*
X97116666Y-119702083D01*
X97116666Y-119802083D01*
X97150000Y-119868750D01*
X97183333Y-119902083D01*
X97250000Y-119935416D01*
X97516666Y-119935416D01*
X97516666Y-119235416D01*
X97283333Y-119235416D01*
X97216666Y-119268750D01*
X97183333Y-119302083D01*
X97150000Y-119368750D01*
X97150000Y-119435416D01*
X97183333Y-119502083D01*
X97216666Y-119535416D01*
X97283333Y-119568750D01*
X97516666Y-119568750D01*
X96883333Y-119235416D02*
X96416666Y-119235416D01*
X96716666Y-119935416D01*
X87993333Y-141452559D02*
X87879047Y-141490654D01*
X87688571Y-141490654D01*
X87612380Y-141452559D01*
X87574285Y-141414464D01*
X87536190Y-141338273D01*
X87536190Y-141262083D01*
X87574285Y-141185892D01*
X87612380Y-141147797D01*
X87688571Y-141109702D01*
X87840952Y-141071607D01*
X87917142Y-141033511D01*
X87955238Y-140995416D01*
X87993333Y-140919226D01*
X87993333Y-140843035D01*
X87955238Y-140766845D01*
X87917142Y-140728750D01*
X87840952Y-140690654D01*
X87650476Y-140690654D01*
X87536190Y-140728750D01*
X87307619Y-140690654D02*
X86850476Y-140690654D01*
X87079047Y-141490654D02*
X87079047Y-140690654D01*
X98262348Y-145750654D02*
X97805205Y-145750654D01*
X98033776Y-146550654D02*
X98033776Y-145750654D01*
X97614729Y-145750654D02*
X97081395Y-146550654D01*
X97081395Y-145750654D02*
X97614729Y-146550654D01*
X96624252Y-145750654D02*
X96548062Y-145750654D01*
X96471872Y-145788750D01*
X96433776Y-145826845D01*
X96395681Y-145903035D01*
X96357586Y-146055416D01*
X96357586Y-146245892D01*
X96395681Y-146398273D01*
X96433776Y-146474464D01*
X96471872Y-146512559D01*
X96548062Y-146550654D01*
X96624252Y-146550654D01*
X96700443Y-146512559D01*
X96738538Y-146474464D01*
X96776633Y-146398273D01*
X96814729Y-146245892D01*
X96814729Y-146055416D01*
X96776633Y-145903035D01*
X96738538Y-145826845D01*
X96700443Y-145788750D01*
X96624252Y-145750654D01*
X95443300Y-145712559D02*
X96129014Y-146741130D01*
X95176633Y-146550654D02*
X95176633Y-145750654D01*
X94986157Y-145750654D01*
X94871872Y-145788750D01*
X94795681Y-145864940D01*
X94757586Y-145941130D01*
X94719491Y-146093511D01*
X94719491Y-146207797D01*
X94757586Y-146360178D01*
X94795681Y-146436369D01*
X94871872Y-146512559D01*
X94986157Y-146550654D01*
X95176633Y-146550654D01*
X94452824Y-145750654D02*
X93957586Y-145750654D01*
X94224252Y-146055416D01*
X94109967Y-146055416D01*
X94033776Y-146093511D01*
X93995681Y-146131607D01*
X93957586Y-146207797D01*
X93957586Y-146398273D01*
X93995681Y-146474464D01*
X94033776Y-146512559D01*
X94109967Y-146550654D01*
X94338538Y-146550654D01*
X94414729Y-146512559D01*
X94452824Y-146474464D01*
X87362809Y-120731607D02*
X87248523Y-120769702D01*
X87210428Y-120807797D01*
X87172333Y-120883988D01*
X87172333Y-120998273D01*
X87210428Y-121074464D01*
X87248523Y-121112559D01*
X87324714Y-121150654D01*
X87629476Y-121150654D01*
X87629476Y-120350654D01*
X87362809Y-120350654D01*
X87286619Y-120388750D01*
X87248523Y-120426845D01*
X87210428Y-120503035D01*
X87210428Y-120579226D01*
X87248523Y-120655416D01*
X87286619Y-120693511D01*
X87362809Y-120731607D01*
X87629476Y-120731607D01*
X86867571Y-120426845D02*
X86829476Y-120388750D01*
X86753285Y-120350654D01*
X86562809Y-120350654D01*
X86486619Y-120388750D01*
X86448523Y-120426845D01*
X86410428Y-120503035D01*
X86410428Y-120579226D01*
X86448523Y-120693511D01*
X86905666Y-121150654D01*
X86410428Y-121150654D01*
X87305666Y-128351607D02*
X87572333Y-128351607D01*
X87572333Y-128770654D02*
X87572333Y-127970654D01*
X87191380Y-127970654D01*
X86962809Y-127970654D02*
X86429476Y-127970654D01*
X86772333Y-128770654D01*
X87305666Y-130891607D02*
X87572333Y-130891607D01*
X87572333Y-131310654D02*
X87572333Y-130510654D01*
X87191380Y-130510654D01*
X86543761Y-130510654D02*
X86696142Y-130510654D01*
X86772333Y-130548750D01*
X86810428Y-130586845D01*
X86886619Y-130701130D01*
X86924714Y-130853511D01*
X86924714Y-131158273D01*
X86886619Y-131234464D01*
X86848523Y-131272559D01*
X86772333Y-131310654D01*
X86619952Y-131310654D01*
X86543761Y-131272559D01*
X86505666Y-131234464D01*
X86467571Y-131158273D01*
X86467571Y-130967797D01*
X86505666Y-130891607D01*
X86543761Y-130853511D01*
X86619952Y-130815416D01*
X86772333Y-130815416D01*
X86848523Y-130853511D01*
X86886619Y-130891607D01*
X86924714Y-130967797D01*
X87305666Y-133431607D02*
X87572333Y-133431607D01*
X87572333Y-133850654D02*
X87572333Y-133050654D01*
X87191380Y-133050654D01*
X86505666Y-133050654D02*
X86886619Y-133050654D01*
X86924714Y-133431607D01*
X86886619Y-133393511D01*
X86810428Y-133355416D01*
X86619952Y-133355416D01*
X86543761Y-133393511D01*
X86505666Y-133431607D01*
X86467571Y-133507797D01*
X86467571Y-133698273D01*
X86505666Y-133774464D01*
X86543761Y-133812559D01*
X86619952Y-133850654D01*
X86810428Y-133850654D01*
X86886619Y-133812559D01*
X86924714Y-133774464D01*
X87362809Y-146131607D02*
X87248523Y-146169702D01*
X87210428Y-146207797D01*
X87172333Y-146283988D01*
X87172333Y-146398273D01*
X87210428Y-146474464D01*
X87248523Y-146512559D01*
X87324714Y-146550654D01*
X87629476Y-146550654D01*
X87629476Y-145750654D01*
X87362809Y-145750654D01*
X87286619Y-145788750D01*
X87248523Y-145826845D01*
X87210428Y-145903035D01*
X87210428Y-145979226D01*
X87248523Y-146055416D01*
X87286619Y-146093511D01*
X87362809Y-146131607D01*
X87629476Y-146131607D01*
X86677095Y-145750654D02*
X86600904Y-145750654D01*
X86524714Y-145788750D01*
X86486619Y-145826845D01*
X86448523Y-145903035D01*
X86410428Y-146055416D01*
X86410428Y-146245892D01*
X86448523Y-146398273D01*
X86486619Y-146474464D01*
X86524714Y-146512559D01*
X86600904Y-146550654D01*
X86677095Y-146550654D01*
X86753285Y-146512559D01*
X86791380Y-146474464D01*
X86829476Y-146398273D01*
X86867571Y-146245892D01*
X86867571Y-146055416D01*
X86829476Y-145903035D01*
X86791380Y-145826845D01*
X86753285Y-145788750D01*
X86677095Y-145750654D01*
X87648523Y-143248750D02*
X87724714Y-143210654D01*
X87839000Y-143210654D01*
X87953285Y-143248750D01*
X88029476Y-143324940D01*
X88067571Y-143401130D01*
X88105666Y-143553511D01*
X88105666Y-143667797D01*
X88067571Y-143820178D01*
X88029476Y-143896369D01*
X87953285Y-143972559D01*
X87839000Y-144010654D01*
X87762809Y-144010654D01*
X87648523Y-143972559D01*
X87610428Y-143934464D01*
X87610428Y-143667797D01*
X87762809Y-143667797D01*
X87267571Y-144010654D02*
X87267571Y-143210654D01*
X86810428Y-144010654D01*
X86810428Y-143210654D01*
X86429476Y-144010654D02*
X86429476Y-143210654D01*
X86239000Y-143210654D01*
X86124714Y-143248750D01*
X86048523Y-143324940D01*
X86010428Y-143401130D01*
X85972333Y-143553511D01*
X85972333Y-143667797D01*
X86010428Y-143820178D01*
X86048523Y-143896369D01*
X86124714Y-143972559D01*
X86239000Y-144010654D01*
X86429476Y-144010654D01*
X88105666Y-138130654D02*
X87839000Y-138930654D01*
X87572333Y-138130654D01*
X86848523Y-138854464D02*
X86886619Y-138892559D01*
X87000904Y-138930654D01*
X87077095Y-138930654D01*
X87191380Y-138892559D01*
X87267571Y-138816369D01*
X87305666Y-138740178D01*
X87343761Y-138587797D01*
X87343761Y-138473511D01*
X87305666Y-138321130D01*
X87267571Y-138244940D01*
X87191380Y-138168750D01*
X87077095Y-138130654D01*
X87000904Y-138130654D01*
X86886619Y-138168750D01*
X86848523Y-138206845D01*
X86048523Y-138854464D02*
X86086619Y-138892559D01*
X86200904Y-138930654D01*
X86277095Y-138930654D01*
X86391380Y-138892559D01*
X86467571Y-138816369D01*
X86505666Y-138740178D01*
X86543761Y-138587797D01*
X86543761Y-138473511D01*
X86505666Y-138321130D01*
X86467571Y-138244940D01*
X86391380Y-138168750D01*
X86277095Y-138130654D01*
X86200904Y-138130654D01*
X86086619Y-138168750D01*
X86048523Y-138206845D01*
X87305666Y-135971607D02*
X87572333Y-135971607D01*
X87572333Y-136390654D02*
X87572333Y-135590654D01*
X87191380Y-135590654D01*
X86543761Y-135857321D02*
X86543761Y-136390654D01*
X86734238Y-135552559D02*
X86924714Y-136123988D01*
X86429476Y-136123988D01*
X87362809Y-125811607D02*
X87248523Y-125849702D01*
X87210428Y-125887797D01*
X87172333Y-125963988D01*
X87172333Y-126078273D01*
X87210428Y-126154464D01*
X87248523Y-126192559D01*
X87324714Y-126230654D01*
X87629476Y-126230654D01*
X87629476Y-125430654D01*
X87362809Y-125430654D01*
X87286619Y-125468750D01*
X87248523Y-125506845D01*
X87210428Y-125583035D01*
X87210428Y-125659226D01*
X87248523Y-125735416D01*
X87286619Y-125773511D01*
X87362809Y-125811607D01*
X87629476Y-125811607D01*
X86410428Y-126230654D02*
X86867571Y-126230654D01*
X86639000Y-126230654D02*
X86639000Y-125430654D01*
X86715190Y-125544940D01*
X86791380Y-125621130D01*
X86867571Y-125659226D01*
X87362809Y-123271607D02*
X87248523Y-123309702D01*
X87210428Y-123347797D01*
X87172333Y-123423988D01*
X87172333Y-123538273D01*
X87210428Y-123614464D01*
X87248523Y-123652559D01*
X87324714Y-123690654D01*
X87629476Y-123690654D01*
X87629476Y-122890654D01*
X87362809Y-122890654D01*
X87286619Y-122928750D01*
X87248523Y-122966845D01*
X87210428Y-123043035D01*
X87210428Y-123119226D01*
X87248523Y-123195416D01*
X87286619Y-123233511D01*
X87362809Y-123271607D01*
X87629476Y-123271607D01*
X86905666Y-122890654D02*
X86410428Y-122890654D01*
X86677095Y-123195416D01*
X86562809Y-123195416D01*
X86486619Y-123233511D01*
X86448523Y-123271607D01*
X86410428Y-123347797D01*
X86410428Y-123538273D01*
X86448523Y-123614464D01*
X86486619Y-123652559D01*
X86562809Y-123690654D01*
X86791380Y-123690654D01*
X86867571Y-123652559D01*
X86905666Y-123614464D01*
X98664297Y-119353758D02*
X98758578Y-119400898D01*
X98805719Y-119400898D01*
X98876429Y-119377328D01*
X98947140Y-119306617D01*
X98970710Y-119235907D01*
X98970710Y-119188766D01*
X98947140Y-119118056D01*
X98758578Y-118929494D01*
X98263603Y-119424469D01*
X98428595Y-119589460D01*
X98499306Y-119613030D01*
X98546446Y-119613030D01*
X98617157Y-119589460D01*
X98664297Y-119542320D01*
X98687867Y-119471609D01*
X98687867Y-119424469D01*
X98664297Y-119353758D01*
X98499306Y-119188766D01*
X98994280Y-120155146D02*
X98758578Y-119919443D01*
X98970710Y-119660171D01*
X98970710Y-119707311D01*
X98994280Y-119778022D01*
X99112132Y-119895873D01*
X99182842Y-119919443D01*
X99229983Y-119919443D01*
X99300693Y-119895873D01*
X99418544Y-119778022D01*
X99442115Y-119707311D01*
X99442115Y-119660171D01*
X99418544Y-119589460D01*
X99300693Y-119471609D01*
X99229983Y-119448039D01*
X99182842Y-119448039D01*
X98284809Y-120731607D02*
X98170523Y-120769702D01*
X98132428Y-120807797D01*
X98094333Y-120883988D01*
X98094333Y-120998273D01*
X98132428Y-121074464D01*
X98170523Y-121112559D01*
X98246714Y-121150654D01*
X98551476Y-121150654D01*
X98551476Y-120350654D01*
X98284809Y-120350654D01*
X98208619Y-120388750D01*
X98170523Y-120426845D01*
X98132428Y-120503035D01*
X98132428Y-120579226D01*
X98170523Y-120655416D01*
X98208619Y-120693511D01*
X98284809Y-120731607D01*
X98551476Y-120731607D01*
X97408619Y-120617321D02*
X97408619Y-121150654D01*
X97599095Y-120312559D02*
X97789571Y-120883988D01*
X97294333Y-120883988D01*
X98513380Y-123271607D02*
X98246714Y-123271607D01*
X98132428Y-123690654D02*
X98513380Y-123690654D01*
X98513380Y-122890654D01*
X98132428Y-122890654D01*
X97446714Y-122890654D02*
X97599095Y-122890654D01*
X97675285Y-122928750D01*
X97713380Y-122966845D01*
X97789571Y-123081130D01*
X97827666Y-123233511D01*
X97827666Y-123538273D01*
X97789571Y-123614464D01*
X97751476Y-123652559D01*
X97675285Y-123690654D01*
X97522904Y-123690654D01*
X97446714Y-123652559D01*
X97408619Y-123614464D01*
X97370523Y-123538273D01*
X97370523Y-123347797D01*
X97408619Y-123271607D01*
X97446714Y-123233511D01*
X97522904Y-123195416D01*
X97675285Y-123195416D01*
X97751476Y-123233511D01*
X97789571Y-123271607D01*
X97827666Y-123347797D01*
X98551476Y-126230654D02*
X98551476Y-125430654D01*
X98361000Y-125430654D01*
X98246714Y-125468750D01*
X98170523Y-125544940D01*
X98132428Y-125621130D01*
X98094333Y-125773511D01*
X98094333Y-125887797D01*
X98132428Y-126040178D01*
X98170523Y-126116369D01*
X98246714Y-126192559D01*
X98361000Y-126230654D01*
X98551476Y-126230654D01*
X97827666Y-125430654D02*
X97294333Y-125430654D01*
X97637190Y-126230654D01*
X98094333Y-128694464D02*
X98132428Y-128732559D01*
X98246714Y-128770654D01*
X98322904Y-128770654D01*
X98437190Y-128732559D01*
X98513380Y-128656369D01*
X98551476Y-128580178D01*
X98589571Y-128427797D01*
X98589571Y-128313511D01*
X98551476Y-128161130D01*
X98513380Y-128084940D01*
X98437190Y-128008750D01*
X98322904Y-127970654D01*
X98246714Y-127970654D01*
X98132428Y-128008750D01*
X98094333Y-128046845D01*
X97408619Y-127970654D02*
X97561000Y-127970654D01*
X97637190Y-128008750D01*
X97675285Y-128046845D01*
X97751476Y-128161130D01*
X97789571Y-128313511D01*
X97789571Y-128618273D01*
X97751476Y-128694464D01*
X97713380Y-128732559D01*
X97637190Y-128770654D01*
X97484809Y-128770654D01*
X97408619Y-128732559D01*
X97370523Y-128694464D01*
X97332428Y-128618273D01*
X97332428Y-128427797D01*
X97370523Y-128351607D01*
X97408619Y-128313511D01*
X97484809Y-128275416D01*
X97637190Y-128275416D01*
X97713380Y-128313511D01*
X97751476Y-128351607D01*
X97789571Y-128427797D01*
X98551476Y-131310654D02*
X98551476Y-130510654D01*
X98361000Y-130510654D01*
X98246714Y-130548750D01*
X98170523Y-130624940D01*
X98132428Y-130701130D01*
X98094333Y-130853511D01*
X98094333Y-130967797D01*
X98132428Y-131120178D01*
X98170523Y-131196369D01*
X98246714Y-131272559D01*
X98361000Y-131310654D01*
X98551476Y-131310654D01*
X97408619Y-130777321D02*
X97408619Y-131310654D01*
X97599095Y-130472559D02*
X97789571Y-131043988D01*
X97294333Y-131043988D01*
X98570523Y-140708750D02*
X98646714Y-140670654D01*
X98761000Y-140670654D01*
X98875285Y-140708750D01*
X98951476Y-140784940D01*
X98989571Y-140861130D01*
X99027666Y-141013511D01*
X99027666Y-141127797D01*
X98989571Y-141280178D01*
X98951476Y-141356369D01*
X98875285Y-141432559D01*
X98761000Y-141470654D01*
X98684809Y-141470654D01*
X98570523Y-141432559D01*
X98532428Y-141394464D01*
X98532428Y-141127797D01*
X98684809Y-141127797D01*
X98189571Y-141470654D02*
X98189571Y-140670654D01*
X97732428Y-141470654D01*
X97732428Y-140670654D01*
X97351476Y-141470654D02*
X97351476Y-140670654D01*
X97161000Y-140670654D01*
X97046714Y-140708750D01*
X96970523Y-140784940D01*
X96932428Y-140861130D01*
X96894333Y-141013511D01*
X96894333Y-141127797D01*
X96932428Y-141280178D01*
X96970523Y-141356369D01*
X97046714Y-141432559D01*
X97161000Y-141470654D01*
X97351476Y-141470654D01*
X98570523Y-138168750D02*
X98646714Y-138130654D01*
X98761000Y-138130654D01*
X98875285Y-138168750D01*
X98951476Y-138244940D01*
X98989571Y-138321130D01*
X99027666Y-138473511D01*
X99027666Y-138587797D01*
X98989571Y-138740178D01*
X98951476Y-138816369D01*
X98875285Y-138892559D01*
X98761000Y-138930654D01*
X98684809Y-138930654D01*
X98570523Y-138892559D01*
X98532428Y-138854464D01*
X98532428Y-138587797D01*
X98684809Y-138587797D01*
X98189571Y-138930654D02*
X98189571Y-138130654D01*
X97732428Y-138930654D01*
X97732428Y-138130654D01*
X97351476Y-138930654D02*
X97351476Y-138130654D01*
X97161000Y-138130654D01*
X97046714Y-138168750D01*
X96970523Y-138244940D01*
X96932428Y-138321130D01*
X96894333Y-138473511D01*
X96894333Y-138587797D01*
X96932428Y-138740178D01*
X96970523Y-138816369D01*
X97046714Y-138892559D01*
X97161000Y-138930654D01*
X97351476Y-138930654D01*
X98551476Y-136390654D02*
X98551476Y-135590654D01*
X98361000Y-135590654D01*
X98246714Y-135628750D01*
X98170523Y-135704940D01*
X98132428Y-135781130D01*
X98094333Y-135933511D01*
X98094333Y-136047797D01*
X98132428Y-136200178D01*
X98170523Y-136276369D01*
X98246714Y-136352559D01*
X98361000Y-136390654D01*
X98551476Y-136390654D01*
X97332428Y-136390654D02*
X97789571Y-136390654D01*
X97561000Y-136390654D02*
X97561000Y-135590654D01*
X97637190Y-135704940D01*
X97713380Y-135781130D01*
X97789571Y-135819226D01*
X98551476Y-133850654D02*
X98551476Y-133050654D01*
X98361000Y-133050654D01*
X98246714Y-133088750D01*
X98170523Y-133164940D01*
X98132428Y-133241130D01*
X98094333Y-133393511D01*
X98094333Y-133507797D01*
X98132428Y-133660178D01*
X98170523Y-133736369D01*
X98246714Y-133812559D01*
X98361000Y-133850654D01*
X98551476Y-133850654D01*
X97599095Y-133050654D02*
X97522904Y-133050654D01*
X97446714Y-133088750D01*
X97408619Y-133126845D01*
X97370523Y-133203035D01*
X97332428Y-133355416D01*
X97332428Y-133545892D01*
X97370523Y-133698273D01*
X97408619Y-133774464D01*
X97446714Y-133812559D01*
X97522904Y-133850654D01*
X97599095Y-133850654D01*
X97675285Y-133812559D01*
X97713380Y-133774464D01*
X97751476Y-133698273D01*
X97789571Y-133545892D01*
X97789571Y-133355416D01*
X97751476Y-133203035D01*
X97713380Y-133126845D01*
X97675285Y-133088750D01*
X97599095Y-133050654D01*
X98551476Y-144010654D02*
X98551476Y-143210654D01*
X98361000Y-143210654D01*
X98246714Y-143248750D01*
X98170523Y-143324940D01*
X98132428Y-143401130D01*
X98094333Y-143553511D01*
X98094333Y-143667797D01*
X98132428Y-143820178D01*
X98170523Y-143896369D01*
X98246714Y-143972559D01*
X98361000Y-144010654D01*
X98551476Y-144010654D01*
X97789571Y-143286845D02*
X97751476Y-143248750D01*
X97675285Y-143210654D01*
X97484809Y-143210654D01*
X97408619Y-143248750D01*
X97370523Y-143286845D01*
X97332428Y-143363035D01*
X97332428Y-143439226D01*
X97370523Y-143553511D01*
X97827666Y-144010654D01*
X97332428Y-144010654D01*
D11*
X98850000Y-147458750D02*
X101390000Y-147458750D01*
X83610000Y-149998750D02*
X101390000Y-149998750D01*
X101390000Y-149998750D02*
X101390000Y-116978750D01*
X101390000Y-116978750D02*
X83610000Y-116978750D01*
X83610000Y-116978750D02*
X83610000Y-149998750D01*
G36*
X86655365Y-141569720D02*
G01*
X86155365Y-141569720D01*
X86155365Y-141469720D01*
X86655365Y-141469720D01*
X86655365Y-141569720D01*
G37*
D10*
X86655365Y-141569720D02*
X86155365Y-141569720D01*
X86155365Y-141469720D01*
X86655365Y-141469720D01*
X86655365Y-141569720D01*
G36*
X86655365Y-141569720D02*
G01*
X86555365Y-141569720D01*
X86555365Y-141269720D01*
X86655365Y-141269720D01*
X86655365Y-141569720D01*
G37*
X86655365Y-141569720D02*
X86555365Y-141569720D01*
X86555365Y-141269720D01*
X86655365Y-141269720D01*
X86655365Y-141569720D01*
G36*
X86655365Y-140969720D02*
G01*
X86555365Y-140969720D01*
X86555365Y-140769720D01*
X86655365Y-140769720D01*
X86655365Y-140969720D01*
G37*
X86655365Y-140969720D02*
X86555365Y-140969720D01*
X86555365Y-140769720D01*
X86655365Y-140769720D01*
X86655365Y-140969720D01*
G36*
X86255365Y-141569720D02*
G01*
X86155365Y-141569720D01*
X86155365Y-140769720D01*
X86255365Y-140769720D01*
X86255365Y-141569720D01*
G37*
X86255365Y-141569720D02*
X86155365Y-141569720D01*
X86155365Y-140769720D01*
X86255365Y-140769720D01*
X86255365Y-141569720D01*
G36*
X86455365Y-141169720D02*
G01*
X86355365Y-141169720D01*
X86355365Y-141069720D01*
X86455365Y-141069720D01*
X86455365Y-141169720D01*
G37*
X86455365Y-141169720D02*
X86355365Y-141169720D01*
X86355365Y-141069720D01*
X86455365Y-141069720D01*
X86455365Y-141169720D01*
D11*
X98850000Y-147458750D02*
X98850000Y-144918750D01*
X98850000Y-144918750D02*
X101390000Y-144918750D01*
%TD*%
D12*
%TO.C,U1*%
X97580000Y-118020150D03*
X95040000Y-118477350D03*
X92500000Y-118020150D03*
X89960000Y-118477350D03*
X87420000Y-118020150D03*
X84651400Y-146188750D03*
X99891400Y-118248750D03*
X85108600Y-143648750D03*
X84651400Y-141108750D03*
X85108600Y-138568750D03*
X84651400Y-136028750D03*
X85108600Y-133488750D03*
X84651400Y-130948750D03*
X85108600Y-128408750D03*
X84651400Y-125868750D03*
X85108600Y-123328750D03*
X84651400Y-120788750D03*
X85108600Y-118248750D03*
X100348600Y-120788750D03*
X99891400Y-123328750D03*
X100348600Y-125868750D03*
X99891400Y-128408750D03*
X100348600Y-130948750D03*
X99891400Y-133488750D03*
X100348600Y-136028750D03*
X99891400Y-138568750D03*
X100348600Y-141108750D03*
X99891400Y-143648750D03*
D13*
X100348600Y-146188750D03*
%TD*%
M02*
